<?xml version="1.0" encoding="utf-8"?>
<!-- Generator: Adobe Illustrator 24.3.0, SVG Export Plug-In . SVG Version: 6.00 Build 0)  -->
<svg version="1.1" id="Layer_1" xmlns="http://www.w3.org/2000/svg" xmlns:xlink="http://www.w3.org/1999/xlink" x="0px" y="0px"
	 viewBox="0 0 109 32" style="enable-background:new 0 0 109 32;" xml:space="preserve">
<style type="text/css">
	.st0{fill:#FF4800;}
	.st1{fill:#FFFFFF;}
</style>
<g>
	<path class="st0" d="M32.88,4.67c0,2.32-1.88,4.2-4.2,4.2c-2.32,0-4.2-1.88-4.2-4.2s1.88-4.2,4.2-4.2
		C31,0.47,32.88,2.35,32.88,4.67z"/>
	<path class="st1" d="M31.66,30.36c-1.64,1.64-4.3,1.65-5.94,0.01c-0.65-0.65-1.04-1.46-1.18-2.3c-0.14-0.68-0.83-3.49-2.81-5.46
		c-0.02-0.02-0.03-0.03-0.05-0.05c-2.64-2.59-6.86-2.59-9.5,0c-0.02,0.02-0.03,0.03-0.05,0.05c-2.06,2.06-2.72,5.01-2.82,5.54
		c0,0.03-0.01,0.05-0.02,0.08c-0.15,0.77-0.52,1.51-1.11,2.11c-1.63,1.67-4.28,1.69-5.94,0.06c-1.66-1.64-1.67-4.31-0.02-5.96
		c0.64-0.64,1.44-1.03,2.27-1.17c0.63-0.13,3.49-0.81,5.49-2.81c0.01-0.01,0.03-0.03,0.04-0.04c2.39-2.43,2.39-6.31,0-8.74
		c-0.01-0.02-0.03-0.03-0.04-0.04c-2-2-4.86-2.68-5.49-2.81C3.67,8.66,2.87,8.27,2.23,7.63c-1.64-1.64-1.64-4.3,0.01-5.94
		C3.87,0.06,6.59,0.08,8.2,1.74c0.62,0.64,1,1.43,1.13,2.26c0.14,0.68,0.83,3.49,2.81,5.46c0.02,0.02,0.03,0.03,0.05,0.05
		c2.64,2.59,6.86,2.59,9.5,0c0.02-0.02,0.03-0.03,0.05-0.05l0.01-0.01c0.6-0.6,1.56-0.61,2.16-0.01c0.3,0.3,0.45,0.69,0.45,1.08
		c0,0.39-0.15,0.79-0.45,1.09l-0.01,0.01c-0.05,0.05-0.11,0.11-0.16,0.16c-2.25,2.38-2.25,6.12,0,8.5c0.05,0.06,0.11,0.11,0.16,0.16
		c2,2,4.86,2.68,5.49,2.81c0.82,0.14,1.6,0.52,2.24,1.14C33.29,26.02,33.3,28.71,31.66,30.36z"/>
</g>
<path class="st1" d="M31.72,16.07c0-3.17,2.56-5.61,5.9-5.61c1.38,0.02,2.86,0.62,3.96,1.62l-1.63,2.1
	c-0.66-0.6-1.53-0.99-2.32-0.99c-1.65,0-3.02,1.26-3.02,2.9c0,1.66,1.43,2.88,2.96,2.88c0.9,0,1.7-0.43,2.39-1.04l1.62,2.16
	c-1.02,0.93-2.38,1.57-4.01,1.57C34.55,21.67,31.72,19.44,31.72,16.07z M41.87,16.09c0-3.21,2.55-5.65,5.88-5.65
	c3.33,0,5.88,2.44,5.88,5.65c0,3.19-2.55,5.61-5.89,5.61C44.41,21.7,41.87,19.28,41.87,16.09z M50.75,16.07c0-1.65-1.3-2.93-3-2.93
	c-1.7,0-3,1.28-3,2.93c0,1.65,1.3,2.92,3,2.92C49.44,18.98,50.75,17.71,50.75,16.07z M66.49,10.62v10.81h-2.84v-4.24l-2.88,4.07
	h-0.02l-2.89-4.07v4.24h-2.84V10.62h1.14l4.6,6.3l4.6-6.3H66.49z M68.35,10.72h4.05c2.21,0,4.05,1.66,4.05,3.75
	c0,2.07-1.8,3.8-4.05,3.8h-1.2v3.16h-2.84V10.72z M73.7,14.49c0-0.65-0.54-1.14-1.3-1.14h-1.2v2.3l1.2,0.01
	C73.16,15.66,73.7,15.14,73.7,14.49z M82.52,20.18h-4l-0.54,1.25h-3.11l4.98-10.84h1.35l4.98,10.84h-3.12L82.52,20.18z M81.62,18.1
	l-1.1-2.54l-1.1,2.54H81.62z M96.5,10.71v10.83h-0.9l-5.51-5.33v5.23h-2.84V10.61h0.92l5.49,5.31v-5.22H96.5z M100.87,16.8
	l-3.3-6.08h3.22l1.49,3.1l1.49-3.1H107l-3.31,6.08v4.62h-2.82V16.8z"/>
</svg>
