<?xml version="1.0" encoding="utf-8"?>
<!-- Generator: Adobe Illustrator 24.3.0, SVG Export Plug-In . SVG Version: 6.00 Build 0)  -->
<svg version="1.1" id="Layer_1" xmlns="http://www.w3.org/2000/svg" xmlns:xlink="http://www.w3.org/1999/xlink" x="0px" y="0px"
	 viewBox="0 0 123 36" style="enable-background:new 0 0 123 36;" xml:space="preserve">
<style type="text/css">
	.st0{fill:#F26122;}
	.st1{fill:#EE3761;}
	.st2{fill:#E7198E;}
	.st3{fill:#EE3962;}
	.st4{fill:#B93E97;}
	.st5{fill:#0E1423;}
</style>
<g>
	<g>
		<polygon class="st0" points="10.13,10.54 4.83,10.54 10.13,5.24 		"/>
		<rect x="10.13" y="5.24" class="st1" width="5.3" height="5.3"/>
		<rect x="15.43" y="5.24" class="st2" width="5.3" height="5.3"/>
		<rect x="20.73" y="5.24" class="st3" width="5.3" height="5.3"/>
		<rect x="20.73" y="10.54" class="st4" width="5.3" height="5.3"/>
		<polygon class="st0" points="15.43,15.84 10.13,10.54 15.43,10.54 		"/>
		<rect x="20.73" y="15.84" class="st2" width="5.3" height="5.3"/>
	</g>
	<g>
		<polygon class="st0" points="15.55,26.44 20.85,26.44 15.55,31.74 		"/>
		
			<rect x="10.25" y="26.44" transform="matrix(-1 -1.224647e-16 1.224647e-16 -1 25.805 58.1878)" class="st1" width="5.3" height="5.3"/>
		
			<rect x="4.95" y="26.44" transform="matrix(-1 -1.224647e-16 1.224647e-16 -1 15.2042 58.1878)" class="st2" width="5.3" height="5.3"/>
		
			<rect x="-0.35" y="26.44" transform="matrix(-1 -1.224647e-16 1.224647e-16 -1 4.6034 58.1878)" class="st3" width="5.3" height="5.3"/>
		
			<rect x="-0.35" y="21.14" transform="matrix(-1 -1.224647e-16 1.224647e-16 -1 4.6034 47.587)" class="st4" width="5.3" height="5.3"/>
		<polygon class="st0" points="10.25,21.14 15.55,26.44 10.25,26.44 		"/>
		
			<rect x="-0.35" y="15.84" transform="matrix(-1 -1.224647e-16 1.224647e-16 -1 4.6034 36.9862)" class="st2" width="5.3" height="5.3"/>
	</g>
</g>
<g>
	<path class="st5" d="M51.1,19.65V12.5h5.01V9.69h-7.93v12.76h8.02v-2.81H51.1z"/>
	<polygon class="st5" points="68.32,9.69 65,9.69 63.04,13.07 61.07,9.69 57.75,9.69 61.38,15.91 57.57,22.45 60.89,22.45 
		63.04,18.77 65.19,22.45 68.5,22.45 64.69,15.91 	"/>
	<polygon class="st5" points="68.87,12.5 72.15,12.5 72.15,22.45 75.07,22.45 75.07,12.5 78.35,12.5 78.35,9.69 68.87,9.69 	"/>
	<polygon class="st5" points="85.28,9.69 82.37,9.69 82.37,22.45 89.84,22.45 89.84,19.65 85.28,19.65 	"/>
	<polygon class="st5" points="94.03,17.39 98.59,17.39 98.59,14.61 94.03,14.61 94.03,12.5 99.05,12.5 99.05,9.69 91.12,9.69 
		91.12,22.45 99.14,22.45 99.14,19.65 94.03,19.65 	"/>
	<path class="st5" d="M104.21,9.69l-4.34,12.76h3.19l0.64-2.01h4.74l0.64,2.01h3.19l-4.34-12.76H104.21z M104.57,17.71l1.49-4.68
		l1.49,4.68H104.57z"/>
	<path class="st5" d="M121.36,10.97c-0.85-0.85-1.91-1.28-3.17-1.28h-4.83v12.76h2.92v-4.01h1.91c1.26,0,2.32-0.43,3.17-1.28
		c0.86-0.86,1.29-1.9,1.29-3.1C122.65,12.86,122.22,11.83,121.36,10.97z M119.3,15.23c-0.29,0.32-0.66,0.47-1.11,0.47h-1.91v-3.28
		h1.91c0.45,0,0.82,0.16,1.11,0.47c0.29,0.32,0.44,0.71,0.44,1.17C119.74,14.53,119.59,14.92,119.3,15.23z"/>
	<polygon class="st0" points="59.43,16.21 56.65,13.42 56.65,14.69 34.67,14.69 34.67,17.46 56.65,17.46 56.65,18.73 	"/>
	<path class="st5" d="M43.08,16.62V9.69h2.92v12.76h-2.19l-4.92-6.93v6.93h-2.92V9.69h2.19L43.08,16.62z"/>
	<g>
		<path class="st5" d="M38.03,24.62v0.43h-0.71v2.22H36.8v-2.22h-0.71v-0.43H38.03z"/>
		<path class="st5" d="M43.66,25.04v0.66h0.89v0.42h-0.89v0.7h1.01v0.43h-1.54v-2.66h1.54v0.43H43.66z"/>
		<path class="st5" d="M49.91,25.24c0.12-0.21,0.28-0.37,0.48-0.48c0.2-0.12,0.43-0.17,0.69-0.17c0.3,0,0.56,0.08,0.78,0.23
			c0.22,0.15,0.38,0.36,0.47,0.63h-0.61c-0.06-0.13-0.15-0.22-0.26-0.28c-0.11-0.06-0.24-0.09-0.38-0.09
			c-0.15,0-0.29,0.04-0.41,0.11c-0.12,0.07-0.21,0.17-0.28,0.31c-0.07,0.13-0.1,0.29-0.1,0.46c0,0.17,0.03,0.33,0.1,0.46
			c0.07,0.13,0.16,0.24,0.28,0.31c0.12,0.07,0.26,0.11,0.41,0.11c0.14,0,0.27-0.03,0.38-0.1c0.11-0.06,0.2-0.16,0.26-0.29h0.61
			c-0.09,0.27-0.24,0.48-0.47,0.63c-0.22,0.15-0.48,0.23-0.78,0.23c-0.25,0-0.48-0.06-0.69-0.17c-0.2-0.12-0.36-0.28-0.48-0.48
			c-0.12-0.21-0.18-0.44-0.18-0.7C49.73,25.68,49.79,25.44,49.91,25.24z"/>
		<path class="st5" d="M59.69,24.62v2.65h-0.53v-1.13h-1.14v1.13h-0.53v-2.65h0.53v1.09h1.14v-1.09H59.69z"/>
		<path class="st5" d="M67.19,27.27h-0.53l-1.2-1.82v1.82h-0.53v-2.66h0.53l1.2,1.82v-1.82h0.53V27.27z"/>
		<path class="st5" d="M72.97,27.12c-0.21-0.12-0.37-0.28-0.49-0.48c-0.12-0.21-0.18-0.44-0.18-0.7c0-0.26,0.06-0.49,0.18-0.7
			c0.12-0.21,0.29-0.37,0.49-0.48c0.21-0.12,0.44-0.17,0.68-0.17c0.25,0,0.48,0.06,0.69,0.17c0.21,0.12,0.37,0.28,0.49,0.48
			c0.12,0.21,0.18,0.44,0.18,0.7c0,0.26-0.06,0.49-0.18,0.7c-0.12,0.21-0.28,0.37-0.49,0.48c-0.21,0.12-0.44,0.17-0.68,0.17
			C73.41,27.29,73.18,27.23,72.97,27.12z M74.08,26.71c0.12-0.07,0.22-0.18,0.28-0.31c0.07-0.13,0.1-0.29,0.1-0.47
			c0-0.18-0.03-0.33-0.1-0.47c-0.07-0.13-0.16-0.23-0.28-0.31c-0.12-0.07-0.26-0.11-0.42-0.11c-0.16,0-0.3,0.04-0.42,0.11
			c-0.12,0.07-0.22,0.17-0.29,0.31c-0.07,0.13-0.1,0.29-0.1,0.47c0,0.18,0.03,0.33,0.1,0.47c0.07,0.13,0.16,0.24,0.29,0.31
			c0.12,0.07,0.26,0.11,0.42,0.11C73.82,26.82,73.96,26.78,74.08,26.71z"/>
		<path class="st5" d="M80.65,26.84h0.87v0.42h-1.41v-2.65h0.53V26.84z"/>
		<path class="st5" d="M87.12,27.12c-0.21-0.12-0.37-0.28-0.49-0.48c-0.12-0.21-0.18-0.44-0.18-0.7c0-0.26,0.06-0.49,0.18-0.7
			c0.12-0.21,0.29-0.37,0.49-0.48c0.21-0.12,0.44-0.17,0.68-0.17c0.25,0,0.48,0.06,0.69,0.17c0.21,0.12,0.37,0.28,0.49,0.48
			c0.12,0.21,0.18,0.44,0.18,0.7c0,0.26-0.06,0.49-0.18,0.7c-0.12,0.21-0.28,0.37-0.49,0.48c-0.21,0.12-0.44,0.17-0.68,0.17
			C87.55,27.29,87.32,27.23,87.12,27.12z M88.22,26.71c0.12-0.07,0.22-0.18,0.28-0.31c0.07-0.13,0.1-0.29,0.1-0.47
			c0-0.18-0.03-0.33-0.1-0.47c-0.07-0.13-0.16-0.23-0.28-0.31c-0.12-0.07-0.26-0.11-0.42-0.11c-0.16,0-0.3,0.04-0.42,0.11
			c-0.12,0.07-0.22,0.17-0.29,0.31c-0.07,0.13-0.1,0.29-0.1,0.47c0,0.18,0.03,0.33,0.1,0.47c0.07,0.13,0.16,0.24,0.29,0.31
			c0.12,0.07,0.26,0.11,0.42,0.11C87.96,26.82,88.1,26.78,88.22,26.71z"/>
		<path class="st5" d="M96.11,25.41c-0.06-0.11-0.14-0.2-0.25-0.25c-0.11-0.06-0.23-0.09-0.37-0.09c-0.16,0-0.3,0.04-0.42,0.11
			c-0.12,0.07-0.22,0.17-0.28,0.3c-0.07,0.13-0.1,0.28-0.1,0.46c0,0.18,0.03,0.33,0.1,0.46c0.07,0.13,0.17,0.23,0.29,0.3
			c0.12,0.07,0.27,0.11,0.43,0.11c0.2,0,0.37-0.05,0.5-0.16s0.21-0.26,0.25-0.45h-0.91v-0.41h1.44v0.46
			c-0.04,0.18-0.11,0.36-0.23,0.51c-0.12,0.16-0.27,0.28-0.45,0.38c-0.18,0.09-0.39,0.14-0.62,0.14c-0.26,0-0.49-0.06-0.69-0.17
			c-0.21-0.12-0.37-0.28-0.49-0.48c-0.12-0.21-0.18-0.44-0.18-0.7c0-0.26,0.06-0.49,0.18-0.7c0.12-0.21,0.28-0.37,0.49-0.48
			c0.21-0.12,0.44-0.17,0.69-0.17c0.3,0,0.56,0.07,0.78,0.22c0.22,0.15,0.37,0.35,0.46,0.61H96.11z"/>
		<path class="st5" d="M102.42,24.62v2.65h-0.53v-2.65H102.42z"/>
		<path class="st5" d="M108.19,25.04v0.66h0.89v0.42h-0.89v0.7h1.01v0.43h-1.54v-2.66h1.54v0.43H108.19z"/>
		<path class="st5" d="M114.8,27.2c-0.15-0.06-0.27-0.15-0.35-0.27c-0.09-0.12-0.13-0.26-0.13-0.42h0.57
			c0.01,0.11,0.05,0.2,0.12,0.26s0.17,0.09,0.29,0.09c0.12,0,0.22-0.03,0.29-0.09c0.07-0.06,0.11-0.14,0.11-0.23
			c0-0.08-0.02-0.14-0.07-0.19c-0.05-0.05-0.11-0.09-0.18-0.12c-0.07-0.03-0.17-0.06-0.3-0.1c-0.17-0.05-0.31-0.1-0.42-0.15
			c-0.11-0.05-0.2-0.12-0.28-0.22c-0.08-0.1-0.12-0.23-0.12-0.4c0-0.16,0.04-0.29,0.12-0.41c0.08-0.12,0.19-0.21,0.33-0.27
			c0.14-0.06,0.3-0.09,0.49-0.09c0.27,0,0.5,0.07,0.67,0.2c0.17,0.13,0.27,0.32,0.28,0.56h-0.58c-0.01-0.09-0.04-0.17-0.12-0.23
			s-0.17-0.09-0.29-0.09c-0.1,0-0.19,0.03-0.25,0.08c-0.06,0.05-0.09,0.13-0.09,0.23c0,0.07,0.02,0.13,0.07,0.18
			c0.05,0.05,0.1,0.08,0.17,0.11c0.07,0.03,0.17,0.06,0.29,0.1c0.17,0.05,0.31,0.1,0.42,0.15c0.11,0.05,0.2,0.13,0.28,0.23
			c0.08,0.1,0.12,0.23,0.12,0.4c0,0.14-0.04,0.27-0.11,0.39c-0.07,0.12-0.18,0.22-0.32,0.29c-0.14,0.07-0.31,0.11-0.51,0.11
			C115.12,27.29,114.95,27.26,114.8,27.2z"/>
	</g>
</g>
</svg>
