<?xml version="1.0" encoding="utf-8"?>
<!-- Generator: Adobe Illustrator 24.3.0, SVG Export Plug-In . SVG Version: 6.00 Build 0)  -->
<svg version="1.1" id="Layer_1" xmlns="http://www.w3.org/2000/svg" xmlns:xlink="http://www.w3.org/1999/xlink" x="0px" y="0px"
	 viewBox="0 0 109 32" style="enable-background:new 0 0 109 32;" xml:space="preserve">
<style type="text/css">
	.st0{fill:#FFFFFF;}
	.st1{fill:#F26122;}
	.st2{fill:#EE3761;}
	.st3{fill:#E7198E;}
	.st4{fill:#EE3962;}
	.st5{fill:#B93E97;}
</style>
<g>
	<path class="st0" d="M41.63,16.78v-6.5h4.56V7.73h-7.21v11.6h7.29v-2.55H41.63z"/>
	<polygon class="st0" points="57.29,7.73 54.28,7.73 52.49,10.79 50.7,7.73 47.68,7.73 50.98,13.38 47.51,19.33 50.53,19.33 
		52.49,15.98 54.44,19.33 57.46,19.33 53.99,13.38 	"/>
	<polygon class="st0" points="57.79,10.28 60.77,10.28 60.77,19.33 63.42,19.33 63.42,10.28 66.41,10.28 66.41,7.73 57.79,7.73 	"/>
	<polygon class="st0" points="72.72,7.73 70.06,7.73 70.06,19.33 76.86,19.33 76.86,16.78 72.72,16.78 	"/>
	<polygon class="st0" points="80.67,14.72 84.82,14.72 84.82,12.2 80.67,12.2 80.67,10.28 85.23,10.28 85.23,7.73 78.02,7.73 
		78.02,19.33 85.31,19.33 85.31,16.78 80.67,16.78 	"/>
	<path class="st0" d="M89.92,7.73l-3.94,11.6h2.9l0.58-1.82h4.31l0.58,1.82h2.9L93.3,7.73H89.92z M90.25,15.02l1.36-4.26l1.36,4.26
		H90.25z"/>
	<path class="st0" d="M105.52,8.89c-0.77-0.77-1.73-1.16-2.88-1.16h-4.39v11.6h2.65v-3.65h1.74c1.15,0,2.11-0.39,2.88-1.16
		c0.78-0.78,1.18-1.72,1.18-2.82C106.69,10.61,106.3,9.67,105.52,8.89z M103.64,12.77c-0.27,0.29-0.6,0.43-1.01,0.43h-1.74v-2.98
		h1.74c0.41,0,0.75,0.14,1.01,0.43c0.27,0.29,0.4,0.64,0.4,1.06C104.04,12.13,103.91,12.48,103.64,12.77z"/>
	<polygon class="st1" points="49.2,13.66 46.68,11.11 46.68,12.27 26.69,12.27 26.69,14.79 46.68,14.79 46.68,15.95 	"/>
	<path class="st0" d="M34.34,14.03v-6.3h2.65v11.6H35l-4.48-6.3v6.3h-2.65V7.73h1.99L34.34,14.03z"/>
	<g>
		<path class="st0" d="M29.75,21.3v0.39h-0.64v2.02h-0.48v-2.02h-0.64V21.3H29.75z"/>
		<path class="st0" d="M34.87,21.69v0.6h0.81v0.38h-0.81v0.64h0.92v0.39h-1.4v-2.41h1.4v0.39H34.87z"/>
		<path class="st0" d="M40.55,21.86c0.11-0.19,0.25-0.33,0.44-0.44c0.19-0.1,0.39-0.16,0.62-0.16c0.27,0,0.51,0.07,0.71,0.21
			s0.34,0.33,0.42,0.57h-0.56c-0.06-0.12-0.13-0.2-0.23-0.26c-0.1-0.06-0.22-0.09-0.35-0.09c-0.14,0-0.27,0.03-0.37,0.1
			c-0.11,0.07-0.19,0.16-0.26,0.28c-0.06,0.12-0.09,0.26-0.09,0.42c0,0.16,0.03,0.3,0.09,0.42s0.15,0.21,0.26,0.28
			c0.11,0.07,0.23,0.1,0.37,0.1c0.13,0,0.25-0.03,0.35-0.09c0.1-0.06,0.18-0.15,0.23-0.26h0.56c-0.08,0.25-0.22,0.44-0.42,0.58
			c-0.2,0.14-0.44,0.21-0.71,0.21c-0.23,0-0.44-0.05-0.62-0.16c-0.19-0.1-0.33-0.25-0.44-0.44c-0.11-0.19-0.16-0.4-0.16-0.64
			C40.39,22.26,40.44,22.05,40.55,21.86z"/>
		<path class="st0" d="M49.44,21.3v2.41h-0.48v-1.03h-1.03v1.03h-0.48V21.3h0.48v0.99h1.03V21.3H49.44z"/>
		<path class="st0" d="M56.26,23.71h-0.48l-1.09-1.65v1.65H54.2v-2.41h0.48l1.09,1.66v-1.66h0.48V23.71z"/>
		<path class="st0" d="M61.52,23.57c-0.19-0.11-0.34-0.25-0.45-0.44c-0.11-0.19-0.17-0.4-0.17-0.64c0-0.23,0.06-0.45,0.17-0.63
			c0.11-0.19,0.26-0.33,0.45-0.44c0.19-0.11,0.4-0.16,0.62-0.16c0.23,0,0.44,0.05,0.62,0.16c0.19,0.11,0.34,0.25,0.45,0.44
			c0.11,0.19,0.16,0.4,0.16,0.63c0,0.24-0.05,0.45-0.16,0.64c-0.11,0.19-0.26,0.33-0.45,0.44c-0.19,0.11-0.4,0.16-0.62,0.16
			C61.92,23.73,61.71,23.68,61.52,23.57z M62.53,23.2c0.11-0.07,0.2-0.16,0.26-0.28c0.06-0.12,0.09-0.26,0.09-0.42
			c0-0.16-0.03-0.3-0.09-0.42c-0.06-0.12-0.15-0.21-0.26-0.28c-0.11-0.06-0.24-0.1-0.38-0.1c-0.15,0-0.27,0.03-0.39,0.1
			c-0.11,0.06-0.2,0.16-0.26,0.28c-0.06,0.12-0.09,0.26-0.09,0.42c0,0.16,0.03,0.3,0.09,0.42c0.06,0.12,0.15,0.22,0.26,0.28
			c0.11,0.07,0.24,0.1,0.39,0.1C62.29,23.3,62.41,23.27,62.53,23.2z"/>
		<path class="st0" d="M68.5,23.32h0.79v0.38h-1.28V21.3h0.48V23.32z"/>
		<path class="st0" d="M74.38,23.57c-0.19-0.11-0.34-0.25-0.45-0.44c-0.11-0.19-0.17-0.4-0.17-0.64c0-0.23,0.06-0.45,0.17-0.63
			c0.11-0.19,0.26-0.33,0.45-0.44c0.19-0.11,0.4-0.16,0.62-0.16c0.23,0,0.44,0.05,0.62,0.16c0.19,0.11,0.34,0.25,0.45,0.44
			c0.11,0.19,0.16,0.4,0.16,0.63c0,0.24-0.05,0.45-0.16,0.64c-0.11,0.19-0.26,0.33-0.45,0.44c-0.19,0.11-0.4,0.16-0.62,0.16
			C74.78,23.73,74.57,23.68,74.38,23.57z M75.39,23.2c0.11-0.07,0.2-0.16,0.26-0.28c0.06-0.12,0.09-0.26,0.09-0.42
			c0-0.16-0.03-0.3-0.09-0.42c-0.06-0.12-0.15-0.21-0.26-0.28c-0.11-0.06-0.24-0.1-0.38-0.1c-0.15,0-0.27,0.03-0.39,0.1
			c-0.11,0.06-0.2,0.16-0.26,0.28c-0.06,0.12-0.09,0.26-0.09,0.42c0,0.16,0.03,0.3,0.09,0.42c0.06,0.12,0.15,0.22,0.26,0.28
			c0.11,0.07,0.24,0.1,0.39,0.1C75.15,23.3,75.28,23.27,75.39,23.2z"/>
		<path class="st0" d="M82.56,22.02c-0.06-0.1-0.13-0.18-0.23-0.23c-0.1-0.05-0.21-0.08-0.34-0.08c-0.14,0-0.27,0.03-0.38,0.1
			c-0.11,0.06-0.2,0.16-0.26,0.28c-0.06,0.12-0.09,0.26-0.09,0.41c0,0.16,0.03,0.3,0.1,0.42c0.06,0.12,0.15,0.21,0.26,0.28
			c0.11,0.06,0.24,0.1,0.39,0.1c0.18,0,0.33-0.05,0.45-0.15c0.12-0.1,0.19-0.23,0.23-0.41h-0.83v-0.37h1.31v0.42
			c-0.03,0.17-0.1,0.32-0.21,0.47c-0.11,0.14-0.24,0.26-0.41,0.34c-0.17,0.09-0.35,0.13-0.56,0.13c-0.23,0-0.44-0.05-0.63-0.16
			c-0.19-0.1-0.34-0.25-0.44-0.44c-0.11-0.19-0.16-0.4-0.16-0.64c0-0.24,0.05-0.45,0.16-0.64c0.11-0.19,0.25-0.33,0.44-0.44
			c0.19-0.1,0.4-0.16,0.63-0.16c0.27,0,0.51,0.07,0.71,0.2c0.2,0.13,0.34,0.32,0.41,0.56H82.56z"/>
		<path class="st0" d="M88.3,21.3v2.41h-0.48V21.3H88.3z"/>
		<path class="st0" d="M93.54,21.69v0.6h0.81v0.38h-0.81v0.64h0.92v0.39h-1.4v-2.41h1.4v0.39H93.54z"/>
		<path class="st0" d="M99.56,23.65c-0.13-0.06-0.24-0.14-0.32-0.25c-0.08-0.11-0.12-0.24-0.12-0.38h0.52
			c0.01,0.1,0.04,0.18,0.11,0.23c0.06,0.06,0.15,0.09,0.26,0.09c0.11,0,0.2-0.03,0.27-0.08c0.06-0.05,0.1-0.12,0.1-0.21
			c0-0.07-0.02-0.13-0.07-0.18c-0.04-0.05-0.1-0.08-0.16-0.11c-0.07-0.03-0.16-0.06-0.27-0.09c-0.16-0.05-0.28-0.09-0.38-0.14
			c-0.1-0.04-0.18-0.11-0.25-0.2c-0.07-0.09-0.11-0.21-0.11-0.36c0-0.14,0.04-0.27,0.11-0.37c0.07-0.11,0.17-0.19,0.3-0.24
			c0.13-0.06,0.28-0.08,0.44-0.08c0.25,0,0.45,0.06,0.61,0.18c0.16,0.12,0.24,0.29,0.26,0.51h-0.53c0-0.08-0.04-0.15-0.11-0.21
			c-0.07-0.05-0.15-0.08-0.26-0.08c-0.09,0-0.17,0.02-0.23,0.07c-0.06,0.05-0.08,0.12-0.08,0.21c0,0.06,0.02,0.12,0.06,0.16
			c0.04,0.04,0.1,0.08,0.16,0.1c0.06,0.03,0.15,0.06,0.27,0.09c0.16,0.05,0.28,0.09,0.38,0.14c0.1,0.05,0.18,0.12,0.26,0.21
			c0.07,0.09,0.11,0.21,0.11,0.36c0,0.13-0.03,0.25-0.1,0.36c-0.07,0.11-0.16,0.2-0.29,0.26c-0.13,0.07-0.28,0.1-0.46,0.1
			C99.84,23.73,99.69,23.7,99.56,23.65z"/>
	</g>
</g>
<g>
	<g>
		<polygon class="st1" points="9.28,8.95 4.59,8.95 9.28,4.26 		"/>
		<rect x="9.28" y="4.26" class="st2" width="4.7" height="4.7"/>
		<rect x="13.98" y="4.26" class="st3" width="4.7" height="4.7"/>
		<rect x="18.68" y="4.26" class="st4" width="4.7" height="4.7"/>
		<rect x="18.68" y="8.95" class="st5" width="4.7" height="4.7"/>
		<polygon class="st1" points="13.98,13.65 9.28,8.95 13.98,8.95 		"/>
		<rect x="18.68" y="13.65" class="st3" width="4.7" height="4.7"/>
	</g>
	<g>
		<polygon class="st1" points="14.09,23.05 18.79,23.05 14.09,27.74 		"/>
		
			<rect x="9.39" y="23.05" transform="matrix(-1 -1.224647e-16 1.224647e-16 -1 23.4855 50.7884)" class="st2" width="4.7" height="4.7"/>
		
			<rect x="4.7" y="23.05" transform="matrix(-1 -1.224647e-16 1.224647e-16 -1 14.0913 50.7884)" class="st3" width="4.7" height="4.7"/>
		<rect y="23.05" transform="matrix(-1 -1.224647e-16 1.224647e-16 -1 4.6971 50.7884)" class="st4" width="4.7" height="4.7"/>
		<rect y="18.35" transform="matrix(-1 -1.224647e-16 1.224647e-16 -1 4.6971 41.3942)" class="st5" width="4.7" height="4.7"/>
		<polygon class="st1" points="9.39,18.35 14.09,23.05 9.39,23.05 		"/>
		<rect y="13.65" transform="matrix(-1 -1.224647e-16 1.224647e-16 -1 4.6971 32)" class="st3" width="4.7" height="4.7"/>
	</g>
</g>
</svg>
