<?xml version="1.0" encoding="utf-8"?>
<!-- Generator: Adobe Illustrator 25.1.0, SVG Export Plug-In . SVG Version: 6.00 Build 0)  -->
<svg version="1.1" id="Layer_1" xmlns="http://www.w3.org/2000/svg" xmlns:xlink="http://www.w3.org/1999/xlink" x="0px" y="0px"
	 viewBox="0 0 512 512" style="enable-background:new 0 0 512 512;" xml:space="preserve">
<style type="text/css">
	.st0{fill:#FFFFFF;}
	.st1{layer-type:1;}
	.st2{fill-opacity:0.85;fill:#FFFFFF;}
	.st3{fill-opacity:0.9;fill:#FFFFFF;}
	.st4{fill-opacity:0.8;fill:#FFFFFF;}
	.st5{fill-opacity:0.15;layer-type:1;}
	.st6{fill-opacity:0.6;fill:#FFFFFF;}
	.st7{fill:#FFFFFF;layer-type:2;}
</style>
<rect id="ID_66_" class="st0" width="512" height="512"/>
<circle id="ID_65_" class="st1" cx="256" cy="221.05" r="195.24"/>
<circle id="ID_64_" class="st2" cx="256" cy="221.05" r="195.24"/>
<path id="ID_63_" class="st1" d="M302.62,326.84l-5.74-10.54c-3.39-6.22-6.19-12.63-8.39-19.17c-3.92-11.65-5.92-23.71-5.92-35.85
	v-23.3h-53.14v23.3c0,18.95-4.87,37.7-14.31,55.02l-5.74,10.54C209.38,326.84,247.32,402.08,302.62,326.84z"/>
<path id="ID_62_" class="st3" d="M302.62,326.84l-5.74-10.54c-3.39-6.22-6.19-12.63-8.39-19.17c-3.92-11.65-5.92-23.71-5.92-35.85
	v-23.3h-53.14v23.3c0,18.95-4.87,37.7-14.31,55.02l-5.74,10.54C209.38,326.84,247.32,402.08,302.62,326.84z"/>
<path id="ID_61_" class="st1" d="M360.62,206.88c-0.56-1.89-1.1-3.77-1.64-5.66c-0.51-1.79-1-3.58-1.49-5.38
	c-1.46-5.38-2.82-10.79-4.1-16.22c-0.24-1.03-0.48-2.05-0.72-3.08c-0.54-2.37-1.06-4.76-1.57-7.14c-0.16-0.74-0.31-1.48-0.47-2.21
	c-0.37-1.78-0.74-3.56-1.09-5.34c-0.14-0.68-0.27-1.36-0.41-2.04c-0.46-2.38-0.92-4.76-1.35-7.14c-0.02-0.09-0.03-0.19-0.05-0.28
	c-0.08-0.44-0.16-0.88-0.25-1.33c-0.08-0.42-0.16-0.84-0.24-1.26c-1.8-9.18-4.87-20.9-10.07-32.79c-0.52-1.19-1.06-2.38-1.62-3.57
	c-1.41-2.97-2.95-5.94-4.65-8.87c-0.68-1.17-1.38-2.34-2.11-3.49c-3.64-5.78-7.9-11.33-12.9-16.36c-2-2.01-4.11-3.94-6.35-5.76
	c-0.56-0.46-1.13-0.91-1.7-1.35c-1.15-0.89-2.33-1.74-3.55-2.57c-1.21-0.83-2.46-1.63-3.74-2.4c-10.24-6.15-22.6-10.27-37.51-11.14
	c-0.86-0.05-1.72-0.09-2.57-0.12c-0.85-0.03-1.69-0.04-2.52-0.04c-1.66-0.01-3.29,0.03-4.89,0.11c-0.52-0.02-1.05-0.03-1.6-0.03
	c-0.17,0-0.35,0-0.53,0c-0.38,0-0.76,0-1.16,0c-0.21,0-0.43,0.01-0.65,0.01c-0.37,0.01-0.74,0.01-1.13,0.02
	c-0.24,0.01-0.49,0.02-0.73,0.03c-0.37,0.01-0.75,0.03-1.13,0.05c-0.26,0.01-0.53,0.03-0.8,0.05c-0.38,0.02-0.75,0.04-1.14,0.07
	c-0.28,0.02-0.57,0.05-0.85,0.07c-0.38,0.03-0.77,0.06-1.16,0.1c-0.3,0.03-0.6,0.06-0.9,0.1c-0.39,0.04-0.78,0.08-1.18,0.13
	c-0.31,0.04-0.62,0.08-0.94,0.12c-0.4,0.05-0.8,0.11-1.21,0.17c-0.32,0.05-0.65,0.1-0.97,0.15c-0.41,0.06-0.82,0.13-1.23,0.2
	c-0.34,0.06-0.68,0.12-1.01,0.19c-0.41,0.08-0.83,0.15-1.25,0.24c-0.35,0.07-0.7,0.15-1.05,0.22c-0.42,0.09-0.84,0.18-1.26,0.28
	c-0.36,0.08-0.73,0.17-1.1,0.26c-0.42,0.1-0.84,0.2-1.26,0.31c-0.38,0.1-0.76,0.2-1.14,0.31c-0.42,0.11-0.84,0.23-1.26,0.35
	c-0.39,0.11-0.79,0.24-1.18,0.36c-0.42,0.13-0.83,0.26-1.26,0.39c-0.41,0.13-0.82,0.27-1.23,0.41c-0.42,0.14-0.83,0.28-1.25,0.43
	c-0.42,0.15-0.84,0.31-1.27,0.47c-0.25,0.09-0.5,0.18-0.76,0.28c-0.18,0.07-0.37,0.15-0.55,0.22c-0.16,0.06-0.32,0.12-0.47,0.18
	c-0.2,0.08-0.41,0.17-0.61,0.25c-0.33,0.13-0.65,0.27-0.98,0.41c-0.39,0.17-0.78,0.34-1.18,0.51c-0.33,0.15-0.66,0.29-0.99,0.44
	c-0.39,0.18-0.79,0.36-1.18,0.55c-0.33,0.16-0.67,0.32-1,0.48c-0.4,0.19-0.79,0.39-1.19,0.6c-0.34,0.17-0.67,0.34-1.01,0.52
	c-0.4,0.21-0.79,0.42-1.19,0.64c-0.34,0.18-0.68,0.37-1.01,0.56c-0.4,0.22-0.8,0.46-1.19,0.69c-0.34,0.2-0.68,0.4-1.02,0.6
	c-0.4,0.24-0.8,0.49-1.2,0.74c-0.34,0.21-0.68,0.43-1.02,0.64c-0.4,0.26-0.8,0.52-1.2,0.79c-0.34,0.23-0.68,0.45-1.02,0.69
	c-0.4,0.27-0.8,0.56-1.2,0.84c-0.34,0.24-0.68,0.48-1.02,0.73c-0.4,0.29-0.8,0.6-1.2,0.9c-0.34,0.26-0.67,0.51-1.01,0.77
	c-0.4,0.31-0.8,0.63-1.2,0.96c-0.34,0.27-0.67,0.54-1.01,0.82c-0.4,0.33-0.8,0.67-1.2,1.02c-0.33,0.29-0.67,0.57-1,0.87
	c-0.4,0.35-0.8,0.72-1.2,1.08c-0.33,0.3-0.66,0.6-0.99,0.91c-0.4,0.37-0.79,0.76-1.19,1.14c-0.33,0.32-0.66,0.64-0.99,0.96
	c-0.39,0.39-0.79,0.8-1.18,1.2c-0.33,0.34-0.65,0.67-0.98,1.01c-0.39,0.42-0.79,0.85-1.18,1.28c-0.32,0.35-0.64,0.7-0.96,1.06
	c-0.39,0.44-0.78,0.89-1.17,1.35c-0.32,0.37-0.63,0.73-0.95,1.11c-0.39,0.46-0.77,0.94-1.16,1.42c-0.31,0.39-0.63,0.77-0.94,1.16
	c-0.38,0.49-0.77,0.99-1.15,1.49c-0.31,0.4-0.62,0.8-0.92,1.21c-0.38,0.51-0.76,1.04-1.14,1.57c-0.3,0.42-0.61,0.84-0.91,1.27
	c-0.38,0.54-0.75,1.1-1.12,1.65c-0.3,0.44-0.59,0.87-0.89,1.32c-0.37,0.57-0.74,1.15-1.11,1.73c-0.29,0.46-0.58,0.9-0.87,1.37
	c-0.37,0.59-0.73,1.21-1.09,1.82c-0.28,0.47-0.57,0.94-0.85,1.42c-0.36,0.62-0.72,1.27-1.08,1.9c-0.28,0.49-0.55,0.98-0.83,1.48
	c-0.36,0.65-0.71,1.33-1.06,2c-0.27,0.51-0.54,1.01-0.8,1.52c-0.35,0.69-0.7,1.4-1.05,2.1c-0.26,0.52-0.52,1.03-0.77,1.57
	c-0.35,0.72-0.68,1.47-1.03,2.2c-0.25,0.54-0.5,1.07-0.75,1.62c-0.34,0.77-0.68,1.56-1.02,2.34c-0.23,0.54-0.47,1.07-0.7,1.63
	c-0.35,0.82-0.68,1.67-1.02,2.51c-0.22,0.54-0.44,1.07-0.65,1.62c-0.35,0.89-0.69,1.81-1.03,2.73c-0.19,0.52-0.39,1.03-0.59,1.55
	c-0.37,1.02-0.74,2.08-1.1,3.13c-0.15,0.44-0.31,0.87-0.46,1.32c-0.51,1.51-1.01,3.05-1.5,4.61c-6.97,22.21-9.14,38.66-8.25,50.82
	c0.73,9.93,3.5,16.98,7.36,21.96c0.14-3.55,0.49-6.74,0.94-9.55c0.1-0.61,0.58-3.51,1.55-7.26c1.98-7.65,4.94-14.74,6.87-19.03
	c-2.54,9.14-3.92,16.79-4.7,22.11c-2.29,15.5-3.57,24.97,0.65,35.1c2.72,6.54,6.75,11.01,9.4,13.55c0.05,0.02,0.1,0.03,0.15,0.05
	c-0.67-5.49,0.22-11.18,2.81-16.35c-0.7,7.5,1.57,15.1,6.46,21.03c2.98,1.11,6.3,2.09,9.95,2.9c-0.28-3.88,0.22-7.84,1.57-11.66
	c0,0.04,0,0.09,0,0.13c0.25,7.23,5.93,13.1,13.14,13.69c16.14,1.33,36.46,0,60.43-5.33c6.33-1.41,12.13-2.5,17.45-3.33c0,0,0,0,0,0
	c0,0,0,0,0,0c7.5-1.17,14.04-1.83,19.82-2.13c3.08-0.15,5.94-0.21,8.59-0.18c13.31,0.15,21.66,2.34,28.15,3.73
	c4.84,1.03,8.65,1.62,12.7,0.58c0.02-0.01,0.04-0.01,0.06-0.02c3.81-0.99,6.96-3.69,8.59-7.27c2.9-6.36,3.58-13.68,1.59-20.7
	c0,0,0-0.01,0-0.01c0.9,1.32,1.71,2.73,2.41,4.22c1.53,3.26,2.42,6.66,2.72,10.05C368.11,235.28,365.04,221.81,360.62,206.88z"/>
<path id="ID_60_" class="st4" d="M360.62,206.88c-0.56-1.89-1.1-3.77-1.64-5.66c-0.51-1.79-1-3.58-1.49-5.38
	c-1.46-5.38-2.82-10.79-4.1-16.22c-0.24-1.03-0.48-2.05-0.72-3.08c-0.54-2.37-1.06-4.76-1.57-7.14c-0.16-0.74-0.31-1.48-0.47-2.21
	c-0.37-1.78-0.74-3.56-1.09-5.34c-0.14-0.68-0.27-1.36-0.41-2.04c-0.46-2.38-0.92-4.76-1.35-7.14c-0.02-0.09-0.03-0.19-0.05-0.28
	c-0.08-0.44-0.16-0.88-0.25-1.33c-0.08-0.42-0.16-0.84-0.24-1.26c-1.8-9.18-4.87-20.9-10.07-32.79c-0.52-1.19-1.06-2.38-1.62-3.57
	c-1.41-2.97-2.95-5.94-4.65-8.87c-0.68-1.17-1.38-2.34-2.11-3.49c-3.64-5.78-7.9-11.33-12.9-16.36c-2-2.01-4.11-3.94-6.35-5.76
	c-0.56-0.46-1.13-0.91-1.7-1.35c-1.15-0.89-2.33-1.74-3.55-2.57c-1.21-0.83-2.46-1.63-3.74-2.4c-10.24-6.15-22.6-10.27-37.51-11.14
	c-0.86-0.05-1.72-0.09-2.57-0.12c-0.85-0.03-1.69-0.04-2.52-0.04c-1.66-0.01-3.29,0.03-4.89,0.11c-0.52-0.02-1.05-0.03-1.6-0.03
	c-0.17,0-0.35,0-0.53,0c-0.38,0-0.76,0-1.16,0c-0.21,0-0.43,0.01-0.65,0.01c-0.37,0.01-0.74,0.01-1.13,0.02
	c-0.24,0.01-0.49,0.02-0.73,0.03c-0.37,0.01-0.75,0.03-1.13,0.05c-0.26,0.01-0.53,0.03-0.8,0.05c-0.38,0.02-0.75,0.04-1.14,0.07
	c-0.28,0.02-0.57,0.05-0.85,0.07c-0.38,0.03-0.77,0.06-1.16,0.1c-0.3,0.03-0.6,0.06-0.9,0.1c-0.39,0.04-0.78,0.08-1.18,0.13
	c-0.31,0.04-0.62,0.08-0.94,0.12c-0.4,0.05-0.8,0.11-1.21,0.17c-0.32,0.05-0.65,0.1-0.97,0.15c-0.41,0.06-0.82,0.13-1.23,0.2
	c-0.34,0.06-0.68,0.12-1.01,0.19c-0.41,0.08-0.83,0.15-1.25,0.24c-0.35,0.07-0.7,0.15-1.05,0.22c-0.42,0.09-0.84,0.18-1.26,0.28
	c-0.36,0.08-0.73,0.17-1.1,0.26c-0.42,0.1-0.84,0.2-1.26,0.31c-0.38,0.1-0.76,0.2-1.14,0.31c-0.42,0.11-0.84,0.23-1.26,0.35
	c-0.39,0.11-0.79,0.24-1.18,0.36c-0.42,0.13-0.83,0.26-1.26,0.39c-0.41,0.13-0.82,0.27-1.23,0.41c-0.42,0.14-0.83,0.28-1.25,0.43
	c-0.42,0.15-0.84,0.31-1.27,0.47c-0.25,0.09-0.5,0.18-0.76,0.28c-0.18,0.07-0.37,0.15-0.55,0.22c-0.16,0.06-0.32,0.12-0.47,0.18
	c-0.2,0.08-0.41,0.17-0.61,0.25c-0.33,0.13-0.65,0.27-0.98,0.41c-0.39,0.17-0.78,0.34-1.18,0.51c-0.33,0.15-0.66,0.29-0.99,0.44
	c-0.39,0.18-0.79,0.36-1.18,0.55c-0.33,0.16-0.67,0.32-1,0.48c-0.4,0.19-0.79,0.39-1.19,0.6c-0.34,0.17-0.67,0.34-1.01,0.52
	c-0.4,0.21-0.79,0.42-1.19,0.64c-0.34,0.18-0.68,0.37-1.01,0.56c-0.4,0.22-0.8,0.46-1.19,0.69c-0.34,0.2-0.68,0.4-1.02,0.6
	c-0.4,0.24-0.8,0.49-1.2,0.74c-0.34,0.21-0.68,0.43-1.02,0.64c-0.4,0.26-0.8,0.52-1.2,0.79c-0.34,0.23-0.68,0.45-1.02,0.69
	c-0.4,0.27-0.8,0.56-1.2,0.84c-0.34,0.24-0.68,0.48-1.02,0.73c-0.4,0.29-0.8,0.6-1.2,0.9c-0.34,0.26-0.67,0.51-1.01,0.77
	c-0.4,0.31-0.8,0.63-1.2,0.96c-0.34,0.27-0.67,0.54-1.01,0.82c-0.4,0.33-0.8,0.67-1.2,1.02c-0.33,0.29-0.67,0.57-1,0.87
	c-0.4,0.35-0.8,0.72-1.2,1.08c-0.33,0.3-0.66,0.6-0.99,0.91c-0.4,0.37-0.79,0.76-1.19,1.14c-0.33,0.32-0.66,0.64-0.99,0.96
	c-0.39,0.39-0.79,0.8-1.18,1.2c-0.33,0.34-0.65,0.67-0.98,1.01c-0.39,0.42-0.79,0.85-1.18,1.28c-0.32,0.35-0.64,0.7-0.96,1.06
	c-0.39,0.44-0.78,0.89-1.17,1.35c-0.32,0.37-0.63,0.73-0.95,1.11c-0.39,0.46-0.77,0.94-1.16,1.42c-0.31,0.39-0.63,0.77-0.94,1.16
	c-0.38,0.49-0.77,0.99-1.15,1.49c-0.31,0.4-0.62,0.8-0.92,1.21c-0.38,0.51-0.76,1.04-1.14,1.57c-0.3,0.42-0.61,0.84-0.91,1.27
	c-0.38,0.54-0.75,1.1-1.12,1.65c-0.3,0.44-0.59,0.87-0.89,1.32c-0.37,0.57-0.74,1.15-1.11,1.73c-0.29,0.46-0.58,0.9-0.87,1.37
	c-0.37,0.59-0.73,1.21-1.09,1.82c-0.28,0.47-0.57,0.94-0.85,1.42c-0.36,0.62-0.72,1.27-1.08,1.9c-0.28,0.49-0.55,0.98-0.83,1.48
	c-0.36,0.65-0.71,1.33-1.06,2c-0.27,0.51-0.54,1.01-0.8,1.52c-0.35,0.69-0.7,1.4-1.05,2.1c-0.26,0.52-0.52,1.03-0.77,1.57
	c-0.35,0.72-0.68,1.47-1.03,2.2c-0.25,0.54-0.5,1.07-0.75,1.62c-0.34,0.77-0.68,1.56-1.02,2.34c-0.23,0.54-0.47,1.07-0.7,1.63
	c-0.35,0.82-0.68,1.67-1.02,2.51c-0.22,0.54-0.44,1.07-0.65,1.62c-0.35,0.89-0.69,1.81-1.03,2.73c-0.19,0.52-0.39,1.03-0.59,1.55
	c-0.37,1.02-0.74,2.08-1.1,3.13c-0.15,0.44-0.31,0.87-0.46,1.32c-0.51,1.51-1.01,3.05-1.5,4.61c-6.97,22.21-9.14,38.66-8.25,50.82
	c0.73,9.93,3.5,16.98,7.36,21.96c0.14-3.55,0.49-6.74,0.94-9.55c0.1-0.61,0.58-3.51,1.55-7.26c1.98-7.65,4.94-14.74,6.87-19.03
	c-2.54,9.14-3.92,16.79-4.7,22.11c-2.29,15.5-3.57,24.97,0.65,35.1c2.72,6.54,6.75,11.01,9.4,13.55c0.05,0.02,0.1,0.03,0.15,0.05
	c-0.67-5.49,0.22-11.18,2.81-16.35c-0.7,7.5,1.57,15.1,6.46,21.03c2.98,1.11,6.3,2.09,9.95,2.9c-0.28-3.88,0.22-7.84,1.57-11.66
	c0,0.04,0,0.09,0,0.13c0.25,7.23,5.93,13.1,13.14,13.69c16.14,1.33,36.46,0,60.43-5.33c6.33-1.41,12.13-2.5,17.45-3.33c0,0,0,0,0,0
	c0,0,0,0,0,0c7.5-1.17,14.04-1.83,19.82-2.13c3.08-0.15,5.94-0.21,8.59-0.18c13.31,0.15,21.66,2.34,28.15,3.73
	c4.84,1.03,8.65,1.62,12.7,0.58c0.02-0.01,0.04-0.01,0.06-0.02c3.81-0.99,6.96-3.69,8.59-7.27c2.9-6.36,3.58-13.68,1.59-20.7
	c0,0,0-0.01,0-0.01c0.9,1.32,1.71,2.73,2.41,4.22c1.53,3.26,2.42,6.66,2.72,10.05C368.11,235.28,365.04,221.81,360.62,206.88z"/>
<path id="ID_59_" class="st1" d="M200.11,223.78c-0.92,0.07-1.84,0-2.6-0.22c-0.5-0.15-0.97-0.38-1.4-0.69
	c-1.77-1.26-2.99-3.82-4.54-7.07c-1.57-3.3-1.36-4.06-2.89-7.09c-1.72-3.41-3.47-5.36-4.34-6.51c-5.3-7.07-5.47-21.31-0.69-23.91
	c0.44-0.24,0.91-0.38,1.41-0.43l8.32,26.61v-0.06C194.74,211.12,196.99,217.64,200.11,223.78z"/>
<path id="ID_58_" class="st3" d="M200.11,223.78c-0.92,0.07-1.84,0-2.6-0.22c-0.5-0.15-0.97-0.38-1.4-0.69
	c-1.77-1.26-2.99-3.82-4.54-7.07c-1.57-3.3-1.36-4.06-2.89-7.09c-1.72-3.41-3.47-5.36-4.34-6.51c-5.3-7.07-5.47-21.31-0.69-23.91
	c0.44-0.24,0.91-0.38,1.41-0.43l8.32,26.61v-0.06C194.74,211.12,196.99,217.64,200.11,223.78z"/>
<path id="ID_57_" class="st1" d="M331.22,192.3c-0.56,3.65-1.82,7.27-3.8,9.9c-0.86,1.15-2.61,3.1-4.33,6.51
	c-1.53,3.03-1.32,3.79-2.89,7.09c-1.55,3.25-2.77,5.81-4.54,7.07c-0.43,0.31-0.9,0.54-1.41,0.69c-0.76,0.22-1.68,0.29-2.59,0.22
	c3.97-7.8,6.55-16.24,7.65-24.91c0.02-0.12,0.03-0.25,0.05-0.38l5.56-17.77c1.49,2.23,2.85,4.73,4.06,7.54
	C329.6,189.7,330.35,191.05,331.22,192.3z"/>
<path id="ID_56_" class="st3" d="M331.22,192.3c-0.56,3.65-1.82,7.27-3.8,9.9c-0.86,1.15-2.61,3.1-4.33,6.51
	c-1.53,3.03-1.32,3.79-2.89,7.09c-1.55,3.25-2.77,5.81-4.54,7.07c-0.43,0.31-0.9,0.54-1.41,0.69c-0.76,0.22-1.68,0.29-2.59,0.22
	c3.97-7.8,6.55-16.24,7.65-24.91c0.02-0.12,0.03-0.25,0.05-0.38l5.56-17.77c1.49,2.23,2.85,4.73,4.06,7.54
	C329.6,189.7,330.35,191.05,331.22,192.3z"/>
<path id="ID_55_" class="st1" d="M319.35,198.53c-0.01,0.11-0.03,0.23-0.04,0.34c-1.38,10.85-5.07,21.32-10.89,30.66
	c-0.05,0.08-0.1,0.16-0.15,0.23c-10.55,16.84-26.27,31.98-49.68,39.98c-0.87,0.3-1.78,0.45-2.71,0.45c-0.92,0-1.84-0.15-2.71-0.45
	c-23.41-8-39.12-23.14-49.68-39.98c-0.05-0.07-0.09-0.15-0.14-0.23c-4.82-7.73-8.17-16.22-9.97-25.06v-0.01
	c-1.15-9.57-2.34-30.67,8.33-53.61c5.15-11.08,11.62-19.49,17.23-25.49c5.34,12.91,14.18,25.27,28.79,30.1
	c23.64,7.83,50.53,2.88,68.28,15.89c3.08,14.41,2.27,26.51,1.48,33.12L319.35,198.53z"/>
<path id="ID_54_" class="st3" d="M319.35,198.53c-0.01,0.11-0.03,0.23-0.04,0.34c-1.38,10.85-5.07,21.32-10.89,30.66
	c-0.05,0.08-0.1,0.16-0.15,0.23c-10.55,16.84-26.27,31.98-49.68,39.98c-0.87,0.3-1.78,0.45-2.71,0.45c-0.92,0-1.84-0.15-2.71-0.45
	c-23.41-8-39.12-23.14-49.68-39.98c-0.05-0.07-0.09-0.15-0.14-0.23c-4.82-7.73-8.17-16.22-9.97-25.06v-0.01
	c-1.15-9.57-2.34-30.67,8.33-53.61c5.15-11.08,11.62-19.49,17.23-25.49c5.34,12.91,14.18,25.27,28.79,30.1
	c23.64,7.83,50.53,2.88,68.28,15.89c3.08,14.41,2.27,26.51,1.48,33.12L319.35,198.53z"/>
<path id="ID_53_" class="st1" d="M274.27,184.38c0.22-0.87,0.71-1.66,1.3-2.35c0.59-0.69,1.32-1.28,2.14-1.7
	c0.81-0.42,1.7-0.73,2.6-0.82c0.45-0.08,0.91-0.05,1.35-0.05c0.11,0,0.22,0.01,0.34,0.03c0.11,0.02,0.22,0.03,0.33,0.05
	c0.22,0.04,0.44,0.08,0.66,0.13c-0.44,0.12-0.87,0.17-1.29,0.27c-0.42,0.11-0.83,0.18-1.23,0.33c-0.81,0.22-1.57,0.56-2.29,0.94
	c-0.73,0.38-1.41,0.85-2.06,1.38C275.46,183.11,274.86,183.71,274.27,184.38z"/>
<path id="ID_52_" class="st1" d="M311.66,169.82c-3.43-1.26-6.96-2.28-10.52-3.01c-3.56-0.75-7.16-1.24-10.75-1.31
	c-1.79-0.05-3.58,0.09-5.33,0.33c-0.88,0.1-1.74,0.28-2.6,0.42c-0.43,0.09-0.85,0.18-1.28,0.26c-0.43,0.08-0.85,0.21-1.27,0.31
	c-1.68,0.44-3.34,0.99-4.93,1.75c-1.58,0.77-3.09,1.72-4.61,2.8l-0.18-0.17c1-1.59,2.35-2.98,3.89-4.13
	c0.39-0.27,0.79-0.55,1.2-0.81c0.41-0.26,0.84-0.47,1.27-0.7c0.42-0.24,0.87-0.41,1.31-0.61l0.67-0.28
	c0.22-0.09,0.45-0.16,0.68-0.24c0.46-0.14,0.92-0.31,1.38-0.42c0.47-0.11,0.94-0.21,1.41-0.31c0.95-0.15,1.89-0.29,2.85-0.32
	c1.9-0.09,3.79-0.03,5.66,0.13c1.87,0.15,3.72,0.41,5.55,0.76c1.82,0.37,3.63,0.82,5.4,1.33c1.78,0.53,3.53,1.13,5.25,1.78
	c1.72,0.66,3.42,1.38,5.07,2.2L311.66,169.82z"/>
<path id="ID_51_" class="st1" d="M237.73,184.38c-0.22-0.87-0.71-1.66-1.3-2.35c-0.59-0.69-1.32-1.28-2.14-1.7
	c-0.81-0.42-1.7-0.73-2.6-0.82c-0.45-0.08-0.91-0.05-1.35-0.05c-0.11,0-0.22,0.01-0.34,0.03c-0.11,0.02-0.22,0.03-0.33,0.05
	c-0.22,0.04-0.44,0.08-0.66,0.13c0.44,0.12,0.87,0.17,1.29,0.27c0.42,0.11,0.83,0.18,1.23,0.33c0.81,0.22,1.57,0.56,2.29,0.94
	c0.73,0.38,1.41,0.85,2.06,1.38C236.54,183.11,237.14,183.71,237.73,184.38z"/>
<path id="ID_50_" class="st1" d="M200.35,169.82c3.43-1.26,6.96-2.28,10.52-3.01c3.56-0.75,7.16-1.24,10.75-1.31
	c1.79-0.05,3.58,0.09,5.33,0.33c0.88,0.1,1.74,0.28,2.6,0.42c0.43,0.09,0.85,0.18,1.28,0.26c0.43,0.08,0.85,0.21,1.27,0.31
	c1.68,0.44,3.34,0.99,4.93,1.75c1.58,0.77,3.09,1.72,4.61,2.8l0.18-0.17c-1-1.59-2.35-2.98-3.89-4.13c-0.39-0.27-0.79-0.55-1.2-0.81
	c-0.41-0.26-0.84-0.47-1.27-0.7c-0.42-0.24-0.87-0.41-1.31-0.61l-0.67-0.28c-0.22-0.09-0.45-0.16-0.68-0.24
	c-0.46-0.14-0.92-0.31-1.38-0.42c-0.47-0.11-0.94-0.21-1.41-0.31c-0.95-0.15-1.89-0.29-2.85-0.32c-1.9-0.09-3.79-0.03-5.66,0.13
	c-1.87,0.15-3.72,0.41-5.55,0.76c-1.82,0.37-3.63,0.82-5.4,1.33c-1.78,0.53-3.53,1.13-5.25,1.78c-1.72,0.66-3.42,1.38-5.07,2.2
	L200.35,169.82z"/>
<path id="ID_49_" class="st4" d="M274.27,184.38c0.22-0.87,0.71-1.66,1.3-2.35c0.59-0.69,1.32-1.28,2.14-1.7
	c0.81-0.42,1.7-0.73,2.6-0.82c0.45-0.08,0.91-0.05,1.35-0.05c0.11,0,0.22,0.01,0.34,0.03c0.11,0.02,0.22,0.03,0.33,0.05
	c0.22,0.04,0.44,0.08,0.66,0.13c-0.44,0.12-0.87,0.17-1.29,0.27c-0.42,0.11-0.83,0.18-1.23,0.33c-0.81,0.22-1.57,0.56-2.29,0.94
	c-0.73,0.38-1.41,0.85-2.06,1.38C275.46,183.11,274.86,183.71,274.27,184.38z"/>
<path id="ID_48_" class="st4" d="M311.66,169.82c-3.43-1.26-6.96-2.28-10.52-3.01c-3.56-0.75-7.16-1.24-10.75-1.31
	c-1.79-0.05-3.58,0.09-5.33,0.33c-0.88,0.1-1.74,0.28-2.6,0.42c-0.43,0.09-0.85,0.18-1.28,0.26c-0.43,0.08-0.85,0.21-1.27,0.31
	c-1.68,0.44-3.34,0.99-4.93,1.75c-1.58,0.77-3.09,1.72-4.61,2.8l-0.18-0.17c1-1.59,2.35-2.98,3.89-4.13
	c0.39-0.27,0.79-0.55,1.2-0.81c0.41-0.26,0.84-0.47,1.27-0.7c0.42-0.24,0.87-0.41,1.31-0.61l0.67-0.28
	c0.22-0.09,0.45-0.16,0.68-0.24c0.46-0.14,0.92-0.31,1.38-0.42c0.47-0.11,0.94-0.21,1.41-0.31c0.95-0.15,1.89-0.29,2.85-0.32
	c1.9-0.09,3.79-0.03,5.66,0.13c1.87,0.15,3.72,0.41,5.55,0.76c1.82,0.37,3.63,0.82,5.4,1.33c1.78,0.53,3.53,1.13,5.25,1.78
	c1.72,0.66,3.42,1.38,5.07,2.2L311.66,169.82z"/>
<path id="ID_47_" class="st4" d="M237.73,184.38c-0.22-0.87-0.71-1.66-1.3-2.35c-0.59-0.69-1.32-1.28-2.14-1.7
	c-0.81-0.42-1.7-0.73-2.6-0.82c-0.45-0.08-0.91-0.05-1.35-0.05c-0.11,0-0.22,0.01-0.34,0.03c-0.11,0.02-0.22,0.03-0.33,0.05
	c-0.22,0.04-0.44,0.08-0.66,0.13c0.44,0.12,0.87,0.17,1.29,0.27c0.42,0.11,0.83,0.18,1.23,0.33c0.81,0.22,1.57,0.56,2.29,0.94
	c0.73,0.38,1.41,0.85,2.06,1.38C236.54,183.11,237.14,183.71,237.73,184.38z"/>
<path id="ID_46_" class="st4" d="M200.35,169.82c3.43-1.26,6.96-2.28,10.52-3.01c3.56-0.75,7.16-1.24,10.75-1.31
	c1.79-0.05,3.58,0.09,5.33,0.33c0.88,0.1,1.74,0.28,2.6,0.42c0.43,0.09,0.85,0.18,1.28,0.26c0.43,0.08,0.85,0.21,1.27,0.31
	c1.68,0.44,3.34,0.99,4.93,1.75c1.58,0.77,3.09,1.72,4.61,2.8l0.18-0.17c-1-1.59-2.35-2.98-3.89-4.13c-0.39-0.27-0.79-0.55-1.2-0.81
	c-0.41-0.26-0.84-0.47-1.27-0.7c-0.42-0.24-0.87-0.41-1.31-0.61l-0.67-0.28c-0.22-0.09-0.45-0.16-0.68-0.24
	c-0.46-0.14-0.92-0.31-1.38-0.42c-0.47-0.11-0.94-0.21-1.41-0.31c-0.95-0.15-1.89-0.29-2.85-0.32c-1.9-0.09-3.79-0.03-5.66,0.13
	c-1.87,0.15-3.72,0.41-5.55,0.76c-1.82,0.37-3.63,0.82-5.4,1.33c-1.78,0.53-3.53,1.13-5.25,1.78c-1.72,0.66-3.42,1.38-5.07,2.2
	L200.35,169.82z"/>
<path id="ID_45_" class="st0" d="M299.66,190.45c-0.09,0.51-0.26,1.22-0.58,2.02c-0.32,0.82-0.79,1.73-1.44,2.62
	c-1.08,1.47-2.67,2.89-4.97,3.71c-0.82,0.29-1.69,0.4-2.55,0.3c-5.71-0.63-7.65-1.31-10.15-1.4c-1.67-0.79-2.24-1.91-2.17-3.74
	c0.01-0.14,0.01-0.27,0.03-0.42c0.04-0.48,0.15-0.99,0.3-1.5c0.3-1.01,0.75-2,1.06-2.63l0.06-0.02l0.23-0.07l0.23-0.07l0.46-0.14
	c0.61-0.18,1.22-0.36,1.84-0.51c0.61-0.16,1.23-0.29,1.85-0.41c0.62-0.12,1.24-0.22,1.86-0.31c0.62-0.08,1.24-0.15,1.87-0.19
	c0.15-0.01,0.31-0.02,0.47-0.03c0.08-0.01,0.15-0.01,0.23-0.01l0.23-0.01c0.31-0.02,0.62-0.02,0.94-0.02
	c1.25-0.01,2.5,0.05,3.74,0.2c1.24,0.15,2.48,0.37,3.71,0.66c0.94,0.23,1.87,0.49,2.79,0.8
	C299.74,189.53,299.75,189.91,299.66,190.45z"/>
<path id="ID_44_" class="st0" d="M212.34,190.45c0.09,0.51,0.26,1.22,0.58,2.02c0.32,0.82,0.79,1.73,1.44,2.62
	c1.08,1.47,2.67,2.89,4.97,3.71c0.82,0.29,1.69,0.4,2.55,0.3c5.71-0.63,7.68-1.31,10.17-1.4c1.67-0.79,2.21-1.9,2.15-3.73
	c-0.01-0.14-0.01-0.27-0.03-0.42c-0.04-0.48-0.15-0.99-0.3-1.5c-0.3-1.01-0.75-2-1.06-2.63l-0.06-0.02l-0.23-0.07l-0.23-0.07
	l-0.46-0.14c-0.61-0.18-1.22-0.36-1.84-0.51c-0.61-0.16-1.23-0.29-1.85-0.41c-0.62-0.12-1.24-0.22-1.86-0.31
	c-0.62-0.08-1.24-0.15-1.87-0.19c-0.15-0.01-0.31-0.02-0.47-0.03c-0.08-0.01-0.15-0.01-0.23-0.01l-0.23-0.01
	c-0.31-0.02-0.62-0.02-0.94-0.02c-1.25-0.01-2.5,0.05-3.74,0.2c-1.24,0.15-2.48,0.37-3.71,0.66c-0.94,0.23-1.87,0.49-2.79,0.8
	C212.26,189.53,212.25,189.91,212.34,190.45z"/>
<path id="ID_43_" class="st1" d="M297.59,190.11c0,1.55-0.53,2.98-1.44,4.17c-1.48,1.95-3.98,3.22-6.81,3.22
	c-2.83,0-5.33-1.28-6.81-3.22c-0.91-1.19-1.44-2.62-1.44-4.17c0-0.44,0.04-0.88,0.13-1.3c0.26-0.07,0.52-0.14,0.78-0.2
	c0.61-0.16,1.23-0.29,1.85-0.41c0.62-0.12,1.24-0.22,1.86-0.31c0.62-0.08,1.24-0.15,1.87-0.19c0.15-0.01,0.31-0.02,0.47-0.03
	c0.08-0.01,0.15-0.01,0.23-0.01l0.23-0.01c0.31-0.02,0.62-0.02,0.94-0.02c1.25-0.01,2.5,0.05,3.74,0.2
	c1.24,0.15,2.48,0.37,3.71,0.66c0.18,0.04,0.35,0.09,0.53,0.13C297.54,189.09,297.59,189.59,297.59,190.11z"/>
<path id="ID_42_" class="st1" d="M214.41,190.11c0,1.55,0.53,2.98,1.44,4.17c1.48,1.95,3.98,3.22,6.81,3.22
	c2.83,0,5.33-1.28,6.81-3.22c0.91-1.19,1.44-2.62,1.44-4.17c0-0.44-0.04-0.88-0.13-1.3c-0.26-0.07-0.52-0.14-0.78-0.2
	c-0.61-0.16-1.23-0.29-1.85-0.41c-0.62-0.12-1.24-0.22-1.86-0.31c-0.62-0.08-1.24-0.15-1.87-0.19c-0.15-0.01-0.31-0.02-0.47-0.03
	c-0.08-0.01-0.15-0.01-0.23-0.01l-0.23-0.01c-0.31-0.02-0.62-0.02-0.94-0.02c-1.25-0.01-2.5,0.05-3.74,0.2
	c-1.24,0.15-2.48,0.37-3.71,0.66c-0.18,0.04-0.35,0.09-0.53,0.13C214.46,189.09,214.41,189.59,214.41,190.11z"/>
<path id="ID_41_" class="st3" d="M297.59,190.11c0,1.55-0.53,2.98-1.44,4.17c-1.48,1.95-3.98,3.22-6.81,3.22
	c-2.83,0-5.33-1.28-6.81-3.22c-0.91-1.19-1.44-2.62-1.44-4.17c0-0.44,0.04-0.88,0.13-1.3c0.26-0.07,0.52-0.14,0.78-0.2
	c0.61-0.16,1.23-0.29,1.85-0.41c0.62-0.12,1.24-0.22,1.86-0.31c0.62-0.08,1.24-0.15,1.87-0.19c0.15-0.01,0.31-0.02,0.47-0.03
	c0.08-0.01,0.15-0.01,0.23-0.01l0.23-0.01c0.31-0.02,0.62-0.02,0.94-0.02c1.25-0.01,2.5,0.05,3.74,0.2
	c1.24,0.15,2.48,0.37,3.71,0.66c0.18,0.04,0.35,0.09,0.53,0.13C297.54,189.09,297.59,189.59,297.59,190.11z"/>
<path id="ID_40_" class="st3" d="M214.41,190.11c0,1.55,0.53,2.98,1.44,4.17c1.48,1.95,3.98,3.22,6.81,3.22
	c2.83,0,5.33-1.28,6.81-3.22c0.91-1.19,1.44-2.62,1.44-4.17c0-0.44-0.04-0.88-0.13-1.3c-0.26-0.07-0.52-0.14-0.78-0.2
	c-0.61-0.16-1.23-0.29-1.85-0.41c-0.62-0.12-1.24-0.22-1.86-0.31c-0.62-0.08-1.24-0.15-1.87-0.19c-0.15-0.01-0.31-0.02-0.47-0.03
	c-0.08-0.01-0.15-0.01-0.23-0.01l-0.23-0.01c-0.31-0.02-0.62-0.02-0.94-0.02c-1.25-0.01-2.5,0.05-3.74,0.2
	c-1.24,0.15-2.48,0.37-3.71,0.66c-0.18,0.04-0.35,0.09-0.53,0.13C214.46,189.09,214.41,189.59,214.41,190.11z"/>
<path id="ID_39_" class="st1" d="M296.16,194.27c-1.48,1.95-3.98,3.22-6.81,3.22c-2.83,0-5.33-1.28-6.81-3.22
	c1.48-1.94,3.98-3.22,6.81-3.22C292.18,191.05,294.67,192.33,296.16,194.27z"/>
<path id="ID_38_" class="st1" d="M215.84,194.27c1.48,1.95,3.98,3.22,6.81,3.22c2.83,0,5.33-1.28,6.81-3.22
	c-1.48-1.94-3.98-3.22-6.81-3.22C219.82,191.05,217.33,192.33,215.84,194.27z"/>
<path id="ID_37_" class="st4" d="M296.16,194.27c-1.48,1.95-3.98,3.22-6.81,3.22c-2.83,0-5.33-1.28-6.81-3.22
	c1.48-1.94,3.98-3.22,6.81-3.22C292.18,191.05,294.67,192.33,296.16,194.27z"/>
<path id="ID_36_" class="st4" d="M215.84,194.27c1.48,1.95,3.98,3.22,6.81,3.22c2.83,0,5.33-1.28,6.81-3.22
	c-1.48-1.94-3.98-3.22-6.81-3.22C219.82,191.05,217.33,192.33,215.84,194.27z"/>
<path id="ID_35_" class="st1" d="M414.97,512H97.03c2-23.39,5.3-36.92,10.53-64.11c3.83-19.87,8.69-40.59,14.82-62
	c1.72-6,3.5-11.9,5.32-17.68c3.66-11.65,7.51-22.84,11.47-33.56c1.21-3.29,3.35-6.1,6.1-8.14c1.49-1.1,3.15-1.98,4.95-2.58
	l46.87-15.69l5.37-1.8l19.06-6.38l0.01-0.01c-0.01,0.07-0.02,0.15-0.03,0.21c-0.01,0.07-0.02,0.13-0.02,0.18
	c-0.02,0.22-0.04,0.44-0.05,0.66c-0.01,0.09-0.02,0.19-0.02,0.28c-0.01,0.47,0,0.94,0.03,1.43c0,0,0,0,0,0.01
	c0.84,10.81,14.44,24.99,30.29,27.1h0.01c1.05,0.14,2.11,0.22,3.18,0.25c1.35,0.03,2.69-0.03,4.01-0.17
	c0.42-0.04,0.83-0.1,1.25-0.16c4.87-0.71,9.53-2.53,13.67-5.02c2.46-1.48,4.73-3.19,6.76-5.04c0.51-0.46,1-0.93,1.47-1.41
	c2.38-2.41,4.36-5,5.81-7.61c0.73-1.3,1.31-2.6,1.75-3.88c0.27-0.76,0.48-1.52,0.63-2.26c0.14-0.64,0.23-1.27,0.27-1.89
	c0.04-0.35,0.05-0.7,0.05-1.05c0-0.19-0.01-0.39-0.02-0.58c-0.02-0.29-0.02-0.31-0.02-0.32c0-0.12-0.01-0.23-0.03-0.34
	c-0.01-0.1-0.02-0.23-0.04-0.38c0-0.01,0-0.01,0-0.01l19.07,6.37l5.37,1.8l46.85,15.66c5.13,1.71,9.2,5.66,11.07,10.73
	c3.96,10.73,7.81,21.93,11.47,33.6c1.82,5.78,3.59,11.67,5.31,17.68c6.12,21.41,10.98,42.13,14.81,62.01
	c0.07,0.4,0.14,0.75,0.19,1.02c0.02,0.05,0.03,0.11,0.03,0.16l0.01,0.01c0.2,1.04,0.39,2.06,0.59,3.06
	C410.01,476.55,413.08,489.86,414.97,512z"/>
<path id="ID_34_" class="st3" d="M414.97,512H97.03c2-23.39,5.3-36.92,10.53-64.11c3.83-19.87,8.69-40.59,14.82-62
	c1.72-6,3.5-11.9,5.32-17.68c3.66-11.65,7.51-22.84,11.47-33.56c1.21-3.29,3.35-6.1,6.1-8.14c1.49-1.1,3.15-1.98,4.95-2.58
	l46.87-15.69l5.37-1.8l19.06-6.38l0.01-0.01c-0.01,0.07-0.02,0.15-0.03,0.21c-0.01,0.07-0.02,0.13-0.02,0.18
	c-0.02,0.22-0.04,0.44-0.05,0.66c-0.01,0.09-0.02,0.19-0.02,0.28c-0.01,0.47,0,0.94,0.03,1.43c0,0,0,0,0,0.01
	c0.84,10.81,14.44,24.99,30.29,27.1h0.01c1.05,0.14,2.11,0.22,3.18,0.25c1.35,0.03,2.69-0.03,4.01-0.17
	c0.42-0.04,0.83-0.1,1.25-0.16c4.87-0.71,9.53-2.53,13.67-5.02c2.46-1.48,4.73-3.19,6.76-5.04c0.51-0.46,1-0.93,1.47-1.41
	c2.38-2.41,4.36-5,5.81-7.61c0.73-1.3,1.31-2.6,1.75-3.88c0.27-0.76,0.48-1.52,0.63-2.26c0.14-0.64,0.23-1.27,0.27-1.89
	c0.04-0.35,0.05-0.7,0.05-1.05c0-0.19-0.01-0.39-0.02-0.58c-0.02-0.29-0.02-0.31-0.02-0.32c0-0.12-0.01-0.23-0.03-0.34
	c-0.01-0.1-0.02-0.23-0.04-0.38c0-0.01,0-0.01,0-0.01l19.07,6.37l5.37,1.8l46.85,15.66c5.13,1.71,9.2,5.66,11.07,10.73
	c3.96,10.73,7.81,21.93,11.47,33.6c1.82,5.78,3.59,11.67,5.31,17.68c6.12,21.41,10.98,42.13,14.81,62.01
	c0.07,0.4,0.14,0.75,0.19,1.02c0.02,0.05,0.03,0.11,0.03,0.16l0.01,0.01c0.2,1.04,0.39,2.06,0.59,3.06
	C410.01,476.55,413.08,489.86,414.97,512z"/>
<path id="ID_33_" class="st1" d="M251.82,329.84l-29.26,25.11l-0.24,0.21c-0.01-0.01-0.02-0.02-0.03-0.03
	c-0.03-0.02-0.05-0.05-0.08-0.08c-13.53-12.32-21.58-34.79-25.12-46.84l8.01-2.68l16.43-5.49c-0.02,0.16-0.04,0.29-0.05,0.4
	c-0.83,7.7,6.3,18.14,16.68,24.38C242.29,327.31,246.95,329.13,251.82,329.84z"/>
<path id="ID_32_" class="st1" d="M314.92,308.22c0,0.01,0,0.01-0.01,0.02c-3.56,12.08-11.64,34.63-25.23,46.93l-0.12-0.1
	l-29.3-25.15l-0.08-0.07c4.87-0.71,9.53-2.53,13.67-5.02c9.97-5.99,16.94-15.85,16.74-23.44v0c-0.01-0.2-0.02-0.4-0.03-0.6
	c-0.01-0.11-0.02-0.22-0.03-0.33c-0.01-0.11-0.03-0.24-0.05-0.39c0,0,0,0,0-0.01l19.07,6.37L314.92,308.22z"/>
<circle id="ID_31_" class="st1" cx="256" cy="348.16" r="5.17"/>
<circle id="ID_30_" class="st1" cx="256" cy="367.04" r="5.17"/>
<path id="ID_29_" class="st4" d="M251.82,329.84l-29.26,25.11l-0.24,0.21c-0.01-0.01-0.02-0.02-0.03-0.03
	c-0.03-0.02-0.05-0.05-0.08-0.08c-13.53-12.32-21.58-34.79-25.12-46.84l8.01-2.68l16.43-5.49c-0.02,0.16-0.04,0.29-0.05,0.4
	c-0.83,7.7,6.3,18.14,16.68,24.38C242.29,327.31,246.95,329.13,251.82,329.84z"/>
<path id="ID_28_" class="st4" d="M314.92,308.22c0,0.01,0,0.01-0.01,0.02c-3.56,12.08-11.64,34.63-25.23,46.93l-0.12-0.1
	l-29.3-25.15l-0.08-0.07c4.87-0.71,9.53-2.53,13.67-5.02c9.97-5.99,16.94-15.85,16.74-23.44v0c-0.01-0.2-0.02-0.4-0.03-0.6
	c-0.01-0.11-0.02-0.22-0.03-0.33c-0.01-0.11-0.03-0.24-0.05-0.39c0,0,0,0,0-0.01l19.07,6.37L314.92,308.22z"/>
<circle id="ID_27_" class="st4" cx="256" cy="348.16" r="5.17"/>
<circle id="ID_26_" class="st4" cx="256" cy="367.04" r="5.17"/>
<path id="ID_25_" class="st1" d="M251.19,217.87c-1.01,1.36-0.69,3.29,0.7,4.25l3.72,2.56v-12.76L251.19,217.87z"/>
<path id="ID_24_" class="st1" d="M238.63,238.95c2.89,0.81,5.77,1.41,8.66,1.8c2.89,0.39,5.8,0.57,8.71,0.58
	c2.91-0.01,5.82-0.19,8.71-0.58c2.9-0.39,5.77-0.99,8.66-1.8c-2.53,1.63-5.4,2.74-8.34,3.47c-2.95,0.73-5.99,1.07-9.03,1.07
	c-3.04-0.01-6.08-0.35-9.03-1.08C244.03,241.68,241.16,240.58,238.63,238.95z"/>
<path id="ID_23_" class="st4" d="M251.19,217.87c-1.01,1.36-0.69,3.29,0.7,4.25l3.72,2.56v-12.76L251.19,217.87z"/>
<path id="ID_22_" class="st4" d="M238.63,238.95c2.89,0.81,5.77,1.41,8.66,1.8c2.89,0.39,5.8,0.57,8.71,0.58
	c2.91-0.01,5.82-0.19,8.71-0.58c2.9-0.39,5.77-0.99,8.66-1.8c-2.53,1.63-5.4,2.74-8.34,3.47c-2.95,0.73-5.99,1.07-9.03,1.07
	c-3.04-0.01-6.08-0.35-9.03-1.08C244.03,241.68,241.16,240.58,238.63,238.95z"/>
<path id="ID_21_" class="st5" d="M141.52,512h4.2c-0.54-68.27,0.2-127.33,0.22-128.83C145.88,384.6,143.39,442.33,141.52,512z"/>
<path id="ID_20_" class="st5" d="M404.63,449.09c-0.05-0.28-0.13-0.69-0.23-1.19c-3.83-19.87-8.69-40.6-14.81-62
	c-5.19-18.13-10.85-35.23-16.78-51.28c-1.87-5.07-5.94-9.01-11.07-10.73l-46.85-15.66l-8.01-2.68l-16.43-5.49
	c0.02,0.16,0.04,0.29,0.05,0.4c0.83,7.7-6.3,18.14-16.68,24.38c-4.14,2.49-8.8,4.31-13.67,5.02c-0.41,0.06-0.83,0.11-1.24,0.16
	c-1.33,0.14-2.67,0.2-4.02,0.17c-1.07-0.03-2.13-0.11-3.18-0.25c-16.57-2.19-30.68-17.59-30.33-28.54v0c0.01-0.2,0.02-0.4,0.03-0.6
	c0.01-0.11,0.02-0.22,0.03-0.33c0.01-0.11,0.03-0.24,0.05-0.39l-0.01,0l-19.06,6.38l-5.37,1.8l-46.87,15.7
	c20.38,1.23,33.93,7.19,42.5,12.36c15.02,9.05,18.2,17.74,29.83,18.57c13.84,0.98,17.32-10.76,33.48-11.87
	c11.64-0.8,17.68,4.74,33.48,12.18c24.27,11.42,37.45,11.25,50.53,15.83c7.93,2.78,16.83,7.67,26.08,16.37
	c0.17,14.75,0.64,66.34,0.18,124.64h4.2c-1.59-59.2-3.63-109.76-4.24-124.51C378.88,399.42,392.19,418.48,404.63,449.09z"/>
<path id="ID_19_" class="st5" d="M258.75,269.74c-0.87,0.3-1.79,0.45-2.71,0.45c-0.92,0-1.84-0.15-2.71-0.45
	c-9.05-3.09-16.96-7.25-23.86-12.19v0.15c13.78,11.14,39.22,30.61,59.06,39.43c-3.92-11.65-5.92-23.71-5.92-35.85v-3.73
	C275.71,262.49,267.8,266.65,258.75,269.74z"/>
<path id="ID_18_" class="st5" d="M216.65,132.96c2.79,12.54,14.95,32.32,42.31,34.09c5.14,0.33,9.77,0.59,13.96,0.84
	c1.03,0.07,2.04,0.13,3.02,0.19c21.52,1.38,30.7,3.2,37.9,17.07c1.5,2.89,2.91,6.29,4.33,10.33c0.2-6.52-0.16-14.84-2.15-24.13
	c-17.75-13.01-44.65-8.06-68.28-15.89c-14.61-4.83-23.45-17.19-28.8-30.1c-4.69,5.01-9.97,11.7-14.58,20.23
	C209.47,139.74,213.67,135.12,216.65,132.96z"/>
<path id="ID_17_" class="st5" d="M281.41,192.1c0.2,0.65,0.49,1.26,0.88,1.82c-0.84,0.5-1.73,0.83-2.91,0.65
	c-0.6-0.09-0.72-0.23-1.57-0.61c0-0.13,0.01-0.27,0.03-0.42c0.03-0.47,0.15-0.99,0.3-1.5c0.3-1.01,0.75-2,1.06-2.63l0.06-0.02
	l0.23-0.07l0.23-0.07l0.45-0.14c0.35-0.11,0.7-0.21,1.06-0.31c-0.09,0.43-0.13,0.86-0.13,1.31
	C281.1,190.8,281.21,191.47,281.41,192.1z"/>
<path id="ID_16_" class="st5" d="M299.66,190.45c-0.09,0.51-0.27,1.22-0.58,2.02c-0.32,0.82-0.79,1.73-1.44,2.62h-0.04
	c-0.74,0.04-1.42,0-2.05-0.11c0.22-0.23,0.42-0.46,0.61-0.71c0.41-0.54,0.75-1.13,0.99-1.76c0.29-0.75,0.45-1.56,0.45-2.4
	c0-0.52-0.06-1.01-0.17-1.49c0.76,0.19,1.51,0.41,2.26,0.66C299.74,189.53,299.75,189.91,299.66,190.45z"/>
<path id="ID_15_" class="st5" d="M281.1,190.11c0,0.69,0.11,1.36,0.31,1.99c-1.14,0.17-2.17,0.1-3.27-0.06
	c0.3-1.01,0.75-2,1.06-2.63l0.06-0.02l0.23-0.07l0.23-0.07l0.45-0.14c0.35-0.11,0.7-0.21,1.06-0.31
	C281.14,189.23,281.1,189.66,281.1,190.11z"/>
<path id="ID_14_" class="st5" d="M299.66,190.45c-0.09,0.51-0.27,1.22-0.58,2.02c-0.24,0.02-0.45,0.03-0.62,0.04
	c-0.46,0.03-0.89,0.03-1.31,0c0.29-0.75,0.45-1.56,0.45-2.4c0-0.52-0.06-1.01-0.17-1.49c0.76,0.19,1.51,0.41,2.26,0.66
	C299.74,189.53,299.75,189.91,299.66,190.45z"/>
<path id="ID_13_" class="st5" d="M215.84,194.27c0.19,0.25,0.4,0.48,0.62,0.71c-0.63,0.11-1.31,0.15-2.05,0.11h-0.05
	c-0.65-0.89-1.11-1.8-1.43-2.62c-0.32-0.8-0.5-1.51-0.58-2.02c-0.09-0.54-0.09-0.92-0.03-1.17c0.75-0.25,1.5-0.47,2.26-0.66
	c-0.11,0.48-0.17,0.97-0.17,1.49c0,0.84,0.16,1.65,0.45,2.4C215.1,193.14,215.43,193.73,215.84,194.27z"/>
<path id="ID_12_" class="st5" d="M234.2,193.96c-0.86,0.38-0.98,0.52-1.58,0.61c-1.18,0.18-2.07-0.15-2.9-0.65
	c0.38-0.56,0.68-1.17,0.88-1.82c0.2-0.63,0.3-1.3,0.3-1.99c0-0.45-0.04-0.87-0.12-1.3c0.35,0.09,0.7,0.19,1.05,0.3l0.46,0.14
	l0.46,0.14l0.06,0.02c0.31,0.63,0.75,1.62,1.06,2.63c0.15,0.51,0.26,1.03,0.3,1.5C234.18,193.69,234.19,193.83,234.2,193.96z"/>
<path id="ID_11_" class="st5" d="M214.41,190.11c0,0.84,0.16,1.65,0.45,2.4c-0.42,0.03-0.86,0.03-1.31,0
	c-0.18-0.01-0.39-0.02-0.62-0.04c-0.32-0.8-0.5-1.51-0.58-2.02c-0.09-0.54-0.09-0.92-0.03-1.17c0.75-0.25,1.5-0.47,2.26-0.66
	C214.47,189.1,214.41,189.59,214.41,190.11z"/>
<path id="ID_10_" class="st5" d="M233.87,192.04c-1.11,0.16-2.14,0.23-3.27,0.06c0.2-0.63,0.3-1.3,0.3-1.99
	c0-0.45-0.04-0.87-0.12-1.3c0.35,0.09,0.7,0.19,1.05,0.3l0.46,0.14l0.46,0.14l0.06,0.02C233.12,190.04,233.56,191.03,233.87,192.04z
	"/>
<path id="ID_9_" class="st5" d="M215.11,188.48c-0.18,0.04-0.36,0.09-0.53,0.14v-0.01C214.75,188.57,214.93,188.52,215.11,188.48z"
	/>
<path id="ID_8_" class="st1" d="M304.04,190.8c-0.51-0.31-1.05-0.52-1.59-0.72c-0.23-0.08-0.47-0.16-0.71-0.23
	c-1.7,7.62-8.79,9.66-10.33,9.49c-1.23-0.14-8.23-1.14-11.04-1.55c-0.72-0.1-1.16-0.17-1.16-0.17c0.27,0,0.53,0,0.78,0.01
	c2.49,0.09,4.42,0.61,10.14,1.25c0.86,0.1,1.73,0,2.55-0.3c5.05-1.81,6.67-6.46,6.98-8.35c0.06-0.37,0.08-0.66,0.07-0.9
	c-0.2-0.04-0.39-0.08-0.59-0.12c-0.06-0.01-0.12-0.02-0.19-0.03c-0.12-0.01-0.24-0.02-0.36-0.04c-1.49-0.13-2.97-0.23-4.45-0.29
	c-0.74-0.02-1.48-0.05-2.22-0.04l-0.55-0.01l-0.55,0.01c-0.37,0.01-0.74,0-1.11,0.02c-2.94,0.09-5.88,0.38-8.77,0.99
	c-0.36,0.08-0.72,0.16-1.09,0.23l-1.08,0.28c-0.36,0.08-0.72,0.2-1.08,0.3c-0.36,0.11-0.72,0.2-1.07,0.33
	c-1.44,0.46-2.83,1.04-4.27,1.65c0.59-0.53,1.19-1.08,1.85-1.53c0.32-0.23,0.64-0.48,0.98-0.69l1.01-0.62
	c0.34-0.21,0.69-0.37,1.04-0.56c0.35-0.18,0.7-0.36,1.07-0.52c0.05-0.02,0.09-0.04,0.14-0.06c-0.35-0.03-0.71-0.05-1.06-0.08
	c-0.57-0.06-1.13-0.11-1.7-0.19c-0.56-0.07-1.13-0.17-1.68-0.32c0.57,0.03,1.13,0.01,1.69-0.04c0.56-0.04,1.12-0.11,1.69-0.17
	c1.12-0.13,2.24-0.3,3.36-0.47c1.12-0.17,2.24-0.36,3.35-0.55c0.13-0.02,0.26-0.04,0.4-0.04c1.71-0.33,3.44-0.51,5.17-0.56
	c0.39-0.02,0.77-0.01,1.16-0.01c0.39,0,0.77,0,1.16,0.02c0.77,0.03,1.54,0.08,2.31,0.15c1.23,0.12,2.45,0.31,3.66,0.54l0-0.02
	c0.03,0.01,0.05,0.02,0.07,0.04c0.28,0.05,0.55,0.11,0.83,0.17c1.5,0.33,2.99,0.75,4.45,1.26c0.73,0.26,1.45,0.53,2.16,0.85
	c0.71,0.31,1.42,0.64,2.1,1.04c-1.66-0.26-3.31-0.49-4.95-0.7c0.01,0.01,0.03,0.02,0.04,0.03
	C303.14,189.97,303.62,190.35,304.04,190.8z"/>
<path id="ID_7_" class="st1" d="M207.96,190.8c0.51-0.31,1.05-0.52,1.59-0.72c0.23-0.08,0.47-0.16,0.71-0.23
	c1.7,7.62,8.79,9.66,10.33,9.49c1.23-0.14,8.23-1.14,11.04-1.55c0.72-0.1,1.16-0.17,1.16-0.17c-0.27,0-0.53,0-0.78,0.01
	c-2.49,0.09-4.42,0.61-10.14,1.25c-0.86,0.1-1.73,0-2.55-0.3c-5.05-1.81-6.67-6.46-6.98-8.35c-0.06-0.37-0.08-0.66-0.07-0.9
	c0.2-0.04,0.39-0.08,0.59-0.12c0.06-0.01,0.12-0.02,0.19-0.03c0.12-0.01,0.24-0.02,0.36-0.04c1.49-0.13,2.97-0.23,4.45-0.29
	c0.74-0.02,1.48-0.05,2.22-0.04l0.55-0.01l0.55,0.01c0.37,0.01,0.74,0,1.11,0.02c2.94,0.09,5.88,0.38,8.77,0.99
	c0.36,0.08,0.72,0.16,1.09,0.23l1.08,0.28c0.36,0.08,0.72,0.2,1.08,0.3c0.36,0.11,0.72,0.2,1.07,0.33c1.43,0.46,2.83,1.04,4.27,1.65
	c-0.59-0.53-1.19-1.08-1.85-1.53c-0.32-0.23-0.64-0.48-0.98-0.69l-1.01-0.62c-0.34-0.21-0.69-0.37-1.04-0.56
	c-0.35-0.18-0.7-0.36-1.07-0.52c-0.05-0.02-0.09-0.04-0.14-0.06c0.35-0.03,0.71-0.05,1.06-0.08c0.57-0.06,1.13-0.11,1.7-0.19
	c0.56-0.07,1.13-0.17,1.68-0.32c-0.57,0.03-1.13,0.01-1.69-0.04c-0.56-0.04-1.12-0.11-1.69-0.17c-1.12-0.13-2.24-0.3-3.36-0.47
	c-1.12-0.17-2.24-0.36-3.35-0.55c-0.13-0.02-0.26-0.04-0.4-0.04c-1.71-0.33-3.44-0.51-5.17-0.56c-0.39-0.02-0.77-0.01-1.16-0.01
	c-0.39,0-0.77,0-1.16,0.02c-0.77,0.03-1.54,0.08-2.31,0.15c-1.23,0.12-2.45,0.31-3.66,0.54l0-0.02c-0.03,0.01-0.05,0.02-0.07,0.04
	c-0.28,0.05-0.55,0.11-0.83,0.17c-1.5,0.33-2.99,0.75-4.45,1.26c-0.73,0.26-1.45,0.53-2.16,0.85c-0.71,0.31-1.42,0.64-2.1,1.04
	c1.66-0.26,3.31-0.49,4.95-0.7c-0.01,0.01-0.03,0.02-0.04,0.03C208.86,189.97,208.38,190.35,207.96,190.8z"/>
<path id="ID_6_" class="st6" d="M304.04,190.8c-0.51-0.31-1.05-0.52-1.59-0.72c-0.23-0.08-0.47-0.16-0.71-0.23
	c-1.7,7.62-8.79,9.66-10.33,9.49c-1.23-0.14-8.23-1.14-11.04-1.55c-0.72-0.1-1.16-0.17-1.16-0.17c0.27,0,0.53,0,0.78,0.01
	c2.49,0.09,4.42,0.61,10.14,1.25c0.86,0.1,1.73,0,2.55-0.3c5.05-1.81,6.67-6.46,6.98-8.35c0.06-0.37,0.08-0.66,0.07-0.9
	c-0.2-0.04-0.39-0.08-0.59-0.12c-0.06-0.01-0.12-0.02-0.19-0.03c-0.12-0.01-0.24-0.02-0.36-0.04c-1.49-0.13-2.97-0.23-4.45-0.29
	c-0.74-0.02-1.48-0.05-2.22-0.04l-0.55-0.01l-0.55,0.01c-0.37,0.01-0.74,0-1.11,0.02c-2.94,0.09-5.88,0.38-8.77,0.99
	c-0.36,0.08-0.72,0.16-1.09,0.23l-1.08,0.28c-0.36,0.08-0.72,0.2-1.08,0.3c-0.36,0.11-0.72,0.2-1.07,0.33
	c-1.44,0.46-2.83,1.04-4.27,1.65c0.59-0.53,1.19-1.08,1.85-1.53c0.32-0.23,0.64-0.48,0.98-0.69l1.01-0.62
	c0.34-0.21,0.69-0.37,1.04-0.56c0.35-0.18,0.7-0.36,1.07-0.52c0.05-0.02,0.09-0.04,0.14-0.06c-0.35-0.03-0.71-0.05-1.06-0.08
	c-0.57-0.06-1.13-0.11-1.7-0.19c-0.56-0.07-1.13-0.17-1.68-0.32c0.57,0.03,1.13,0.01,1.69-0.04c0.56-0.04,1.12-0.11,1.69-0.17
	c1.12-0.13,2.24-0.3,3.36-0.47c1.12-0.17,2.24-0.36,3.35-0.55c0.13-0.02,0.26-0.04,0.4-0.04c1.71-0.33,3.44-0.51,5.17-0.56
	c0.39-0.02,0.77-0.01,1.16-0.01c0.39,0,0.77,0,1.16,0.02c0.77,0.03,1.54,0.08,2.31,0.15c1.23,0.12,2.45,0.31,3.66,0.54l0-0.02
	c0.03,0.01,0.05,0.02,0.07,0.04c0.28,0.05,0.55,0.11,0.83,0.17c1.5,0.33,2.99,0.75,4.45,1.26c0.73,0.26,1.45,0.53,2.16,0.85
	c0.71,0.31,1.42,0.64,2.1,1.04c-1.66-0.26-3.31-0.49-4.95-0.7c0.01,0.01,0.03,0.02,0.04,0.03
	C303.14,189.97,303.62,190.35,304.04,190.8z"/>
<path id="ID_5_" class="st6" d="M207.96,190.8c0.51-0.31,1.05-0.52,1.59-0.72c0.23-0.08,0.47-0.16,0.71-0.23
	c1.7,7.62,8.79,9.66,10.33,9.49c1.23-0.14,8.23-1.14,11.04-1.55c0.72-0.1,1.16-0.17,1.16-0.17c-0.27,0-0.53,0-0.78,0.01
	c-2.49,0.09-4.42,0.61-10.14,1.25c-0.86,0.1-1.73,0-2.55-0.3c-5.05-1.81-6.67-6.46-6.98-8.35c-0.06-0.37-0.08-0.66-0.07-0.9
	c0.2-0.04,0.39-0.08,0.59-0.12c0.06-0.01,0.12-0.02,0.19-0.03c0.12-0.01,0.24-0.02,0.36-0.04c1.49-0.13,2.97-0.23,4.45-0.29
	c0.74-0.02,1.48-0.05,2.22-0.04l0.55-0.01l0.55,0.01c0.37,0.01,0.74,0,1.11,0.02c2.94,0.09,5.88,0.38,8.77,0.99
	c0.36,0.08,0.72,0.16,1.09,0.23l1.08,0.28c0.36,0.08,0.72,0.2,1.08,0.3c0.36,0.11,0.72,0.2,1.07,0.33c1.43,0.46,2.83,1.04,4.27,1.65
	c-0.59-0.53-1.19-1.08-1.85-1.53c-0.32-0.23-0.64-0.48-0.98-0.69l-1.01-0.62c-0.34-0.21-0.69-0.37-1.04-0.56
	c-0.35-0.18-0.7-0.36-1.07-0.52c-0.05-0.02-0.09-0.04-0.14-0.06c0.35-0.03,0.71-0.05,1.06-0.08c0.57-0.06,1.13-0.11,1.7-0.19
	c0.56-0.07,1.13-0.17,1.68-0.32c-0.57,0.03-1.13,0.01-1.69-0.04c-0.56-0.04-1.12-0.11-1.69-0.17c-1.12-0.13-2.24-0.3-3.36-0.47
	c-1.12-0.17-2.24-0.36-3.35-0.55c-0.13-0.02-0.26-0.04-0.4-0.04c-1.71-0.33-3.44-0.51-5.17-0.56c-0.39-0.02-0.77-0.01-1.16-0.01
	c-0.39,0-0.77,0-1.16,0.02c-0.77,0.03-1.54,0.08-2.31,0.15c-1.23,0.12-2.45,0.31-3.66,0.54l0-0.02c-0.03,0.01-0.05,0.02-0.07,0.04
	c-0.28,0.05-0.55,0.11-0.83,0.17c-1.5,0.33-2.99,0.75-4.45,1.26c-0.73,0.26-1.45,0.53-2.16,0.85c-0.71,0.31-1.42,0.64-2.1,1.04
	c1.66-0.26,3.31-0.49,4.95-0.7c-0.01,0.01-0.03,0.02-0.04,0.03C208.86,189.97,208.38,190.35,207.96,190.8z"/>
<ellipse id="ID_4_" class="st7" cx="223.09" cy="193.63" rx="1.34" ry="1.06"/>
<ellipse id="ID_3_" class="st7" cx="219.18" cy="191.71" rx="0.56" ry="0.44"/>
<ellipse id="ID_2_" class="st7" cx="289.02" cy="193.63" rx="1.34" ry="1.06"/>
<ellipse id="ID_1_" class="st7" cx="292.93" cy="191.71" rx="0.56" ry="0.44"/>
</svg>
