<?xml version="1.0" encoding="utf-8"?>
<!-- Generator: Adobe Illustrator 23.1.0, SVG Export Plug-In . SVG Version: 6.00 Build 0)  -->
<svg version="1.1" id="Layer_1" xmlns="http://www.w3.org/2000/svg" xmlns:xlink="http://www.w3.org/1999/xlink" x="0px" y="0px"
	 viewBox="0 0 512 512" style="enable-background:new 0 0 512 512;" xml:space="preserve">
<style type="text/css">
	.st0{layer-type:1;}
	.st1{fill-opacity:0.80;fill:#FFFFFF;}
	.st2{fill-opacity:0.77;fill:#FFFFFF;}
	.st3{fill-opacity:0.87;fill:#FFFFFF;}
	.st4{fill-opacity:0.93;fill:#FFFFFF;}
	.st5{fill-opacity:0.97;fill:#FFFFFF;}
	.st6{fill-opacity:0.85;fill:#FFFFFF;}
	.st7{fill-opacity:0.75;fill:#FFFFFF;}
	.st8{fill:#FFFFFF;}
	.st9{fill-opacity:0.15;fill:#FFFFFF;layer-type:2;}
	.st10{layer-type:0;}
	.st11{fill:#FFFFFF;layer-type:2;}
</style>
<path id="ID_88_" class="st0" d="M512,0v512H338.1l-3.5,0.4c0-0.1,0-0.3,0-0.4H0V0H512z"/>
<path id="ID_87_" class="st1" d="M512,0v512H338.1l-3.5,0.4c0-0.1,0-0.3,0-0.4H0V0H512z"/>
<path id="ID_86_" class="st0" d="M261.9,0l-11.7,2l-8,1.4h0L232.9,5l-46.2,7.9c0,0,0,0,0,0l-18,3.1h0l-34.4,5.9l-15.8,2.7h0
	l-24.4,4.2l-2.4,0.4L81.1,31h0L76,31.9l-10.2,1.7l-1.3,0.2L0,44.9v332.7l27.3,103l8.3,31.4h299.1c0,0.1,0,0.3,0,0.4l3.5-0.4l3.2-0.4
	l64.5-7.3L512,492.5V0H261.9z"/>
<path id="ID_85_" class="st2" d="M261.9,0l-11.7,2l-8,1.4h0L232.9,5l-46.2,7.9c0,0,0,0,0,0l-18,3.1h0l-34.4,5.9l-15.8,2.7h0
	l-24.4,4.2l-2.4,0.4L81.1,31h0L76,31.9l-10.2,1.7l-1.3,0.2L0,44.9v332.7l27.3,103l8.3,31.4h299.1c0,0.1,0,0.3,0,0.4l3.5-0.4l3.2-0.4
	l64.5-7.3L512,492.5V0H261.9z"/>
<rect id="ID_84_" y="59.3" class="st0" width="512" height="14.4"/>
<rect id="ID_83_" y="88.4" class="st0" width="512" height="14.4"/>
<rect id="ID_82_" y="117.6" class="st0" width="512" height="14.4"/>
<rect id="ID_81_" y="146.7" class="st0" width="512" height="14.4"/>
<path id="ID_80_" class="st0" d="M287.1,175.8H0v14.4h512v-14.4H287.1C287.1,175.8,287.1,175.8,287.1,175.8z"/>
<rect id="ID_79_" y="205" class="st0" width="512" height="14.4"/>
<rect id="ID_78_" y="234.1" class="st0" width="512" height="14.4"/>
<rect id="ID_77_" y="263.3" class="st0" width="512" height="14.4"/>
<rect id="ID_76_" y="292.4" class="st0" width="512" height="14.4"/>
<rect id="ID_75_" y="321.5" class="st0" width="512" height="14.4"/>
<rect id="ID_74_" y="59.3" class="st3" width="512" height="14.4"/>
<rect id="ID_73_" y="88.4" class="st3" width="512" height="14.4"/>
<rect id="ID_72_" y="117.6" class="st3" width="512" height="14.4"/>
<rect id="ID_71_" y="146.7" class="st3" width="512" height="14.4"/>
<path id="ID_70_" class="st3" d="M287.1,175.8H0v14.4h512v-14.4H287.1C287.1,175.8,287.1,175.8,287.1,175.8z"/>
<rect id="ID_69_" y="205" class="st3" width="512" height="14.4"/>
<rect id="ID_68_" y="234.1" class="st3" width="512" height="14.4"/>
<rect id="ID_67_" y="263.3" class="st3" width="512" height="14.4"/>
<rect id="ID_66_" y="292.4" class="st3" width="512" height="14.4"/>
<rect id="ID_65_" y="321.5" class="st3" width="512" height="14.4"/>
<path id="ID_64_" d="M383.7,252.6c1.6,0.7,3.3,1.2,4.9,1.4C387,253.6,385.4,253.2,383.7,252.6z"/>
<path id="ID_63_" class="st0" d="M389.7,201c14.7-3.6,28.4-12.7,38.7-24.1c-10,8.7-23.3,15.1-36.7,15.3c15-5.4,26.3-17.5,34.1-30.9
	c-8.4,10.7-20.2,19.1-33.2,22.9c3-2.3,5.8-3.8,7.9-6.2c2.1-2.4,4.2-4.9,7.1-7.2c6.3-7.3,9.1-16,12.7-23.7c-4.4,6.7-8,14.3-13.9,19
	c-2.9,1.4-4.8,3-6.9,5.5c-2,1.6-4.8,3-7.6,3.6c11.1-10.4,18.3-25.7,20.1-40.8c-3.4,13.1-10.9,23.9-21.8,32.5
	c8.8-13.3,12.5-29.1,12.5-44.4c-1.6,13.3-7.6,26.1-16.1,36.8c5.4-14.7,7.3-30.6,3.8-46.4c0.1,13.5-1.6,27.7-9.2,39.4
	c2.7-15,2-31.3-4.3-45.6c2.9,13,2.9,27.4-2.1,39.4c1-15.2-4.3-31.2-12.5-43.9c5.8,11.5,8.4,26.3,5.1,39.4c-0.8-15.4-9.8-30-20-41.2
	c8.6,10.1,11.4,23.9,12.4,37.6c-4.4-15-14.5-27.9-27.7-36.8c9.6,9.3,17.1,21,19,34.8c-7.3-13.5-19.3-24.9-33.9-30.3
	c12.7,6.1,20.2,17.8,25.8,30.2c-10.3-11.2-24.4-20.1-39.1-23.8c12,4.2,23.4,13.7,30,25.3c-11.3-10.4-27.7-15.1-42.6-17
	c13,3.4,25.6,10.4,35.1,19.6c-14.4-6.3-30.1-10-45.5-8.3c13.3,0.7,27.2,4.3,37.8,12.8c-14.8-3.6-31.6-4.8-45.7,0.7
	c12.9-2.9,27-1.2,38.6,5.7c-15.6-3.7-30.6,1.6-44.8,8c13-3.8,26.6-5.7,39.5-1.4c-15.3,0.8-29.5,7.2-42.2,16.4
	c11.5-6.7,25.4-10.4,38.6-8.8c-15.6,3.5-28.4,12.7-38.7,24.1c10-8.7,22.4-15.3,35.8-15.4c-13.4,7.4-26.1,16.6-33.3,31.1
	c8.4-10.7,19.3-19.3,32.3-23.1c-11.9,9.4-23.2,21.5-26.9,37.2c5.9-11.9,15.2-22.5,27.5-28.1c-11.2,11.2-17.4,25.8-20.1,40.8
	c4.3-13,11.9-24.7,22.7-32.4c-8.8,13.3-13.3,29-12.5,44.4c1.6-13.3,6.9-27.1,16.1-36.8c-5.4,14.7-8.3,31.4-3.8,46.4
	c-1.9-13.8,1.6-27.7,9.2-39.4c-4.6,15.7-2.1,32.2,4.2,46.5c-3.8-13.1-3.8-27.5,2.2-40.3c-0.9,7.1-0.7,13.4,1.2,20
	c3.4,8.5,5,17.7,11.4,23.9c-7.5-11.7-7.5-26.2-5.9-39.5c2.6,15.6,9.8,30,20.9,41.3c-8.5-11-13.3-23.3-12.4-37.6
	c4.4,15,14.6,27,26.8,36.7c-9.5-10.2-16.1-21.8-19-34.8c8.3,12.7,19.4,24,33.9,30.3c-10.8-6.7-20.2-17.8-25-30.1
	c9,10.7,21.3,18.3,34.2,22.4c-2.6-1.2-5.2-3-7.6-5.6c-1.6-1.1-2.5-1.2-4.2-2.3c-5.6-5.2-10.5-9.4-14.1-16.2
	c12.2,9.6,26.8,15,42.6,17c-13-3.4-24.8-9.4-34.3-19.5c13.5,6.2,29.2,9.9,44.6,8.2c-13.3-0.7-26.3-4.1-36.9-12.7
	c14.8,3.6,30.7,4.7,45.7-0.7c-12.9,2.9-27.8,1.1-39.5-5.8c15.7,2.8,31.4-0.6,44.8-8c-13,3.8-26.6,5.7-39.5,1.4
	c16.1,0.2,30.5-8,43.1-16.3C416,197.9,402.9,202.6,389.7,201z"/>
<path id="ID_62_" class="st1" d="M389.7,201c14.7-3.6,28.4-12.7,38.7-24.1c-10,8.7-23.3,15.1-36.7,15.3c15-5.4,26.3-17.5,34.1-30.9
	c-8.4,10.7-20.2,19.1-33.2,22.9c3-2.3,5.8-3.8,7.9-6.2c2.1-2.4,4.2-4.9,7.1-7.2c6.3-7.3,9.1-16,12.7-23.7c-4.4,6.7-8,14.3-13.9,19
	c-2.9,1.4-4.8,3-6.9,5.5c-2,1.6-4.8,3-7.6,3.6c11.1-10.4,18.3-25.7,20.1-40.8c-3.4,13.1-10.9,23.9-21.8,32.5
	c8.8-13.3,12.5-29.1,12.5-44.4c-1.6,13.3-7.6,26.1-16.1,36.8c5.4-14.7,7.3-30.6,3.8-46.4c0.1,13.5-1.6,27.7-9.2,39.4
	c2.7-15,2-31.3-4.3-45.6c2.9,13,2.9,27.4-2.1,39.4c1-15.2-4.3-31.2-12.5-43.9c5.8,11.5,8.4,26.3,5.1,39.4c-0.8-15.4-9.8-30-20-41.2
	c8.6,10.1,11.4,23.9,12.4,37.6c-4.4-15-14.5-27.9-27.7-36.8c9.6,9.3,17.1,21,19,34.8c-7.3-13.5-19.3-24.9-33.9-30.3
	c12.7,6.1,20.2,17.8,25.8,30.2c-10.3-11.2-24.4-20.1-39.1-23.8c12,4.2,23.4,13.7,30,25.3c-11.3-10.4-27.7-15.1-42.6-17
	c13,3.4,25.6,10.4,35.1,19.6c-14.4-6.3-30.1-10-45.5-8.3c13.3,0.7,27.2,4.3,37.8,12.8c-14.8-3.6-31.6-4.8-45.7,0.7
	c12.9-2.9,27-1.2,38.6,5.7c-15.6-3.7-30.6,1.6-44.8,8c13-3.8,26.6-5.7,39.5-1.4c-15.3,0.8-29.5,7.2-42.2,16.4
	c11.5-6.7,25.4-10.4,38.6-8.8c-15.6,3.5-28.4,12.7-38.7,24.1c10-8.7,22.4-15.3,35.8-15.4c-13.4,7.4-26.1,16.6-33.3,31.1
	c8.4-10.7,19.3-19.3,32.3-23.1c-11.9,9.4-23.2,21.5-26.9,37.2c5.9-11.9,15.2-22.5,27.5-28.1c-11.2,11.2-17.4,25.8-20.1,40.8
	c4.3-13,11.9-24.7,22.7-32.4c-8.8,13.3-13.3,29-12.5,44.4c1.6-13.3,6.9-27.1,16.1-36.8c-5.4,14.7-8.3,31.4-3.8,46.4
	c-1.9-13.8,1.6-27.7,9.2-39.4c-4.6,15.7-2.1,32.2,4.2,46.5c-3.8-13.1-3.8-27.5,2.2-40.3c-0.9,7.1-0.7,13.4,1.2,20
	c3.4,8.5,5,17.7,11.4,23.9c-7.5-11.7-7.5-26.2-5.9-39.5c2.6,15.6,9.8,30,20.9,41.3c-8.5-11-13.3-23.3-12.4-37.6
	c4.4,15,14.6,27,26.8,36.7c-9.5-10.2-16.1-21.8-19-34.8c8.3,12.7,19.4,24,33.9,30.3c-10.8-6.7-20.2-17.8-25-30.1
	c9,10.7,21.3,18.3,34.2,22.4c-2.6-1.2-5.2-3-7.6-5.6c-1.6-1.1-2.5-1.2-4.2-2.3c-5.6-5.2-10.5-9.4-14.1-16.2
	c12.2,9.6,26.8,15,42.6,17c-13-3.4-24.8-9.4-34.3-19.5c13.5,6.2,29.2,9.9,44.6,8.2c-13.3-0.7-26.3-4.1-36.9-12.7
	c14.8,3.6,30.7,4.7,45.7-0.7c-12.9,2.9-27.8,1.1-39.5-5.8c15.7,2.8,31.4-0.6,44.8-8c-13,3.8-26.6,5.7-39.5,1.4
	c16.1,0.2,30.5-8,43.1-16.3C416,197.9,402.9,202.6,389.7,201z"/>
<path id="ID_61_" class="st0" d="M319.2,268.6L249.3,298l5.9,57.4l47.3,28.8l20.1-115.3C321.5,268.8,320.4,268.7,319.2,268.6z"/>
<path id="ID_60_" class="st4" d="M319.2,268.6L249.3,298l5.9,57.4l47.3,28.8l20.1-115.3C321.5,268.8,320.4,268.7,319.2,268.6z"/>
<path id="ID_59_" class="st0" d="M344.3,421.2l-2.9,90.5l0,0.4h-3.2l-3.5,0.4c0-0.1,0-0.3,0-0.4H19c2.5-11.1,5.3-21.6,8.3-31.4
	c26.2-87.9,65.3-128.2,65.3-128.2c10.7-5.5,20.6-11,29.7-16.4c8.5-5,16.2-9.9,23.1-14.4c8.3-5.4,15.4-10.4,21.2-14.7
	c6-4.4,10.7-8,13.9-10.6c2.5-2,4.1-3.3,4.7-3.9c0.2-0.2,0.3-0.3,0.3-0.3s0.1,0.1,0.3,0.3c1.4,1.2,7.6,6.6,16.6,14.4
	c4.9,4.3,10.7,9.3,16.9,14.7c5.3,4.6,10.9,9.4,16.6,14.4c4.4,3.8,8.8,7.7,13.3,11.5c1.9,1.6,3.8,3.3,5.6,4.9
	c0.1,0.1,0.2,0.2,0.3,0.3c5.7,4.5,11.4,8.8,17.1,13.1c14.2,10.9,28.2,22.1,41,36.2c0.3,0.3,0.6,0.7,0.9,1c4,4.1,9.1,5.6,14.3,9
	c3.9,2.3,7.8,4.6,10.8,6.3c1.3,0.8,2.4,1.4,3.2,1.9C343.6,420.8,344.3,421.2,344.3,421.2z"/>
<path id="ID_58_" class="st3" d="M344.3,421.2l-2.9,90.5l0,0.4h-3.2l-3.5,0.4c0-0.1,0-0.3,0-0.4H19c2.5-11.1,5.3-21.6,8.3-31.4
	c26.2-87.9,65.3-128.2,65.3-128.2c10.7-5.5,20.6-11,29.7-16.4c8.5-5,16.2-9.9,23.1-14.4c8.3-5.4,15.4-10.4,21.2-14.7
	c6-4.4,10.7-8,13.9-10.6c2.5-2,4.1-3.3,4.7-3.9c0.2-0.2,0.3-0.3,0.3-0.3s0.1,0.1,0.3,0.3c1.4,1.2,7.6,6.6,16.6,14.4
	c4.9,4.3,10.7,9.3,16.9,14.7c5.3,4.6,10.9,9.4,16.6,14.4c4.4,3.8,8.8,7.7,13.3,11.5c1.9,1.6,3.8,3.3,5.6,4.9
	c0.1,0.1,0.2,0.2,0.3,0.3c5.7,4.5,11.4,8.8,17.1,13.1c14.2,10.9,28.2,22.1,41,36.2c0.3,0.3,0.6,0.7,0.9,1c4,4.1,9.1,5.6,14.3,9
	c3.9,2.3,7.8,4.6,10.8,6.3c1.3,0.8,2.4,1.4,3.2,1.9C343.6,420.8,344.3,421.2,344.3,421.2z"/>
<path id="ID_57_" class="st0" d="M374.5,152.7c-1.8-3.4-5-1.9-7.9-0.4c-0.9,0.5-1.8,1-2.6,1.4c-0.6,0.3-1.3,0.6-2,1
	c-1.5,0.7-2.9,1.4-4.2,2.1c0.7-3.4,1.2-5.7,1.2-5.7c16-36.9-26.3-84-26.3-84l-91-44c0,0-1.6-2.1-4.1,2C226.5,43,195.6,99,201,131.4
	c0,0,0,2.5-0.1,6.1c-1.1-0.9-2.4-2.1-3.7-3.2c-0.6-0.5-1.1-1-1.7-1.4c-0.1-0.1-0.2-0.1-0.2-0.2c-2.8-2.4-6.5-6.9-9.7-3.3
	c-1.4,1.4-1.8,3-1.8,4.8c0,0.9,0.1,1.8,0.2,2.7c0.2,1.1,0.4,2.3,0.5,3.4c0.1,1.1,0.2,2.3,0.2,3.4c0.6,4.6,0.1,9.3-0.5,14
	c-0.1,0.9-0.2,1.9-0.3,2.8c-1.7,9.5,0.6,19,6.7,26.1c0.7,0.6,1.3,1,1.9,1.2c2.3,0.9,3.6-0.6,3.6-0.6l0.4-2.5
	c-0.2,10.6,0.2,24,2.2,39.9c0,0,1.4,19.3,7.6,28.6c0,0,9.9,24.8,40.3,47.6c0,0,3,4,13.6,5.1c10.6,1.5,14.4-1.6,14.4-1.6
	c35-14.8,50.5-36.5,50.5-36.5c8.2-7.6,14.2-26,14.2-26c5.3-13.7,8.8-25.9,11.1-35.7v0c0,0,0.9,1.9,3.3,1.5c0.6-0.1,1.3-0.3,2.1-0.8
	c7.6-5.4,12.1-14,12.8-23.7c0.1-0.9,0.2-1.9,0.3-2.8c0.6-4.7,1.2-9.4,2.9-13.7c0.3-1.1,0.6-2.2,1-3.3s0.8-2.1,1.3-3.2
	c0.3-0.9,0.7-1.7,0.9-2.6C375.5,156.1,375.5,154.4,374.5,152.7z"/>
<path id="ID_56_" class="st5" d="M374.5,152.7c-1.8-3.4-5-1.9-7.9-0.4c-0.9,0.5-1.8,1-2.6,1.4c-0.6,0.3-1.3,0.6-2,1
	c-1.5,0.7-2.9,1.4-4.2,2.1c0.7-3.4,1.2-5.7,1.2-5.7c16-36.9-26.3-84-26.3-84l-91-44c0,0-1.6-2.1-4.1,2C226.5,43,195.6,99,201,131.4
	c0,0,0,2.5-0.1,6.1c-1.1-0.9-2.4-2.1-3.7-3.2c-0.6-0.5-1.1-1-1.7-1.4c-0.1-0.1-0.2-0.1-0.2-0.2c-2.8-2.4-6.5-6.9-9.7-3.3
	c-1.4,1.4-1.8,3-1.8,4.8c0,0.9,0.1,1.8,0.2,2.7c0.2,1.1,0.4,2.3,0.5,3.4c0.1,1.1,0.2,2.3,0.2,3.4c0.6,4.6,0.1,9.3-0.5,14
	c-0.1,0.9-0.2,1.9-0.3,2.8c-1.7,9.5,0.6,19,6.7,26.1c0.7,0.6,1.3,1,1.9,1.2c2.3,0.9,3.6-0.6,3.6-0.6l0.4-2.5
	c-0.2,10.6,0.2,24,2.2,39.9c0,0,1.4,19.3,7.6,28.6c0,0,9.9,24.8,40.3,47.6c0,0,3,4,13.6,5.1c10.6,1.5,14.4-1.6,14.4-1.6
	c35-14.8,50.5-36.5,50.5-36.5c8.2-7.6,14.2-26,14.2-26c5.3-13.7,8.8-25.9,11.1-35.7v0c0,0,0.9,1.9,3.3,1.5c0.6-0.1,1.3-0.3,2.1-0.8
	c7.6-5.4,12.1-14,12.8-23.7c0.1-0.9,0.2-1.9,0.3-2.8c0.6-4.7,1.2-9.4,2.9-13.7c0.3-1.1,0.6-2.2,1-3.3s0.8-2.1,1.3-3.2
	c0.3-0.9,0.7-1.7,0.9-2.6C375.5,156.1,375.5,154.4,374.5,152.7z"/>
<path id="ID_55_" class="st0" d="M171.1,195.3c21,13.3,34.5,34.8,55.2,48.6c2.5,2.5,4.9,5.1,7.3,7.7c2.6,2.6,5,5.4,7.2,8.5
	c1.8,2.5,3.4,5.1,5.1,7.8c3.3,5.3,6.5,10.6,9.9,15.7c1.7,2.9,3.4,5.8,4.9,8.8c1.5,2.8,3,5.7,4.3,8.6c12,25.5,23,48.8,35,74.6
	c6.9-19.9,18.4-83.2,18.4-83.2l64.5,11.6c0,0-32.1,41.8-51.3,66.8c-2.8,3.6-5.2,6.8-7.3,9.5c-4.2,5.5-6.8,8.9-6.8,8.9l15.7,1.9
	c0,0-19.9,8.4-20.3,11.9c0,0-2.3-2-6.1-5.3c-16.6-24.5-44-27-69.5-38.2c-8.5-3.8-11.7-14.1-16.6-21.6c-1.8-2.9-3.6-5.8-5.6-8.6
	c-3.9-5.4-7.8-10.4-12.9-12.8c-2.8-1.3-5.3-2.7-7.6-4.3c-4.3-2.9-7.8-6.1-10.5-9.8c-1.4-1.8-2.6-3.7-3.6-5.7
	c-4.6-6.9-5.5-14.2-7.3-21.6c-4.1-24.8-5.9-47.6-11-71.6c-0.6-2.8,3.2-4.1,5.9-5.9C170.1,196,171.1,195.3,171.1,195.3z"/>
<path id="ID_54_" class="st6" d="M171.1,195.3c21,13.3,34.5,34.8,55.2,48.6c2.5,2.5,4.9,5.1,7.3,7.7c2.6,2.6,5,5.4,7.2,8.5
	c1.8,2.5,3.4,5.1,5.1,7.8c3.3,5.3,6.5,10.6,9.9,15.7c1.7,2.9,3.4,5.8,4.9,8.8c1.5,2.8,3,5.7,4.3,8.6c12,25.5,23,48.8,35,74.6
	c6.9-19.9,18.4-83.2,18.4-83.2l64.5,11.6c0,0-32.1,41.8-51.3,66.8c-2.8,3.6-5.2,6.8-7.3,9.5c-4.2,5.5-6.8,8.9-6.8,8.9l15.7,1.9
	c0,0-19.9,8.4-20.3,11.9c0,0-2.3-2-6.1-5.3c-16.6-24.5-44-27-69.5-38.2c-8.5-3.8-11.7-14.1-16.6-21.6c-1.8-2.9-3.6-5.8-5.6-8.6
	c-3.9-5.4-7.8-10.4-12.9-12.8c-2.8-1.3-5.3-2.7-7.6-4.3c-4.3-2.9-7.8-6.1-10.5-9.8c-1.4-1.8-2.6-3.7-3.6-5.7
	c-4.6-6.9-5.5-14.2-7.3-21.6c-4.1-24.8-5.9-47.6-11-71.6c-0.6-2.8,3.2-4.1,5.9-5.9C170.1,196,171.1,195.3,171.1,195.3z"/>
<polygon id="ID_53_" class="st0" points="241.3,247.9 262.1,243.2 274.4,244.7 292.6,255.1 278.9,271.2 261.8,270.1 243.9,257.8 "/>
<polygon id="ID_52_" class="st7" points="241.3,247.9 262.1,243.2 274.4,244.7 292.6,255.1 278.9,271.2 261.8,270.1 243.9,257.8 "/>
<path id="ID_51_" class="st8" d="M257.8,248.9c0,0-0.5,2.3,8.7,2.9c0,0,0.6,0.4,1.1-0.8c0.2,1.4,0.9,1.1,0.9,1.1
	c9.1,1.6,9.1-0.7,9.1-0.7c3.4,1.8,7.3-1.1,7.3-1.1c-2.6-5.8-16.4-3.5-16.8-3.5c-0.4-0.2-13.2-5.7-17.2-0.7
	C251,246.1,254.1,249.9,257.8,248.9z"/>
<path id="ID_50_" class="st8" d="M265.5,259.6c-1.1-0.2-2.3-0.4-3.4-0.6c-5.6-1.3-11-3.5-16-6.3l-0.4,3
	c0.9,10.6,11.8,14.5,19.9,15.2c0.7,0.1,1.5,0,2.3-0.3c0.8-0.2,1.6-0.6,2.5-1.1c5.6-5.3,14.8-5.8,18.8-12.6
	C281.8,260.4,273.6,260.7,265.5,259.6z"/>
<path id="ID_49_" class="st0" d="M292.7,248.5c-5.4-6.7-16.7-11-16.7-11l-7.3,3.8l-6.2-5.5c0,0-18.9,2.3-22.8,11.4
	c0,0,0.1,0.5,0.2,1.3c0.4,2.6,1.6,8.7,4.7,14.7c3.6,6.9,9.5,13.6,19.6,14.4c0,0,0.1,0,0.1,0c2.7,0.5,5.3,0.4,7.6,0
	c8.8-1.6,15-8.5,18.8-14.4c3.2-4.9,4.7-9.1,4.7-9.1C295.1,252.1,294.1,250.3,292.7,248.5z M289.2,256.9c-5.7,3.3-10.2,5.3-13.7,6.4
	c-4.9,1.5-7.8,1.4-9.1,1.3c-0.2,0-0.3,0-0.4-0.1c-0.1,0-0.2,0-0.4,0c-0.8-0.1-2.2-0.4-4.1-1.1c-3.3-1.4-8.2-4.2-14.7-10.3l0,0
	c-1-0.9-2-1.9-3-2.9c0,0,1.3-0.6,3.4-1.4c1.3-0.5,3-1.1,4.8-1.6h0c4.7-1.3,10.3-2.2,14.1-0.2c0,0,1,0.3,1.8,0.5
	c0.1,0,0.2,0.1,0.4,0.1h0c0,0,0,0,0,0c0,0,0,0,0,0c0,0,0.1,0,0.1,0c0.1,0,0.2,0,0.3,0c0.8,0,1.8-0.1,1.8-0.1c2.7-0.7,5.8,0,8.9,1.3
	c1.7,0.7,3.3,1.5,4.8,2.4c4.1,2.4,7.1,4.9,7.1,4.9C290.4,256.2,289.8,256.5,289.2,256.9z"/>
<path id="ID_48_" class="st6" d="M292.7,248.5c-5.4-6.7-16.7-11-16.7-11l-7.3,3.8l-6.2-5.5c0,0-18.9,2.3-22.8,11.4
	c0,0,0.1,0.5,0.2,1.3c0.4,2.6,1.6,8.7,4.7,14.7c3.6,6.9,9.5,13.6,19.6,14.4c0,0,0.1,0,0.1,0c2.7,0.5,5.3,0.4,7.6,0
	c8.8-1.6,15-8.5,18.8-14.4c3.2-4.9,4.7-9.1,4.7-9.1C295.1,252.1,294.1,250.3,292.7,248.5z M289.2,256.9c-5.7,3.3-10.2,5.3-13.7,6.4
	c-4.9,1.5-7.8,1.4-9.1,1.3c-0.2,0-0.3,0-0.4-0.1c-0.1,0-0.2,0-0.4,0c-0.8-0.1-2.2-0.4-4.1-1.1c-3.3-1.4-8.2-4.2-14.7-10.3l0,0
	c-1-0.9-2-1.9-3-2.9c0,0,1.3-0.6,3.4-1.4c1.3-0.5,3-1.1,4.8-1.6h0c4.7-1.3,10.3-2.2,14.1-0.2c0,0,1,0.3,1.8,0.5
	c0.1,0,0.2,0.1,0.4,0.1h0c0,0,0,0,0,0c0,0,0,0,0,0c0,0,0.1,0,0.1,0c0.1,0,0.2,0,0.3,0c0.8,0,1.8-0.1,1.8-0.1c2.7-0.7,5.8,0,8.9,1.3
	c1.7,0.7,3.3,1.5,4.8,2.4c4.1,2.4,7.1,4.9,7.1,4.9C290.4,256.2,289.8,256.5,289.2,256.9z"/>
<path id="ID_47_" class="st0" d="M325.4,161.3c-5.6-3.2-12.4-1.9-17.9,1.1c-0.9,0.5-1.7,1.1-2.5,1.6c-2.4,1.8-4.5,4.1-6,6.7
	c-0.7,0.9-1.2,1.8-1.6,2.5c-0.9,1.5-1.3,2.5-1.3,2.5c1.3-0.8,2.5-1.5,3.6-2.2c1.2-0.7,2.3-1.3,3.4-1.9c0.7-0.5,1.5-1,2.3-1.5
	c0.8-0.5,1.6-1,2.5-1.4c8.1-5.5,22.3-5.6,24.9,5.8l0.3,0.3C333.6,169.3,330.1,164.1,325.4,161.3z"/>
<path id="ID_46_" class="st0" d="M257.8,165.7c-0.9-2.9-2.3-5.6-4.3-8c-0.6-0.8-1.3-1.5-2.1-2.2c-4.6-4.2-10.9-7.2-17.1-5.4
	c-5.3,1.6-9.9,5.8-10.7,11.2l0.4-0.1c5.2-10.4,19-6.8,25.5,0.5c0.7,0.6,1.4,1.3,2.1,2c0.7,0.7,1.3,1.3,1.9,2
	c0.9,0.8,1.9,1.7,2.9,2.7c1,0.9,2,1.9,3,3c0,0-0.1-1.1-0.6-2.8C258.5,167.7,258.2,166.8,257.8,165.7z"/>
<path id="ID_45_" class="st6" d="M325.4,161.3c-5.6-3.2-12.4-1.9-17.9,1.1c-0.9,0.5-1.7,1.1-2.5,1.6c-2.4,1.8-4.5,4.1-6,6.7
	c-0.7,0.9-1.2,1.8-1.6,2.5c-0.9,1.5-1.3,2.5-1.3,2.5c1.3-0.8,2.5-1.5,3.6-2.2c1.2-0.7,2.3-1.3,3.4-1.9c0.7-0.5,1.5-1,2.3-1.5
	c0.8-0.5,1.6-1,2.5-1.4c8.1-5.5,22.3-5.6,24.9,5.8l0.3,0.3C333.6,169.3,330.1,164.1,325.4,161.3z"/>
<path id="ID_44_" class="st6" d="M257.8,165.7c-0.9-2.9-2.3-5.6-4.3-8c-0.6-0.8-1.3-1.5-2.1-2.2c-4.6-4.2-10.9-7.2-17.1-5.4
	c-5.3,1.6-9.9,5.8-10.7,11.2l0.4-0.1c5.2-10.4,19-6.8,25.5,0.5c0.7,0.6,1.4,1.3,2.1,2c0.7,0.7,1.3,1.3,1.9,2
	c0.9,0.8,1.9,1.7,2.9,2.7c1,0.9,2,1.9,3,3c0,0-0.1-1.1-0.6-2.8C258.5,167.7,258.2,166.8,257.8,165.7z"/>
<path id="ID_43_" class="st0" d="M341,167.9c-1.2,0-2.5,0.1-3.4-0.3c-8.9-2.4-17.9-6-26.9-2.6c-1,0.4-2,0.8-2.9,1.3
	c-1,0.5-1.9,1.2-2.8,1.9c-1,0.6-1.9,1.2-2.8,1.9c-1.8,1.4-3.5,3.1-5,4.9c-1.1,0.7-1.6,1.2-1.6,1.2l0,0.4c25.8-19.7,37-1.7,37-1.7
	c-5.3,15.3-26.2,6-26.2,6c26,20,38.2-13.7,38.2-13.7C343.3,167.6,342.1,167.8,341,167.9z"/>
<path id="ID_42_" class="st0" d="M254.8,164.3c-0.7-0.9-1.5-1.8-2.3-2.6c-0.7-0.9-1.5-1.8-2.3-2.5s-1.6-1.4-2.5-2
	c-7.9-5.5-17.6-4.2-26.7-4c-1,0.2-2.2-0.3-3.3-0.5c-1.1-0.4-2.2-0.8-3.2-1.4c0,0,3.8,35.6,33.8,22.6c0,0-22.5,3.9-24-12.2
	c0,0,15.3-14.8,35.6,10.6l0-0.4c0,0-0.4-0.6-1.3-1.6C257.5,168.1,256.2,166.1,254.8,164.3z"/>
<path id="ID_41_" class="st4" d="M341,167.9c-1.2,0-2.5,0.1-3.4-0.3c-8.9-2.4-17.9-6-26.9-2.6c-1,0.4-2,0.8-2.9,1.3
	c-1,0.5-1.9,1.2-2.8,1.9c-1,0.6-1.9,1.2-2.8,1.9c-1.8,1.4-3.5,3.1-5,4.9c-1.1,0.7-1.6,1.2-1.6,1.2l0,0.4c25.8-19.7,37-1.7,37-1.7
	c-5.3,15.3-26.2,6-26.2,6c26,20,38.2-13.7,38.2-13.7C343.3,167.6,342.1,167.8,341,167.9z"/>
<path id="ID_40_" class="st4" d="M254.8,164.3c-0.7-0.9-1.5-1.8-2.3-2.6c-0.7-0.9-1.5-1.8-2.3-2.5s-1.6-1.4-2.5-2
	c-7.9-5.5-17.6-4.2-26.7-4c-1,0.2-2.2-0.3-3.3-0.5c-1.1-0.4-2.2-0.8-3.2-1.4c0,0,3.8,35.6,33.8,22.6c0,0-22.5,3.9-24-12.2
	c0,0,15.3-14.8,35.6,10.6l0-0.4c0,0-0.4-0.6-1.3-1.6C257.5,168.1,256.2,166.1,254.8,164.3z"/>
<path id="ID_39_" class="st0" d="M348,158.4c-1.8-8.1-7.7-12.9-14.6-14.8c-1-0.3-2-0.5-3-0.6c-2-0.1-4,0-6,0.2c-1,0.1-2,0.2-2.9,0.4
	c-2.4,0.5-4.8,1.1-7.1,1.9c-0.8,0.3-1.6,0.5-2.3,0.8c-0.6,0.3-1.3,0.5-2,0.7c-0.6,0.2-1.3,0.5-2,0.7c-4.2,1.2-8.1,2-12.2,3.8
	c0,0.7,0.1,1.2,0.3,1.5c4.9,0.7,9.8-0.6,14.3-2.6c0.6-0.2,1.2-0.5,1.9-0.7s1.3-0.4,1.9-0.5c0.9-0.3,1.7-0.6,2.5-0.9
	c0.9-0.3,1.7-0.6,2.5-1c1-0.3,1.9-0.5,2.9-0.7c2-0.4,4-0.6,6-0.6c1.1,0.1,2.2,0.3,3.3,0.5c6.5,1.5,12.2,5.8,15.5,12.4
	c0.6,0.7,1.2,1.4,1.8,2.1C348.6,160.1,348.3,159.3,348,158.4z"/>
<path id="ID_38_" class="st0" d="M249.6,139.5c-0.6-0.4-1.1-0.8-1.7-1.2c-0.7-0.5-1.4-0.9-2.1-1.4c-2.1-1.3-4.2-2.5-6.4-3.5
	c-0.9-0.4-1.8-0.8-2.7-1.1c-1.9-0.7-3.8-1.2-5.7-1.6c-1-0.1-2.1-0.1-3.1-0.1c-7.2,0.2-14,3.5-17.7,10.8c-0.5,0.8-1,1.5-1.5,2.3
	c0.7-0.5,1.5-1,2.2-1.6c4.8-5.6,11.3-8.4,18-8.3c1.1,0,2.2,0.1,3.3,0.3c2,0.5,3.9,1.2,5.7,2.1c0.9,0.4,1.8,0.9,2.7,1.4
	c0.8,0.5,1.5,1,2.2,1.6c0.8,0.5,1.5,1,2.3,1.5c0.6,0.3,1.2,0.6,1.7,0.9c0.6,0.3,1.1,0.7,1.6,1.1c3.9,2.9,8.4,5.4,13.3,6
	c0.3-0.3,0.5-0.8,0.6-1.4c-3.5-2.7-7.1-4.4-10.9-6.6C250.8,140.2,250.2,139.8,249.6,139.5z"/>
<path id="ID_37_" class="st3" d="M348,158.4c-1.8-8.1-7.7-12.9-14.6-14.8c-1-0.3-2-0.5-3-0.6c-2-0.1-4,0-6,0.2c-1,0.1-2,0.2-2.9,0.4
	c-2.4,0.5-4.8,1.1-7.1,1.9c-0.8,0.3-1.6,0.5-2.3,0.8c-0.6,0.3-1.3,0.5-2,0.7c-0.6,0.2-1.3,0.5-2,0.7c-4.2,1.2-8.1,2-12.2,3.8
	c0,0.7,0.1,1.2,0.3,1.5c4.9,0.7,9.8-0.6,14.3-2.6c0.6-0.2,1.2-0.5,1.9-0.7s1.3-0.4,1.9-0.5c0.9-0.3,1.7-0.6,2.5-0.9
	c0.9-0.3,1.7-0.6,2.5-1c1-0.3,1.9-0.5,2.9-0.7c2-0.4,4-0.6,6-0.6c1.1,0.1,2.2,0.3,3.3,0.5c6.5,1.5,12.2,5.8,15.5,12.4
	c0.6,0.7,1.2,1.4,1.8,2.1C348.6,160.1,348.3,159.3,348,158.4z"/>
<path id="ID_36_" class="st3" d="M249.6,139.5c-0.6-0.4-1.1-0.8-1.7-1.2c-0.7-0.5-1.4-0.9-2.1-1.4c-2.1-1.3-4.2-2.5-6.4-3.5
	c-0.9-0.4-1.8-0.8-2.7-1.1c-1.9-0.7-3.8-1.2-5.7-1.6c-1-0.1-2.1-0.1-3.1-0.1c-7.2,0.2-14,3.5-17.7,10.8c-0.5,0.8-1,1.5-1.5,2.3
	c0.7-0.5,1.5-1,2.2-1.6c4.8-5.6,11.3-8.4,18-8.3c1.1,0,2.2,0.1,3.3,0.3c2,0.5,3.9,1.2,5.7,2.1c0.9,0.4,1.8,0.9,2.7,1.4
	c0.8,0.5,1.5,1,2.2,1.6c0.8,0.5,1.5,1,2.3,1.5c0.6,0.3,1.2,0.6,1.7,0.9c0.6,0.3,1.1,0.7,1.6,1.1c3.9,2.9,8.4,5.4,13.3,6
	c0.3-0.3,0.5-0.8,0.6-1.4c-3.5-2.7-7.1-4.4-10.9-6.6C250.8,140.2,250.2,139.8,249.6,139.5z"/>
<path id="ID_35_" class="st0" d="M370.2,142.8c-0.9,3.1-2,6.3-3.6,9.6c-0.5,0.3-1,0.6-1.5,0.8c-0.4,0.2-0.7,0.4-1.1,0.5
	c-0.6,0.3-1.3,0.6-2,1c-0.4,0.2-0.8,0.4-1.2,0.6c-1.4,0.7-2.8,1.4-3.9,1.9l-0.3-1c1.4-3.1,2.4-6.2,3-9.4c0.6-3.2,0.9-6.4,0.8-9.7
	C358.6,96,315,80.4,282.6,68.6c-4.5-1.6-9.2-3.2-14.2-4.7c-5-1.5-10.3-3-15.8-4.5l-6.6-0.8c0,0-14.6,1.7-5.8-36.1
	c0,0,26.1-18,61.2-11.6c5,0.9,10.2,2.3,15.5,4.4C370.4,29.6,383.4,94.9,370.2,142.8z"/>
<path id="ID_34_" class="st7" d="M370.2,142.8c-0.9,3.1-2,6.3-3.6,9.6c-0.5,0.3-1,0.6-1.5,0.8c-0.4,0.2-0.7,0.4-1.1,0.5
	c-0.6,0.3-1.3,0.6-2,1c-0.4,0.2-0.8,0.4-1.2,0.6c-1.4,0.7-2.8,1.4-3.9,1.9l-0.3-1c1.4-3.1,2.4-6.2,3-9.4c0.6-3.2,0.9-6.4,0.8-9.7
	C358.6,96,315,80.4,282.6,68.6c-4.5-1.6-9.2-3.2-14.2-4.7c-5-1.5-10.3-3-15.8-4.5l-6.6-0.8c0,0-14.6,1.7-5.8-36.1
	c0,0,26.1-18,61.2-11.6c5,0.9,10.2,2.3,15.5,4.4C370.4,29.6,383.4,94.9,370.2,142.8z"/>
<path id="ID_33_" class="st9" d="M267.1,171.1c-2.5,20.9-21.4,35.8-42.1,33.2c-6.3-0.8-12.1-3.1-17-6.5c-2.7-1.9,46.2-50,44.1-52.5
	c-2.1-2.5-55.3,40.6-56.7,37.6c-3-6.3-4.3-13.5-3.4-21c2.5-20.9,21.4-35.8,42.1-33.2C254.9,131.2,269.6,150.2,267.1,171.1z"/>
<path id="ID_32_" class="st9" d="M362.3,182.8c-2.5,20.9-21.4,35.8-42.1,33.2c-6.3-0.8-12.1-3.1-17-6.5c-2.7-1.9,46.2-50,44.1-52.5
	c-2.1-2.5-55.3,40.6-56.7,37.6c-3-6.3-4.3-13.5-3.4-21c2.5-20.9,21.4-35.8,42.1-33.2C350.1,142.9,364.9,161.9,362.3,182.8z"/>
<path id="ID_31_" class="st10" d="M283.3,217.3c-1.7-4-6.4,0.5-9.2,2.1c0,0,1-0.3,2.1-0.6c0.6-0.1,1.4-0.9,1.9-0.5
	c0.5,1,0.4,2.3,0.5,3.6C280.4,220.4,284.2,219.6,283.3,217.3z"/>
<path id="ID_30_" class="st10" d="M259.2,214.3c-1.5,2,2.1,3.8,3.4,5.5c0.5-1.2,0.6-2.5,1.4-3.3c0.7-0.2,1.2,0.8,1.8,1
	c0.9,0.6,1.9,1.1,1.9,1.1C265.3,216.3,261.8,210.8,259.2,214.3z"/>
<path id="ID_29_" class="st0" d="M371.9,174.3L371.9,174.3L371.9,174.3c0-1.1-0.4-2.2-1-3.1l-5.9-18c-0.4,0.2-0.7,0.4-1.1,0.5
	c-0.6,0.3-1.3,0.6-2,1c-0.4,0.2-0.8,0.4-1.2,0.6l3.8,10.9c-1.3-0.6-2.4-1.1-3-1.3l0,0c-0.5-1.2-1-2.5-1.5-3.7
	c-0.7-1.4-1.5-2.8-2.3-4.2c0-0.1,0-0.1-0.1-0.1c-0.3-0.4-0.5-0.8-0.8-1.2c-2.3-3.4-5.1-6.4-8.4-8.9c-5.4-4.2-11.9-7-19.2-7.9
	c-1.5-0.2-3-0.3-4.4-0.3c-0.7,0-1.3,0-2,0h0c-3.5,0.1-6.9,0.8-10.2,1.8c-1.7,0.6-3.4,1.2-5,2c-2.3,1.1-4.4,2.4-6.4,3.9
	c-0.2,0.2-0.4,0.3-0.6,0.5c-1.2,0.9-2.4,2-3.5,3.1c-1.6,1.6-3.1,3.3-4.5,5.2c-1.3,1.8-2.4,3.7-3.4,5.7v0c-0.1,0.1-0.1,0.3-0.2,0.4
	c-0.2,0.4-0.3,0.7-0.5,1.1c-3.8,4-9.9,4.2-15,1.9c-0.7-0.3-1.3-0.6-1.7-0.9c-1.4-1-2.9-3.7-4.2-6.6v0c-0.7-2.8-1.7-5.5-3-8.1
	c0,0,0,0,0,0c-0.2-0.6-0.3-0.9-0.3-0.9l0.1,0.5l0,0c-0.2-0.5-0.5-0.9-0.7-1.4c-3.5-6.1-8.5-11.2-14.6-14.7c-0.8-0.5-1.7-0.9-2.5-1.3
	c-3.7-1.8-7.8-3-12.2-3.6c-8.7-1.1-17.1,0.8-24.2,4.9c-3,1.7-5.8,3.9-8.3,6.3c-0.4,0.4-0.7,0.7-1,1.1c-1.6,1.7-3.1,3.6-4.4,5.6l0,0
	c0,0,0,0,0,0l0.2-0.8c0,0-24.5,1.6-6.3,19.3l0,0c-0.3,4.2,0.1,8.3,1,12.2c1,4,2.6,7.8,4.7,11.3c0.1,0.2,0.2,0.4,0.4,0.6
	c0.6,0.9,1.1,1.7,1.8,2.6c5.4,7.2,13.1,12.5,22.2,14.7c1.4,0.4,2.9,0.6,4.4,0.8c4.8,0.6,9.5,0.3,13.9-0.8
	c8.9-2.2,16.8-7.4,22.2-14.7c3.2-4.2,5.5-9.1,6.8-14.4c0.2-0.8,0.3-1.5,0.5-2.3c0.1-0.1,0.2-0.2,0.3-0.3c0.7-0.4,1.4-0.9,2.1-1.2
	c5-2.9,11.3-1.5,14.7,2.8c0,0.3-0.1,0.6-0.1,0.9c0,0.2,0,0.4,0,0.6c-0.1,2.2,0,4.4,0.3,6.5c0.2,1.5,0.4,2.9,0.8,4.4
	c0.2,1,0.5,2,0.8,2.9c0.2,0.6,0.4,1.1,0.6,1.7c0.6,1.7,1.4,3.3,2.2,4.9c0.6,1.2,1.3,2.3,2.1,3.4c1.1,1.6,2.3,3.2,3.6,4.6
	c0,0,0,0,0,0c0.7,0.8,1.4,1.5,2.1,2.2c1.5,1.4,3,2.6,4.7,3.8c0.6,0.4,1.1,0.8,1.7,1.1c2,1.2,4.1,2.3,6.3,3.1
	c0.1,0.1,0.3,0.1,0.4,0.2c2.8,1.1,5.8,1.8,8.9,2.2c11.3,1.4,22.1-2.2,30.2-9.1c0.4-0.4,0.9-0.8,1.3-1.1c0.8-0.7,1.5-1.5,2.2-2.2
	c3.8-4.1,6.7-9.1,8.5-14.7c0.6-1.9,1.1-3.9,1.4-5.9l0,0C369.8,180.5,372,177.1,371.9,174.3z M265.6,170.9c-0.1,0.8-0.2,1.5-0.4,2.3
	c0,0.1,0,0.1,0,0.2c-0.1,0.9-0.3,1.7-0.6,2.5c-1.4,5.4-4.1,10.4-7.6,14.4c-7.6,8.9-19.4,14-31.9,12.4c-6.2-0.8-11.9-3.1-16.7-6.6
	c-2.4-1.7-4.5-3.7-6.4-5.9c-2-2.3-3.7-4.9-5.1-7.7c-0.1-0.1-0.1-0.2-0.1-0.3v0c-0.1-0.2-0.2-0.5-0.3-0.7c-0.8-1.8-1.5-3.7-2-5.7
	c-1.2-4.4-1.5-9.1-1-13.8c0-0.3,0.1-0.6,0.1-0.9c0.5-3.7,1.6-7.1,3.1-10.3c0.7-1.4,1.4-2.8,2.3-4.1c0.5-0.8,1-1.5,1.5-2.2
	c1-1.4,2.1-2.6,3.3-3.8c3.8-3.9,8.4-6.8,13.5-8.7c5.1-1.9,10.8-2.6,16.6-1.9c2.7,0.3,5.3,1,7.8,1.9c0.3,0.1,0.7,0.2,1,0.4
	c6.5,2.6,12.1,7,16.1,12.5c0.4,0.6,0.9,1.2,1.2,1.8c0.4,0.6,0.8,1.2,1.1,1.9c2.1,3.8,3.6,8.1,4.3,12.6
	C266,164.3,266,167.6,265.6,170.9z M360.5,182.6c-0.3,2.7-0.9,5.3-1.8,7.7c-1.6,4.8-4.3,9-7.5,12.6c-0.2,0.2-0.4,0.4-0.6,0.6
	c-0.5,0.5-1,1-1.5,1.5c-7.5,7-18,10.8-29,9.4c-5.5-0.7-10.6-2.6-15-5.4c-0.3-0.1-0.5-0.3-0.7-0.5c-0.2-0.2-0.5-0.3-0.7-0.5
	c-1.3-0.9-2.6-1.9-3.7-3.1c-0.2-0.2-0.5-0.4-0.7-0.6c-0.5-0.5-1-1-1.4-1.5c-1.5-1.6-2.8-3.4-4-5.2c-0.5-0.8-1-1.7-1.5-2.6
	c-0.1-0.2-0.2-0.4-0.3-0.6c-0.7-1.3-1.2-2.7-1.7-4.1c-0.1-0.2-0.2-0.5-0.3-0.7c-0.4-1.2-0.8-2.5-1-3.8c-0.4-1.6-0.6-3.2-0.7-4.9
	c-0.1-1.7-0.1-3.4,0-5.1c0-0.1,0-0.3,0-0.4c0-0.6,0.1-1.2,0.2-1.8c0.2-1.3,0.4-2.6,0.7-3.9v0c0.4-1.7,0.9-3.3,1.5-4.8
	c0.5-1.3,1.1-2.6,1.7-3.9c0.3-0.6,0.6-1.1,0.9-1.7c0.9-1.5,1.9-2.9,2.9-4.3c0.6-0.8,1.2-1.5,1.9-2.2c1.1-1.2,2.4-2.4,3.7-3.4
	c0.2-0.2,0.4-0.4,0.7-0.5l0,0c0.7-0.6,1.5-1.1,2.3-1.6c0.4-0.3,0.8-0.5,1.2-0.8c2.3-1.4,4.8-2.5,7.4-3.4h0c0.9-0.3,1.8-0.6,2.7-0.8
	h0c4-1,8.3-1.2,12.7-0.7c5.1,0.6,9.9,2.3,14.1,4.9c4.8,2.9,8.8,6.8,11.8,11.5c0.6,1,1.2,1.9,1.7,3c0.1,0.1,0.2,0.3,0.2,0.4
	c2.2,4.4,3.6,9.2,3.9,14.3C360.9,178.1,360.8,180.3,360.5,182.6z"/>
<path id="ID_28_" class="st2" d="M371.9,174.3L371.9,174.3L371.9,174.3c0-1.1-0.4-2.2-1-3.1l-5.9-18c-0.4,0.2-0.7,0.4-1.1,0.5
	c-0.6,0.3-1.3,0.6-2,1c-0.4,0.2-0.8,0.4-1.2,0.6l3.8,10.9c-1.3-0.6-2.4-1.1-3-1.3l0,0c-0.5-1.2-1-2.5-1.5-3.7
	c-0.7-1.4-1.5-2.8-2.3-4.2c0-0.1,0-0.1-0.1-0.1c-0.3-0.4-0.5-0.8-0.8-1.2c-2.3-3.4-5.1-6.4-8.4-8.9c-5.4-4.2-11.9-7-19.2-7.9
	c-1.5-0.2-3-0.3-4.4-0.3c-0.7,0-1.3,0-2,0h0c-3.5,0.1-6.9,0.8-10.2,1.8c-1.7,0.6-3.4,1.2-5,2c-2.3,1.1-4.4,2.4-6.4,3.9
	c-0.2,0.2-0.4,0.3-0.6,0.5c-1.2,0.9-2.4,2-3.5,3.1c-1.6,1.6-3.1,3.3-4.5,5.2c-1.3,1.8-2.4,3.7-3.4,5.7v0c-0.1,0.1-0.1,0.3-0.2,0.4
	c-0.2,0.4-0.3,0.7-0.5,1.1c-3.8,4-9.9,4.2-15,1.9c-0.7-0.3-1.3-0.6-1.7-0.9c-1.4-1-2.9-3.7-4.2-6.6v0c-0.7-2.8-1.7-5.5-3-8.1
	c0,0,0,0,0,0c-0.2-0.6-0.3-0.9-0.3-0.9l0.1,0.5l0,0c-0.2-0.5-0.5-0.9-0.7-1.4c-3.5-6.1-8.5-11.2-14.6-14.7c-0.8-0.5-1.7-0.9-2.5-1.3
	c-3.7-1.8-7.8-3-12.2-3.6c-8.7-1.1-17.1,0.8-24.2,4.9c-3,1.7-5.8,3.9-8.3,6.3c-0.4,0.4-0.7,0.7-1,1.1c-1.6,1.7-3.1,3.6-4.4,5.6l0,0
	c0,0,0,0,0,0l0.2-0.8c0,0-24.5,1.6-6.3,19.3l0,0c-0.3,4.2,0.1,8.3,1,12.2c1,4,2.6,7.8,4.7,11.3c0.1,0.2,0.2,0.4,0.4,0.6
	c0.6,0.9,1.1,1.7,1.8,2.6c5.4,7.2,13.1,12.5,22.2,14.7c1.4,0.4,2.9,0.6,4.4,0.8c4.8,0.6,9.5,0.3,13.9-0.8
	c8.9-2.2,16.8-7.4,22.2-14.7c3.2-4.2,5.5-9.1,6.8-14.4c0.2-0.8,0.3-1.5,0.5-2.3c0.1-0.1,0.2-0.2,0.3-0.3c0.7-0.4,1.4-0.9,2.1-1.2
	c5-2.9,11.3-1.5,14.7,2.8c0,0.3-0.1,0.6-0.1,0.9c0,0.2,0,0.4,0,0.6c-0.1,2.2,0,4.4,0.3,6.5c0.2,1.5,0.4,2.9,0.8,4.4
	c0.2,1,0.5,2,0.8,2.9c0.2,0.6,0.4,1.1,0.6,1.7c0.6,1.7,1.4,3.3,2.2,4.9c0.6,1.2,1.3,2.3,2.1,3.4c1.1,1.6,2.3,3.2,3.6,4.6
	c0,0,0,0,0,0c0.7,0.8,1.4,1.5,2.1,2.2c1.5,1.4,3,2.6,4.7,3.8c0.6,0.4,1.1,0.8,1.7,1.1c2,1.2,4.1,2.3,6.3,3.1
	c0.1,0.1,0.3,0.1,0.4,0.2c2.8,1.1,5.8,1.8,8.9,2.2c11.3,1.4,22.1-2.2,30.2-9.1c0.4-0.4,0.9-0.8,1.3-1.1c0.8-0.7,1.5-1.5,2.2-2.2
	c3.8-4.1,6.7-9.1,8.5-14.7c0.6-1.9,1.1-3.9,1.4-5.9l0,0C369.8,180.5,372,177.1,371.9,174.3z M265.6,170.9c-0.1,0.8-0.2,1.5-0.4,2.3
	c0,0.1,0,0.1,0,0.2c-0.1,0.9-0.3,1.7-0.6,2.5c-1.4,5.4-4.1,10.4-7.6,14.4c-7.6,8.9-19.4,14-31.9,12.4c-6.2-0.8-11.9-3.1-16.7-6.6
	c-2.4-1.7-4.5-3.7-6.4-5.9c-2-2.3-3.7-4.9-5.1-7.7c-0.1-0.1-0.1-0.2-0.1-0.3v0c-0.1-0.2-0.2-0.5-0.3-0.7c-0.8-1.8-1.5-3.7-2-5.7
	c-1.2-4.4-1.5-9.1-1-13.8c0-0.3,0.1-0.6,0.1-0.9c0.5-3.7,1.6-7.1,3.1-10.3c0.7-1.4,1.4-2.8,2.3-4.1c0.5-0.8,1-1.5,1.5-2.2
	c1-1.4,2.1-2.6,3.3-3.8c3.8-3.9,8.4-6.8,13.5-8.7c5.1-1.9,10.8-2.6,16.6-1.9c2.7,0.3,5.3,1,7.8,1.9c0.3,0.1,0.7,0.2,1,0.4
	c6.5,2.6,12.1,7,16.1,12.5c0.4,0.6,0.9,1.2,1.2,1.8c0.4,0.6,0.8,1.2,1.1,1.9c2.1,3.8,3.6,8.1,4.3,12.6
	C266,164.3,266,167.6,265.6,170.9z M360.5,182.6c-0.3,2.7-0.9,5.3-1.8,7.7c-1.6,4.8-4.3,9-7.5,12.6c-0.2,0.2-0.4,0.4-0.6,0.6
	c-0.5,0.5-1,1-1.5,1.5c-7.5,7-18,10.8-29,9.4c-5.5-0.7-10.6-2.6-15-5.4c-0.3-0.1-0.5-0.3-0.7-0.5c-0.2-0.2-0.5-0.3-0.7-0.5
	c-1.3-0.9-2.6-1.9-3.7-3.1c-0.2-0.2-0.5-0.4-0.7-0.6c-0.5-0.5-1-1-1.4-1.5c-1.5-1.6-2.8-3.4-4-5.2c-0.5-0.8-1-1.7-1.5-2.6
	c-0.1-0.2-0.2-0.4-0.3-0.6c-0.7-1.3-1.2-2.7-1.7-4.1c-0.1-0.2-0.2-0.5-0.3-0.7c-0.4-1.2-0.8-2.5-1-3.8c-0.4-1.6-0.6-3.2-0.7-4.9
	c-0.1-1.7-0.1-3.4,0-5.1c0-0.1,0-0.3,0-0.4c0-0.6,0.1-1.2,0.2-1.8c0.2-1.3,0.4-2.6,0.7-3.9v0c0.4-1.7,0.9-3.3,1.5-4.8
	c0.5-1.3,1.1-2.6,1.7-3.9c0.3-0.6,0.6-1.1,0.9-1.7c0.9-1.5,1.9-2.9,2.9-4.3c0.6-0.8,1.2-1.5,1.9-2.2c1.1-1.2,2.4-2.4,3.7-3.4
	c0.2-0.2,0.4-0.4,0.7-0.5l0,0c0.7-0.6,1.5-1.1,2.3-1.6c0.4-0.3,0.8-0.5,1.2-0.8c2.3-1.4,4.8-2.5,7.4-3.4h0c0.9-0.3,1.8-0.6,2.7-0.8
	h0c4-1,8.3-1.2,12.7-0.7c5.1,0.6,9.9,2.3,14.1,4.9c4.8,2.9,8.8,6.8,11.8,11.5c0.6,1,1.2,1.9,1.7,3c0.1,0.1,0.2,0.3,0.2,0.4
	c2.2,4.4,3.6,9.2,3.9,14.3C360.9,178.1,360.8,180.3,360.5,182.6z"/>
<path id="ID_27_" d="M295.5,176.3c0,0,6-4.6,13.6-6.9c-0.6,1-1,2.1-1.1,3.4c-0.6,4.8,2.8,9.2,7.6,9.8s9.1-2.8,9.7-7.7
	c0.3-2-0.2-4-1.2-5.6c2.7,1.1,5.2,2.9,7.5,5.7c0,0-2.6,16.4-29.1,4.1c0,0,25.9,15.6,31-4C333.4,175,323.3,154.2,295.5,176.3z"/>
<path id="ID_26_" d="M223.3,161.5c0.2,20.3,29.1,11.4,29.1,11.4c-28.6,5.6-27.2-11-27.2-11c2.8-2.2,5.7-3.4,8.6-3.7
	c-1.3,1.3-2.3,3.1-2.5,5.1c-0.6,4.8,2.8,9.2,7.6,9.8s9.1-2.8,9.7-7.7c0.1-1.2,0-2.4-0.3-3.6c6.8,4.1,11.5,10,11.5,10
	C238.1,143.7,223.3,161.5,223.3,161.5z"/>
<path id="ID_25_" class="st0" d="M18.4,146.8c23.1,45.2,138.4,31.5,257.5-30.5C342.7,81.5,396.6,38.8,426.8,0H115.3
	C41.8,53.5,0.7,112.3,18.4,146.8z"/>
<path id="ID_24_" class="st6" d="M18.4,146.8c23.1,45.2,138.4,31.5,257.5-30.5C342.7,81.5,396.6,38.8,426.8,0H115.3
	C41.8,53.5,0.7,112.3,18.4,146.8z"/>
<path id="ID_23_" class="st0" d="M388.6,0c-30.5,32-74.9,64-126,90.6c-37.4,19.5-75.8,34.7-111.1,43.9c-25.4,6.6-48,10-67.1,10
	c-5.6,0-10.8-0.3-15.6-0.9c-15.5-1.9-23.1-6.6-24.9-10.1c-3.3-6.5,1.8-27.2,29.3-58c23.2-25.9,55.8-52,94-75.5h-13.6
	C119,22.2,89.4,46.5,67.8,70.6C43,98.4,31.1,124.4,37.5,136.8c3.5,6.9,14.6,12,30.4,14c5.1,0.6,10.6,0.9,16.5,0.9
	c19.7,0,42.8-3.4,68.8-10.3c35.8-9.4,74.8-24.8,112.6-44.5c54.5-28.4,101.5-62.8,132.6-97H388.6z"/>
<path id="ID_22_" class="st0" d="M118.7,58.6C101.1,78.4,93,96.4,97.7,105.5c3.6,7,15.2,9.4,21.8,10.2c3.6,0.4,7.4,0.7,11.5,0.7
	c13.6,0,29.7-2.4,47.7-7.1c24.8-6.5,51.7-17.1,77.8-30.7c38.2-19.9,71.1-44.1,92.6-68.1c3.2-3.6,6-7.1,8.6-10.4h-9.2
	c-1.5,1.8-3,3.7-4.8,5.6c-20.9,23.4-53.1,47-90.6,66.6c-25.7,13.4-52.1,23.8-76.3,30.1c-17.4,4.6-32.9,6.9-45.9,6.9
	c-3.8,0-7.4-0.2-10.6-0.6c-9.6-1.2-15.1-4-16.3-6.3c-2.1-4,1.6-18.1,20-38.7c19.9-22.2,49.8-44.6,84.8-63.5h-14.8
	C163.3,17.9,136.9,38.3,118.7,58.6z"/>
<path id="ID_21_" class="st5" d="M388.6,0c-30.5,32-74.9,64-126,90.6c-37.4,19.5-75.8,34.7-111.1,43.9c-25.4,6.6-48,10-67.1,10
	c-5.6,0-10.8-0.3-15.6-0.9c-15.5-1.9-23.1-6.6-24.9-10.1c-3.3-6.5,1.8-27.2,29.3-58c23.2-25.9,55.8-52,94-75.5h-13.6
	C119,22.2,89.4,46.5,67.8,70.6C43,98.4,31.1,124.4,37.5,136.8c3.5,6.9,14.6,12,30.4,14c5.1,0.6,10.6,0.9,16.5,0.9
	c19.7,0,42.8-3.4,68.8-10.3c35.8-9.4,74.8-24.8,112.6-44.5c54.5-28.4,101.5-62.8,132.6-97H388.6z"/>
<path id="ID_20_" class="st5" d="M118.7,58.6C101.1,78.4,93,96.4,97.7,105.5c3.6,7,15.2,9.4,21.8,10.2c3.6,0.4,7.4,0.7,11.5,0.7
	c13.6,0,29.7-2.4,47.7-7.1c24.8-6.5,51.7-17.1,77.8-30.7c38.2-19.9,71.1-44.1,92.6-68.1c3.2-3.6,6-7.1,8.6-10.4h-9.2
	c-1.5,1.8-3,3.7-4.8,5.6c-20.9,23.4-53.1,47-90.6,66.6c-25.7,13.4-52.1,23.8-76.3,30.1c-17.4,4.6-32.9,6.9-45.9,6.9
	c-3.8,0-7.4-0.2-10.6-0.6c-9.6-1.2-15.1-4-16.3-6.3c-2.1-4,1.6-18.1,20-38.7c19.9-22.2,49.8-44.6,84.8-63.5h-14.8
	C163.3,17.9,136.9,38.3,118.7,58.6z"/>
<path id="ID_19_" class="st0" d="M240.4,34.5c-10.8,0.6-21.1-0.7-31.8-3.8c16.6-2.9,32.7-8.4,46-17.8c-11.5,5.4-24.5,8.3-37.4,7.6
	c13-4.3,24.9-11.3,35.2-20.6h-3.9c-7.6,4.4-15.9,7.7-24.4,10.7C229.5,7.6,234.5,4,239.2,0h-10.5c-0.4,0.3-0.9,0.6-1.3,0.8
	c0.3-0.3,0.6-0.6,0.9-0.8H98.8c-10,3.1-19.5,7.5-28.6,13.7c11.5-5.4,24.7-7.5,37.2-8.5C89.8,12,75,22.7,61.7,36.7
	c11.6-9.1,24.3-17.5,39-20.8C83.1,26.4,70,41.3,59.5,59.2c10.6-13.4,22.5-25.3,38-33.4c-16.9,13.9-29.2,32.3-35.4,53
	c5-10.3,10.1-19.7,17.2-28.7c0.7-1.1,2.4-1.5,3.9-2.7c3.5-4.5,8.2-8.3,12.8-12.1C81.6,52.4,71.7,73,67.5,95
	c5.6-19.6,15.1-38.3,30.2-51.8c-1.8,4.1-6.6,7-8.2,12c-0.9,3.9-3.2,6.2-4.3,9.2c-5.1,14-10.3,27.1-8.9,41.5
	c1.6-21.5,10.8-41,24.5-57c-9.2,15.9-14.3,33.5-15.6,52.2c-0.1,2.2,0.2,4.3,0.2,6.3c0.8-5.3,1.2-10.6,2.2-16c0.8-4.8,3.4-9,5.1-14
	c2.6-8.8,7.3-16.3,12.8-24C97.9,72.5,92.5,93,95.3,113.4c-0.4-10,1.9-19.7,3.5-29.2c1.1-3,2.3-6,2.6-8.8c2.1-6.9,6.3-12.4,10.3-18.9
	c-6.2,17-8.3,35.8-6,54.6c-1.5-18.9,5.2-37.9,13.3-54.4c-3,10.8-4.2,22-3.3,33.8c-0.6,5.6,0.6,10.9,0.9,16.3
	c-0.3-17.4,3.2-34.7,11.5-50.3c-3.1,14.5-1.5,29.7,1.6,43.7c-1.6-15.2,1.3-30.6,8.3-44.1c0.1,12.8,2,25.2,6.5,37
	c-2.9-13.1-0.5-26.5,4.1-38.5c2.5,11.3,6.6,21.4,12.4,31.1c-2.5-11.3-3.2-22.2-1.2-33.7c4.9,9.9,12.3,18.3,20.3,25.6
	c-4.8-9-6-18.8-8.2-28.4c3.2,2,5.5,4.3,7.8,6.5c6.6,4.9,13.6,7.9,20.8,11.8c-6.1-6.9-11.3-13.9-15-22.3c11.9,4.6,24.4,7.3,36.4,8.2
	c-9-3.5-16.6-9.1-24.2-14.7C211.6,40.2,226.9,39.4,240.4,34.5z"/>
<path id="ID_18_" class="st4" d="M240.4,34.5c-10.8,0.6-21.1-0.7-31.8-3.8c16.6-2.9,32.7-8.4,46-17.8c-11.5,5.4-24.5,8.3-37.4,7.6
	c13-4.3,24.9-11.3,35.2-20.6h-3.9c-7.6,4.4-15.9,7.7-24.4,10.7C229.5,7.6,234.5,4,239.2,0h-10.5c-0.4,0.3-0.9,0.6-1.3,0.8
	c0.3-0.3,0.6-0.6,0.9-0.8H98.8c-10,3.1-19.5,7.5-28.6,13.7c11.5-5.4,24.7-7.5,37.2-8.5C89.8,12,75,22.7,61.7,36.7
	c11.6-9.1,24.3-17.5,39-20.8C83.1,26.4,70,41.3,59.5,59.2c10.6-13.4,22.5-25.3,38-33.4c-16.9,13.9-29.2,32.3-35.4,53
	c5-10.3,10.1-19.7,17.2-28.7c0.7-1.1,2.4-1.5,3.9-2.7c3.5-4.5,8.2-8.3,12.8-12.1C81.6,52.4,71.7,73,67.5,95
	c5.6-19.6,15.1-38.3,30.2-51.8c-1.8,4.1-6.6,7-8.2,12c-0.9,3.9-3.2,6.2-4.3,9.2c-5.1,14-10.3,27.1-8.9,41.5
	c1.6-21.5,10.8-41,24.5-57c-9.2,15.9-14.3,33.5-15.6,52.2c-0.1,2.2,0.2,4.3,0.2,6.3c0.8-5.3,1.2-10.6,2.2-16c0.8-4.8,3.4-9,5.1-14
	c2.6-8.8,7.3-16.3,12.8-24C97.9,72.5,92.5,93,95.3,113.4c-0.4-10,1.9-19.7,3.5-29.2c1.1-3,2.3-6,2.6-8.8c2.1-6.9,6.3-12.4,10.3-18.9
	c-6.2,17-8.3,35.8-6,54.6c-1.5-18.9,5.2-37.9,13.3-54.4c-3,10.8-4.2,22-3.3,33.8c-0.6,5.6,0.6,10.9,0.9,16.3
	c-0.3-17.4,3.2-34.7,11.5-50.3c-3.1,14.5-1.5,29.7,1.6,43.7c-1.6-15.2,1.3-30.6,8.3-44.1c0.1,12.8,2,25.2,6.5,37
	c-2.9-13.1-0.5-26.5,4.1-38.5c2.5,11.3,6.6,21.4,12.4,31.1c-2.5-11.3-3.2-22.2-1.2-33.7c4.9,9.9,12.3,18.3,20.3,25.6
	c-4.8-9-6-18.8-8.2-28.4c3.2,2,5.5,4.3,7.8,6.5c6.6,4.9,13.6,7.9,20.8,11.8c-6.1-6.9-11.3-13.9-15-22.3c11.9,4.6,24.4,7.3,36.4,8.2
	c-9-3.5-16.6-9.1-24.2-14.7C211.6,40.2,226.9,39.4,240.4,34.5z"/>
<path id="ID_17_" class="st0" d="M413,342.6c-0.3-3-0.6-5.9-0.8-8.9c-1.3-14.8-1.2-29.7-1.2-44.5c0-3,0-5.9,0-8.9c0-3,0-5.9,0-8.9
	c0-6.4-0.1-10.6-0.1-10.6c2.7-15.3-5.7-19.9-5.7-19.9L384.5,191l-5.7-28.1c-7-3.7-8.2,8.6-8.2,8.6c-5.6,6.6,1.9,23.8,1.9,23.8
	l-0.4,2.9c-2.3,12,6,37.5,6,37.5s0.5,4.7,1,9.5c0.5,4.7,1,9.5,1,9.5c-1,2.3-1.6,4.6-1.8,6.9c-0.2,2.9,0,5.7,0.3,8.4
	c-4.2-3-6.7-17.1-6.7-17.1c-0.5-2.3-1.1-4.3-1.7-6.1c-1.5-4.4-3.4-9.1-7.6-11.6c-3-1.9-7.2-1.6-9,1.1c-5.1,7.1-1,16.6,3.2,23.7
	c7.2,13,9.3,28.2,9.3,28.2c1.5,14.3,7.4,25.7,9.6,29.6c-0.8,12.3,4.4,25.3,3.5,38.3c0,0,2,0.3,5.1,0.8c3.1,0.5,7.2,1.1,11.3,1.7
	c4.1,0.6,8.2,1.2,11.3,1.7c3.1,0.5,5.1,0.8,5.1,0.8c0.7-1.7,1.1-4.6,1.2-7.9C413.3,350,413.2,346.2,413,342.6z"/>
<path id="ID_16_" class="st5" d="M413,342.6c-0.3-3-0.6-5.9-0.8-8.9c-1.3-14.8-1.2-29.7-1.2-44.5c0-3,0-5.9,0-8.9c0-3,0-5.9,0-8.9
	c0-6.4-0.1-10.6-0.1-10.6c2.7-15.3-5.7-19.9-5.7-19.9L384.5,191l-5.7-28.1c-7-3.7-8.2,8.6-8.2,8.6c-5.6,6.6,1.9,23.8,1.9,23.8
	l-0.4,2.9c-2.3,12,6,37.5,6,37.5s0.5,4.7,1,9.5c0.5,4.7,1,9.5,1,9.5c-1,2.3-1.6,4.6-1.8,6.9c-0.2,2.9,0,5.7,0.3,8.4
	c-4.2-3-6.7-17.1-6.7-17.1c-0.5-2.3-1.1-4.3-1.7-6.1c-1.5-4.4-3.4-9.1-7.6-11.6c-3-1.9-7.2-1.6-9,1.1c-5.1,7.1-1,16.6,3.2,23.7
	c7.2,13,9.3,28.2,9.3,28.2c1.5,14.3,7.4,25.7,9.6,29.6c-0.8,12.3,4.4,25.3,3.5,38.3c0,0,2,0.3,5.1,0.8c3.1,0.5,7.2,1.1,11.3,1.7
	c4.1,0.6,8.2,1.2,11.3,1.7c3.1,0.5,5.1,0.8,5.1,0.8c0.7-1.7,1.1-4.6,1.2-7.9C413.3,350,413.2,346.2,413,342.6z"/>
<path id="ID_15_" class="st0" d="M367.9,346.7l-11.4,66.2l54.7-1.8l4.3-58.5C415.5,352.5,385.6,336.7,367.9,346.7z"/>
<path id="ID_14_" class="st4" d="M367.9,346.7l-11.4,66.2l54.7-1.8l4.3-58.5C415.5,352.5,385.6,336.7,367.9,346.7z"/>
<path id="ID_13_" class="st0" d="M415.4,398.3c-1-0.2-2.1-0.3-3.2-0.4c-8.3-1-19.7-1.6-31.1-2c-4.3-0.1-8.6-0.2-12.7-0.3
	c-2.9-0.1-5.9-0.1-8.9-0.2c-6.6-0.1-13.3-0.1-19.8,0.2l0.5,2.3c0.7,3.9,1.2,7.7,1.4,11.5c0.5,3.6,0.8,7.3,0.9,10.9
	c0.3,7.6-0.1,15.1-1,22.5c-0.4,3.6-1,7.2-1.6,10.8c-0.3,3.8-0.5,7.7-0.8,11.5c-0.3,3.8-0.7,7.6-1,11.4c-1.3,11.8-2.1,23.8-3.4,35.7
	c0,0.1,0,0.3,0,0.4l3.5-0.4h66.8c0.3-2.5,0.6-4.9,0.9-7.4c0-0.1,0-0.1,0-0.2c0.4-3.4,0.8-6.8,1.3-10.2c2.2-31.4,10.9-62.4,15.7-94.1
	C421.1,399.3,418.6,398.8,415.4,398.3z"/>
<path id="ID_12_" class="st6" d="M415.4,398.3c-1-0.2-2.1-0.3-3.2-0.4c-8.3-1-19.7-1.6-31.1-2c-4.3-0.1-8.6-0.2-12.7-0.3
	c-2.9-0.1-5.9-0.1-8.9-0.2c-6.6-0.1-13.3-0.1-19.8,0.2l0.5,2.3c0.7,3.9,1.2,7.7,1.4,11.5c0.5,3.6,0.8,7.3,0.9,10.9
	c0.3,7.6-0.1,15.1-1,22.5c-0.4,3.6-1,7.2-1.6,10.8c-0.3,3.8-0.5,7.7-0.8,11.5c-0.3,3.8-0.7,7.6-1,11.4c-1.3,11.8-2.1,23.8-3.4,35.7
	c0,0.1,0,0.3,0,0.4l3.5-0.4h66.8c0.3-2.5,0.6-4.9,0.9-7.4c0-0.1,0-0.1,0-0.2c0.4-3.4,0.8-6.8,1.3-10.2c2.2-31.4,10.9-62.4,15.7-94.1
	C421.1,399.3,418.6,398.8,415.4,398.3z"/>
<path id="ID_11_" class="st8" d="M376.9,354.8c-2.2-0.3-4.2,1.3-4.5,3.5c-0.3,2.2,1.3,4.2,3.5,4.5s4.2-1.3,4.5-3.5
	C380.6,357,379.1,355,376.9,354.8z"/>
<path id="ID_10_" class="st0" d="M378.7,192.7c0,0-3.6,1-3.2,4.3c0,0,2.1,8,5.2,8.8C380.7,205.8,380.2,194,378.7,192.7z"/>
<path id="ID_9_" class="st6" d="M378.7,192.7c0,0-3.6,1-3.2,4.3c0,0,2.1,8,5.2,8.8C380.7,205.8,380.2,194,378.7,192.7z"/>
<path id="ID_8_" class="st0" d="M378.9,162.1c0,0-3.6,1-3.2,4.3c0,0,2.1,8,5.2,8.8C380.9,175.1,380.5,163.4,378.9,162.1z"/>
<path id="ID_7_" class="st6" d="M378.9,162.1c0,0-3.6,1-3.2,4.3c0,0,2.1,8,5.2,8.8C380.9,175.1,380.5,163.4,378.9,162.1z"/>
<path id="ID_6_" class="st0" d="M374.2,173.1c0,0-3.6,1-3.2,4.3c0,0,2.1,8,5.2,8.8C376.2,186.2,375.7,174.4,374.2,173.1z"/>
<path id="ID_5_" class="st6" d="M374.2,173.1c0,0-3.6,1-3.2,4.3c0,0,2.1,8,5.2,8.8C376.2,186.2,375.7,174.4,374.2,173.1z"/>
<path id="ID_4_" class="st8" d="M321.4,169.3c-1.3-0.2-2.4,0.8-2.6,2s0.8,2.4,2,2.6c1.3,0.2,2.4-0.8,2.6-2
	C323.6,170.7,322.7,169.5,321.4,169.3z"/>
<path id="ID_3_" class="st11" d="M313.3,177.4c-0.9-0.1-1.6,0.5-1.7,1.4c-0.1,0.9,0.5,1.6,1.4,1.8c0.9,0.1,1.6-0.5,1.7-1.4
	C314.8,178.3,314.2,177.5,313.3,177.4z"/>
<path id="ID_2_" class="st8" d="M244.7,159.9c-1.3-0.2-2.4,0.8-2.6,2c-0.2,1.3,0.8,2.4,2,2.6c1.3,0.2,2.4-0.8,2.6-2
	C246.9,161.2,246,160.1,244.7,159.9z"/>
<path id="ID_1_" class="st11" d="M236.7,167.9c-0.9-0.1-1.6,0.5-1.7,1.4c-0.1,0.9,0.5,1.6,1.4,1.8c0.9,0.1,1.6-0.5,1.7-1.4
	C238.1,168.8,237.5,168.1,236.7,167.9z"/>
</svg>
