<?xml version="1.0" encoding="utf-8"?>
<!-- Generator: Adobe Illustrator 24.3.0, SVG Export Plug-In . SVG Version: 6.00 Build 0)  -->
<svg version="1.1" id="Layer_1" xmlns="http://www.w3.org/2000/svg" xmlns:xlink="http://www.w3.org/1999/xlink" x="0px" y="0px"
	 viewBox="0 0 512 512" style="enable-background:new 0 0 512 512;" xml:space="preserve">
<style type="text/css">
	.st0{fill:#FFFFFF;}
	.st1{layer-type:1;}
	.st2{fill-opacity:0.9;fill:#FFFFFF;}
	.st3{fill-opacity:0.15;layer-type:1;}
	.st4{layer-type:0;}
	.st5{fill:#FFFFFF;layer-type:2;}
</style>
<path id="ID_71_" class="st0" d="M0,0v512h512V0H0z M392.62,421.3c-1.36,4.47-3.22,8.54-5.51,12.1c-2.3,3.59-5.05,6.66-8.17,9.12
	c-3.19,2.51-6.77,4.39-10.66,5.58c-3.32,1.02-6.9,1.54-10.64,1.54c-0.78,0-1.56-0.02-2.34-0.07c-2.62-0.15-5.21-0.4-7.72-0.64
	l-0.14-0.02c-3.92-0.38-7.62-0.75-11.36-0.75c-6.5,0-11.83,1.18-16.79,3.72c-5.83,2.97-11.21,6.39-16,9.44
	c-12.52,7.92-24.34,15.41-41.27,15.41c-0.85,0-1.72-0.02-2.6-0.06c-5.3-0.24-10.14-1.55-15.24-4.14c-4.5-2.27-8.5-5.18-12.74-8.26
	l-0.19-0.14c-3.54-2.57-7.2-5.22-11.17-7.49c-7.96-4.56-18.69-5.52-26.3-5.52c-3.47,0-6.43,0.2-8.3,0.36
	c-1.7,0.16-3.18,0.39-4.7,0.62c-1.96,0.3-3.66,0.57-5.43,0.57c-1.91,0-3.71-0.32-5.66-0.99c-2.16-0.75-4.16-1.84-6.01-2.83
	c-2.23-1.2-4.54-2.43-7.16-3.18c-5.99-1.73-12.11-2.19-18.1-2.65c-3.65-0.27-7.78-0.58-11.83-1.25l-0.1-0.02
	c-0.22-0.03-0.45-0.07-0.69-0.11c-1.28-0.21-2.97-0.49-4.66-0.83l-0.72-0.15l-0.41-0.09c-0.58-0.13-1.15-0.26-1.73-0.4l-0.5-0.13
	c-0.41-0.12-0.84-0.23-1.27-0.37l-0.43-0.13c-0.56-0.17-1.11-0.36-1.72-0.6c-0.07-0.03-0.13-0.05-0.15-0.06
	c-0.47-0.18-0.93-0.38-1.4-0.6c-0.13-0.06-0.26-0.12-0.4-0.19c-0.54-0.26-1.02-0.52-1.48-0.8c-0.33-0.19-0.58-0.44-0.76-0.76
	c-0.17-0.29-0.29-0.65-0.38-1.13c-0.02-0.1,0-0.23,0.06-0.42c0.05-0.16,0.01-0.32-0.09-0.44c0.38-0.78,0.75-1.36,1.24-2.06
	c2.49-3.54,5.46-6.6,8.05-9.12c2.83-2.78,5.85-5.46,8.95-7.96c6.35-5.1,13.25-9.63,20.5-13.46c7.48-3.94,15.45-7.24,23.69-9.81
	c3.09-0.97,6.26-1.84,9.32-2.68l0.25-0.07c5-1.38,10.18-2.8,15.14-4.69c4.14-1.57,7.77-3.32,11.1-5.35c3.7-2.26,6.91-5.05,9.56-7.49
	c0.1-0.1,0.16-0.24,0.16-0.38l-0.03-1.2c-0.04-1.38-0.1-2.77-0.16-4.1v-0.14c-0.01-0.3-0.03-0.61-0.05-0.9l-0.01-0.27
	c-0.04-0.7-0.08-1.42-0.05-2.11c0.01-0.24-0.15-0.45-0.38-0.5c-4.2-1.04-7.67-2.78-10.33-5.19c-4.61-4.16-6.33-10.31-8-16.27
	c-0.21-0.73-0.42-1.46-0.62-2.18c-0.78-2.69-1.67-5.75-3.11-8.51c-0.83-1.6-1.87-3.21-3.17-4.92c-2.15-2.79-4.64-5.45-6.84-7.79
	l-0.09-0.09c-0.67-0.72-1.34-1.44-2-2.16c-4.24-4.59-7.46-8.51-10.15-12.36c-3.74-5.36-6.86-11.24-9.27-17.48
	c-1.4-3.61-2.62-7.45-3.61-11.42c-0.76-3.07-1.05-6.21-0.89-9.6c0.27-5.94,1.39-12.01,2.38-17.37l0.41-2.27l0.2-1.08
	c0.34-1.8,0.72-3.84,0.82-5.83c0.05-1.13-0.22-1.85-0.6-2.84c-0.07-0.19-0.15-0.39-0.23-0.62c-0.79-2.15-1.48-4.3-2.07-6.39
	c-1.68-5.96-2.46-10.81-2.47-15.27c-0.01-1.56,0.1-3.18,0.2-4.58l0.09-1.54c0.26-4.45,0.55-8.19,0.92-11.77
	c0.01-0.1-0.01-0.21-0.07-0.3c-0.66-1.16-1.16-2.42-1.47-3.74c-0.68-2.88-1.04-5.91-1.39-8.93l-0.17-1.47
	c-0.39-3.17-0.78-6.91-0.78-10.68c-0.01-2.75,0.22-5.43,0.69-7.97c0.02-0.11,0-0.23-0.05-0.33c-1.14-2.07-2.11-4.06-2.98-6.09
	c-2.31-5.45-3.27-9.94-3-14.12c0.16-2.52,0.77-5.02,1.36-7.44c0.57-2.27,1.2-4.85,1.39-7.44l0.07-1.16c0.13-2.02,0.26-4.11,0.9-6.06
	c0.56-1.75,1.5-3.51,2.79-5.24c0.05-0.07,0.08-0.14,0.09-0.22c0.1-0.61,0.18-1.31,0.24-2.15c0.09-1.63,0.04-3.24-0.01-4.81
	c-0.07-2.01-0.14-4.29,0.17-6.52c0.44-3.26,1.53-6.41,3.25-9.38c0.23-0.38,0.46-0.77,0.72-1.17c0.07-0.11,0.1-0.24,0.07-0.37
	c-0.11-0.53-0.2-1.09-0.27-1.68c-0.47-3.59-0.06-7.48,1.21-11.56c1.18-3.78,3-7.27,5.42-10.38c2.46-3.16,5.59-5.83,9.31-7.94
	c2.48-1.41,5.05-2.52,7.25-3.42c0.07-0.03,0.13-0.07,0.18-0.12l0.87-0.96c1.16-1.27,2.36-2.59,3.63-3.79
	c0.47-0.46,0.98-0.91,1.55-1.37c0.1-0.09,0.17-0.21,0.18-0.35c0.04-0.47,0.11-0.94,0.17-1.4c0.41-2.63,1.05-4.83,1.98-6.73
	c0.81-1.67,1.76-3.41,2.53-4.81c0.41-0.74,0.81-1.48,1.21-2.23c0.32-0.58,0.63-1.17,0.94-1.77c0.77-1.48,1.67-3.19,2.63-4.79
	c1.32-2.21,2.66-3.8,4.22-4.99c3.47-2.64,7.94-3.41,11.44-3.78c1.86-0.2,3.76-0.3,5.6-0.39l9.25-0.5c1.43-0.08,2.86-0.15,4.29-0.22
	l3.68-0.18c0.35-0.02,0.71-0.04,1.08-0.05l0.69-0.04c0.74-0.04,1.49-0.08,2.22-0.1c0.19,0,0.39-0.01,0.58-0.02l0.27-0.01
	c0.44-0.02,0.88-0.04,1.33-0.04c0.22,0,0.45,0.01,0.68,0.02h0.03c0.08,0,0.16-0.02,0.23-0.05c5.44-2.79,10.52-4.69,15.55-5.82
	c3.36-0.76,6.84-1.14,10.35-1.14c2.06,0,4.16,0.13,6.24,0.4c1.71,0.22,3.51,0.53,5.38,0.93c0.03,0.01,0.06,0.01,0.1,0.01
	s0.09-0.01,0.13-0.02c0.82-0.22,1.66-0.42,2.49-0.62l2.07-0.5c2.2-0.55,4.62-1.03,7.85-1.57c3.14-0.52,6.2-0.78,9.1-0.78
	c5.63,0,10.82,0.99,15.4,2.93c3.42,1.46,6.36,3.36,8.73,5.64c1.27,1.21,2.37,2.54,3.29,3.95c0.52,0.77,0.92,1.49,1.24,2.21
	c0.29,0.61,0.48,1.28,0.68,1.93l0.08,0.27c0.05,0.16,0.16,0.28,0.32,0.33c5.9,2.02,11.57,5.6,16.38,10.37
	c5.56,5.5,9.82,12.01,12.9,17.07c3.27,5.37,7.19,12.51,8.51,20.21c0.57,3.36,0.6,6.66,0.09,9.82c-0.51,3.04-1.55,6.17-3.19,9.55
	c-0.06,0.12-0.07,0.26-0.02,0.39c1.02,2.92,1.76,5.61,2.25,8.22c0.68,3.62,0.79,7.19,0.33,10.63c-0.86,6.43-3.5,12.89-8.37,20.44
	c-0.07,0.11-0.09,0.23-0.07,0.36c0.15,0.97,0.26,1.72,0.33,2.43c0.15,1.25,0.19,2.36,0.13,3.37c-0.04,0.58-0.11,1.19-0.22,1.8
	l-0.03,0.13c-0.04,0.26-0.08,0.52-0.17,0.68c-0.1,0.15-0.22,0.31-0.33,0.45s-0.14,0.33-0.08,0.49c0.18,0.44,0.3,0.88,0.38,1.35
	c0.5,3.08,0.12,6.18-0.36,9.07c-0.51,3.03-1.07,6.56-1.39,9.99c-0.37,3.87-0.39,7.3-0.08,10.48c0.17,1.67,0.31,3.3,0.16,4.94
	c-0.16,1.73-0.71,3.33-1.24,4.66c-0.57,1.47-1.16,3.06-1.41,4.73c-0.22,1.41-0.26,3-0.13,5.01c0.1,1.41,0.28,2.83,0.46,4.21
	l0.03,0.21c0.23,1.8,0.47,3.67,0.52,5.52c0.08,2.91-0.35,5.99-1.27,9.17c-0.82,2.86-1.97,5.8-3.41,8.74
	c-0.71,1.44-1.43,2.8-2.25,4.29l-0.33,0.61c-0.65,1.21-1.24,2.29-1.93,3.3c-0.88,1.26-1.87,2.31-2.97,3.12
	c-0.54,0.4-1.13,0.73-1.77,0.98l-0.14,0.06c-0.23,0.09-0.46,0.18-0.67,0.21c-0.15,0.03-0.28,0.11-0.36,0.24s-0.09,0.29-0.04,0.43
	c0.6,1.66,1.17,3.28,1.5,4.95c0.38,2,0.3,3.93-0.26,5.91c-0.96,3.42-2.33,6.77-4.07,9.96c-0.83,1.53-1.79,3.03-2.63,4.32
	c-0.45,0.7-0.92,1.44-1.35,2.15c-0.33,0.52-0.58,0.94-0.8,1.35c-0.11,0.22-0.22,0.43-0.32,0.63l-0.15,0.31
	c-0.01,0.03-0.03,0.07-0.04,0.1c0,0-0.06,0.13-0.06,0.15c-0.27,0.64-0.51,1.29-0.74,1.93c-0.3,0.82-0.57,1.56-0.89,2.3
	c-1.68,3.91-3.62,6.33-6.11,7.65c-0.03,0.02-0.06,0.03-0.14,0.05c-0.24,0.04-0.41,0.25-0.41,0.49c0,0.53-0.01,1.05-0.02,1.58
	l-0.01,0.88c0,0.16,0.07,0.31,0.19,0.4c0.6,0.48,0.94,1.18,0.94,1.93c0,0.77-0.37,1.5-0.99,1.96c-0.13,0.09-0.2,0.24-0.2,0.4
	l-0.01,2.93c0,0.2,0.11,0.37,0.29,0.45c1.31,0.61,2.16,1.94,2.16,3.38s-0.86,2.77-2.18,3.38c-0.18,0.08-0.29,0.25-0.29,0.45
	l0.01,3.09c0,0.22,0.15,0.42,0.36,0.48c2.23,0.65,3.78,2.71,3.78,5.02c0,2.26-1.51,4.32-3.67,5c-0.21,0.07-0.35,0.29-0.35,0.51
	c0,0.09,0.03,0.17,0.08,0.24c0.01,0.38,0.02,1.16,0.05,2.26c0.01,0.26,0.3,0.47,0.56,0.49c1.03,0.06,2.03,0.2,2.97,0.41
	c3.84,0.86,7.43,3.12,10.12,6.36c1.63,1.95,2.9,4.2,3.8,6.69l-6.15-0.21c-0.81-5.52-4.51-10.11-9.34-11.49
	c-0.39-0.11-0.83-0.21-1.33-0.28c-0.02-0.01-0.05-0.01-0.07-0.01c-0.12,0-0.24,0.04-0.33,0.12c-0.11,0.1-0.17,0.23-0.17,0.38v0.2
	c0,0.15,0.06,0.29,0.18,0.38c0.57,0.49,0.89,1.15,0.89,1.87c0,0.66-0.29,1.31-0.8,1.77c-0.11,0.1-0.17,0.24-0.16,0.39
	c0.01,0.25,0.02,0.51,0.02,0.77c0,0.22,0.15,0.42,0.37,0.48c0.37,0.11,0.68,0.22,0.96,0.35c2.79,1.3,4.56,4.51,4.4,7.99
	c-0.19,3.33-2.14,6.31-4.87,7.42c-0.19,0.08-0.32,0.27-0.31,0.48l0.03,0.84c0.01,0.15,0.08,0.28,0.19,0.37
	c0.6,0.47,0.95,1.18,0.95,1.93c0,0.67-0.28,1.32-0.78,1.78c-0.1,0.1-0.16,0.27-0.16,0.41c0,0.16,0.07,0.3,0.2,0.4
	c0.08,0.06,0.19,0.1,0.3,0.1c0.04,0,0.09-0.01,0.13-0.02c0.27-0.07,0.49-0.14,0.71-0.22c5.13-1.78,8.81-7.08,9.15-13.17
	c0.02-0.32,0.02-0.65,0.01-1.02l6.84,1c0.16,0.75,0.28,1.42,0.36,2.05c0.59,4.57-0.12,9.35-2.01,13.46
	c-1.8,3.91-4.69,7.24-8.15,9.36c-1.83,1.13-3.86,1.92-6.04,2.34c-0.25,0.05-0.43,0.29-0.4,0.55l0.02,0.18
	c0.05,0.39,0.09,0.79,0.14,1.18l0.03,0.27c0,0,0.09,0.62,0.11,0.75l0.07,0.38c0,0.09,0.03,0.18,0.08,0.25
	c0.27,0.41,0.41,0.88,0.4,1.36c-0.01,0.04-0.01,0.14-0.01,0.18c0,0.06,0.01,0.11,0.03,0.17c0.17,0.49,0.38,0.99,0.58,1.47l0.06,0.13
	c0.71,1.72,1.59,3.42,2.59,5.08c1.78,2.9,3.93,5.58,6.02,8.16l0.34,0.42c4.43,5.52,8.8,10.32,13.37,14.69
	c9.93,9.5,25.75,19.48,37.11,25.2c0.02,0.12,0.09,0.23,0.19,0.31C392.65,414.13,394.2,416.14,392.62,421.3z"/>
<path id="ID_70_" class="st1" d="M143.91,431.46h224.18c54.64-36.32,90.65-98.44,90.65-168.96c0-111.97-90.77-202.74-202.74-202.74
	S53.26,150.53,53.26,262.5C53.26,333.02,89.27,395.14,143.91,431.46z"/>
<path id="ID_69_" class="st2" d="M143.91,431.46h224.18c54.64-36.32,90.65-98.44,90.65-168.96c0-111.97-90.77-202.74-202.74-202.74
	S53.26,150.53,53.26,262.5C53.26,333.02,89.27,395.14,143.91,431.46z"/>
<path id="ID_68_" class="st0" d="M334.25,241.9c-0.31,0.61-1.05,2.1-1.25,2.88c-0.26,0.99-0.66,2.34-0.66,2.34s-1.37,5.34-1.66,8.03
	c-0.28,2.7-0.28,6.18-1.1,7.46c-0.77,1.2-1.55,2.34-1.64,2.48l-0.01,0.01c-2.21,1.88-4.57,0.9-5.86-0.04s-2.02-3.62-2.02-3.62
	s0.72-8.51,0.78-9.88c0.07-1.37,1-3.6,1-3.6s2.74-4.77,3.61-6.01c0.88-1.23,0.79-1.82,0.99-4.02c0.19-2.21-1.97-4.39-2.64-5.77
	s-0.89-3.54-1.08-6.02c-0.19-2.49,0-5.3,0-5.3l0.38-0.09c2.52,1.89,4.26,3.2,5.91,6.6c2,4.12,3.06,8.3,3.65,9.83
	C333.04,238.2,333.83,240.25,334.25,241.9z"/>
<path id="ID_67_" class="st0" d="M189.97,47.58c0,0,0.02-2.93,1.65-6.95s5.8-11.67,7.3-14.16s3.93-7.28,11.43-8.58
	c7.5-1.3,17.27-1.9,20.05-1.88s14.93-0.64,14.93-0.64s-9.42,5.23-12,7.04s-4.71,2.76-6.33,4.39l-0.86,0.44c0,0-4.41,0.53-11.67,4.63
	s-14.74,9.53-16.43,10.48c-1.7,0.95-3.86,2.67-5.01,3.51C191.89,46.7,189.97,47.58,189.97,47.58z"/>
<path id="ID_66_" class="st1" d="M243.94,27.47c0,0-1.5,0.41-2.82,0.71c-1.33,0.29-4.83,1.61-8.83,2.92
	c-4,1.31-13.64,6.34-19.17,9.52c-5.53,3.17-3.83,3.29-4.18,3.59c-0.35,0.29-4,1.05-8.29,3.14c-4.3,2.09-16.97,7.12-16.97,7.12
	c-0.51-0.08,0.1-0.82,0.1-0.82c1.11-1.73,6.19-6.07,6.19-6.07s1.92-0.88,3.07-1.72c1.14-0.84,3.31-2.56,5-3.51
	c1.7-0.95,9.18-6.37,16.44-10.47c7.26-4.11,11.67-4.64,11.67-4.64C231.47,26.43,243.94,27.47,243.94,27.47z"/>
<path id="ID_65_" class="st0" d="M289.1,45.78c-0.49-0.08-8.41-1.38-13.41-1.38c-5.16,0-6.42,0.09-6.42,0.09s-4.06-1.98-9.64-2.89
	c-5.58-0.9-9.55-2.42-18.66-3c-9.11-0.57-18.24,1.21-20.47,1.87c-2.15,0.64-11,3.58-11.67,3.8c0.05-0.02,0.09-0.04,0.11-0.06
	c0.35-0.3-1.35-0.42,4.18-3.59c5.53-3.18,15.17-8.21,19.17-9.52s7.5-2.63,8.83-2.92c1.32-0.3,2.82-0.71,2.82-0.71
	s12.87,0.37,21.91,4.47c9.05,4.1,15.8,8.52,17.39,9.4C284.76,42.19,288.79,45.52,289.1,45.78z"/>
<path id="ID_64_" class="st0" d="M269.27,44.49c0,0-2.03,0.66-3.83,1.29c-1.79,0.63-11.88,3.01-16.91,5.1s-19.97,7.5-26.15,10.06
	c-6.17,2.56-18.91,6.3-22.5,7.41c-3.59,1.12-9.59,2.21-22.26,7.36c-12.68,5.14-16.99,13.9-16.99,13.9
	c-1.68-10.35,2.96-18.49,2.96-18.49c6.65-13.83,20.09-16.65,20.09-16.65s12.67-5.03,16.97-7.12c4.02-1.96,7.48-2.75,8.18-3.08
	c0.67-0.22,9.52-3.16,11.67-3.8c2.23-0.66,11.36-2.44,20.47-1.87c9.11,0.58,13.08,2.1,18.66,3
	C265.21,42.51,269.27,44.49,269.27,44.49z"/>
<path id="ID_63_" class="st1" d="M226.15,27.24c0,0,12.73-0.84,17.55,0.3l2.79-0.3c0,0,19.51-6.94,35.1-2.65l1.53-0.69
	c0,0,4.4,0.03,8.94,0.93s16.28,3.81,24,11.66s7.85,8.07,7.85,8.07h0.71c0,0,7.81,3.15,11.36,5.23c3.55,2.07,8.19,4.99,13.28,9.35
	s8.69,11.1,9.4,12.18s1.6,2.32,1.6,2.32s1.22-4.79,0.3-9.71c-0.93-4.92-1.46-8.28-4.08-12.99s-7.57-9.29-12.18-11.76
	s-15.09-8.32-17.89-9.97c-2.8-1.65-10.65-5.05-14.38-7.08s-13.46-7.54-19.94-9.29s-15.13-4.37-22.72-4.06
	c-7.59,0.31-17.07,3.42-20.29,4.83s-3.73,1.76-3.73,1.76s-14.16,7.92-17.52,10.7L226.15,27.24z"/>
<path id="ID_62_" class="st1" d="M333.52,23.55c-0.26-0.11-4.89-2.19-9.43-1.67c-4.68,0.53-11.32,0.64-11.32,0.64h-0.01
	c-0.26-0.13-0.51-0.26-0.74-0.39c-3.73-2.03-13.45-7.55-19.94-9.29c-3.05-0.82-6.59-1.84-10.26-2.65C282.3,10,294.93,5.15,309,6.93
	c14.34,1.81,21.35,10.45,22.28,11.69C332.18,19.81,333.45,23.33,333.52,23.55z"/>
<path id="ID_61_" class="st0" d="M322.19,64.72h-0.53c0,0-2.6-1.5-4.1-2.34s-2.47-1.85-10.02-6.7c-7.54-4.85-18.44-9.9-18.44-9.9
	s-4.49-3.52-5.86-4.44s-7-4.12-7-4.12c-13.43-8.97-30.63-9.66-30.63-9.66l0.36-0.26l0.52-0.06c0,0,19.51-6.95,35.1-2.65
	c0,0,0.67,0.12,9.94,3.56c9.26,3.44,16.63,14.86,19.19,19.06C313.28,51.4,322.19,64.72,322.19,64.72z"/>
<path id="ID_60_" class="st0" d="M342.84,78.84c0,0-6.71-7.28-12.35-9.35c-5.65-2.08-8.3-4.77-8.3-4.77s-8.91-13.32-11.47-17.51
	c-2.56-4.2-9.93-15.62-19.19-19.06c-9.27-3.44-9.94-3.56-9.94-3.56l1.53-0.69c0,0,18.48,0.3,29.08,9.27
	c10.61,8.96,19.26,21.54,19.26,21.54s8.37,11.55,10.5,19.23C341.96,73.94,343.18,78.07,342.84,78.84z"/>
<path id="ID_59_" class="st0" d="M371.51,79.28c-0.56,6.75-3.39,11.12-3.39,11.12l-7.99-16.93c0.08,0.1,0.12,0.16,0.12,0.16
	s1.23-4.78,0.3-9.7s-1.46-8.29-4.08-13s-7.57-9.28-12.18-11.75s-15.08-8.32-17.89-9.97c-2.5-1.48-9.05-4.36-13.07-6.4
	c0,0,3.53-0.35,6.48-0.57s8.72-1.04,13.71,1.31s8.83,2.96,14.83,9.05s13.6,16,18.09,24.89C370.93,66.37,372.08,72.53,371.51,79.28z"
	/>
<path id="ID_58_" class="st1" d="M362.16,130.63c0,0-0.48-1.67-0.88-3.97c-0.4-2.29,0.09-3.97-0.22-6.62
	c-0.31-2.64-1.77-5.82-1.77-5.82s-0.26-5.16-1.76-12s-8.87-13.59-8.87-13.59l-0.48-1.01c-1.37-4.15-5.34-8.78-5.34-8.78
	c0.34-0.77-0.88-4.9-0.88-4.9c-2.13-7.68-10.5-19.23-10.5-19.23s-3.05-4.44-7.76-9.92l-0.01-0.23h0.93
	c8.03,2.78,21.35,11.91,21.35,11.91c14.3,11.56,22.15,33.93,22.15,33.93C376.95,112.42,362.16,130.63,362.16,130.63z"/>
<path id="ID_57_" class="st0" d="M348.66,88.63c-8.87-7.55-13.57-9.57-27.37-13.28c-13.79-3.7-22.88-3.82-39-4.59
	c-16.11-0.76-31.11,1.89-36.68,3.65c-5.57,1.77-38.2,9.53-61.2,20.3c-23,10.76-28.41,19.86-28.41,19.86s0.03-5.83,0.15-12.45
	c0.11-6.62,4.48-12.51,4.48-12.51c0-0.01,0-0.02,0.01-0.03c0.27-0.51,4.7-8.89,16.98-13.87c12.67-5.15,18.67-6.24,22.26-7.36
	c3.59-1.11,16.33-4.85,22.5-7.41c6.18-2.56,21.12-7.97,26.15-10.06s15.12-4.47,16.91-5.1c1.8-0.63,3.83-1.29,3.83-1.29
	s1.26-0.09,6.42-0.09c5,0,12.92,1.3,13.41,1.38c0,0,10.9,5.05,18.44,9.9c7.55,4.85,8.52,5.86,10.02,6.7s4.1,2.34,4.1,2.34h0.53
	c0,0,2.65,2.69,8.3,4.77c5.64,2.07,12.35,9.35,12.35,9.35s3.97,4.63,5.34,8.78L348.66,88.63z"/>
<path id="ID_56_" class="st1" d="M155.76,161.71c0,0-1.94,5-0.29,17.93c1.65,12.93,2.71,14.18,3.18,14.47
	c0.47,0.29,0.94-1.24,0.94-1.24s0.12-9.7,4.71-22.65c4.59-12.95,8.53-17.82,11-20.65c2.47-2.82,14.47-13.32,18.18-16.47
	c3.71-3.15,14.68-9,16.76-10.5c2.09-1.5,22.63-11.64,46.62-14.6s50.03,2.98,50.03,2.98s12.94,3.41,20.76,6.44s14,5,21.01,9.44
	s11.52,10.09,12.37,11.53s1.06,1.88,1.06,1.88s0.88-6.03,0.41-7.32c-0.47-1.29-0.56-3.91-0.97-6.44s-1.59-9.41-2.3-11.09
	s0.2-0.11-0.21-4.17s-1.15-9.74-4.32-15.06c-3.18-5.32-6.84-8.25-6.92-8.31c-0.08-0.06-8.17-6.72-15.45-9.21
	c-7.28-2.48-18.49-5.32-27.93-6.55s-29.86-2.04-36-1.26c-6.14,0.77-27.46,0.66-75.37,20.1c0,0-19.24,7.41-29.87,16.4
	s-10.52,12.22-10.63,15.16c-0.12,2.94-0.48,7-2.06,12.76s0,13.88,0,13.88s2.44,6.94,3.3,8.71
	C154.62,159.65,155.76,161.71,155.76,161.71z"/>
<path id="ID_55_" class="st0" d="M361.32,155.06c-1.38,7.09-0.85,11.35-0.7,14c0.14,2.65,0.79,7.27-1,11.85
	c-1.8,4.58-1.65,7.74-1.41,10.12c0.23,2.38,1.49,9.29,0.85,13.73c-0.64,4.45-4.77,13.92-8.15,19.39s-7.47,7-7.47,7l-0.38-0.65
	c-0.97-2.82-1.85-11.06-1.85-11.15s-0.42-5.53-1.06-6.7c-0.65-1.18-4.61-6.95-7.3-10.02c-2.7-3.06-4.9-8.25-6.47-11.35
	c-1.56-3.11-4.3-10.57-4.3-10.57s-3.31-11.03-6.29-15.31c-2.97-4.28-6.7-8.9-6.7-8.9s-15.38-17.91-22.21-23.74
	c-6.82-5.82-16.5-10.94-18.17-12.2c-1.68-1.27-2.62-2.8-2.62-2.8s-8.4-2.33-15.1-4c-6.4-1.6-8.75-2.88-8.96-2.99
	c4.68-1.15,9.67-2.11,14.82-2.75c23.99-2.97,50.03,2.98,50.03,2.98s12.94,3.41,20.77,6.44c7.82,3.03,13.99,5,21.01,9.44
	c6.14,3.88,10.36,8.7,11.88,10.8c0.05,0.06,0.08,0.12,0.11,0.17c0.99,1.63,1.55,2.68,1.56,2.86
	C362.26,141.6,362.71,147.97,361.32,155.06z"/>
<path id="ID_54_" class="st1" d="M345.57,238.5c0.16,2.65-2.95,9.71-4.65,13.15s-4.59,7.74-7.18,13.34
	c-2.59,5.61-6.19,8.25-6.19,8.25l0.38-8.14c0,0,0.83-1.21,1.65-2.49s0.82-4.76,1.1-7.46c0.29-2.69,1.66-8.03,1.66-8.03
	s0.81-0.5,1.26-0.85c0.45-0.34,0.72-1.02,0.92-2.37c0.2-1.34-1.28-5.19-1.87-6.72s-1.65-5.71-3.65-9.83c-2-4.11-4.12-5.17-7.59-7.88
	s-2.76-2.76-5.29-5.76s-6.06-6.65-8.12-9.53c-2.06-2.89-17.88-20.47-23.29-25.47c-5.42-5-17.24-16.12-21.77-19.77
	c-4.53-3.65-20.73-16.53-25.09-19.2c-4.35-2.68-14.64-9.56-19.23-12c-4.59-2.45-8.71-3.6-8.71-3.6l-0.99-0.68
	c19.88-10.48,33.11-12.69,33.11-12.69c0.21,0.11,2.56,1.39,8.96,2.99c6.7,1.67,15.1,4,15.1,4s0.94,1.53,2.62,2.8
	c1.67,1.26,11.35,6.38,18.17,12.2c6.83,5.83,22.21,23.74,22.21,23.74s3.73,4.62,6.7,8.9c2.98,4.28,6.29,15.31,6.29,15.31
	s2.74,7.46,4.3,10.57c1.57,3.1,3.77,8.29,6.47,11.35c2.69,3.07,6.65,8.84,7.3,10.02c0.64,1.17,1.06,6.61,1.06,6.7
	s0.88,8.33,1.85,11.15l0.38,0.65C343.44,231.15,345.42,235.85,345.57,238.5z"/>
<path id="ID_53_" class="st2" d="M243.94,27.47c0,0-1.5,0.41-2.82,0.71c-1.33,0.29-4.83,1.61-8.83,2.92
	c-4,1.31-13.64,6.34-19.17,9.52c-5.53,3.17-3.83,3.29-4.18,3.59c-0.35,0.29-4,1.05-8.29,3.14c-4.3,2.09-16.97,7.12-16.97,7.12
	c-0.51-0.08,0.1-0.82,0.1-0.82c1.11-1.73,6.19-6.07,6.19-6.07s1.92-0.88,3.07-1.72c1.14-0.84,3.31-2.56,5-3.51
	c1.7-0.95,9.18-6.37,16.44-10.47c7.26-4.11,11.67-4.64,11.67-4.64C231.47,26.43,243.94,27.47,243.94,27.47z"/>
<path id="ID_52_" class="st2" d="M226.15,27.24c0,0,12.73-0.84,17.55,0.3l2.79-0.3c0,0,19.51-6.94,35.1-2.65l1.53-0.69
	c0,0,4.4,0.03,8.94,0.93s16.28,3.81,24,11.66s7.85,8.07,7.85,8.07h0.71c0,0,7.81,3.15,11.36,5.23c3.55,2.07,8.19,4.99,13.28,9.35
	s8.69,11.1,9.4,12.18s1.6,2.32,1.6,2.32s1.22-4.79,0.3-9.71c-0.93-4.92-1.46-8.28-4.08-12.99s-7.57-9.29-12.18-11.76
	s-15.09-8.32-17.89-9.97c-2.8-1.65-10.65-5.05-14.38-7.08s-13.46-7.54-19.94-9.29s-15.13-4.37-22.72-4.06
	c-7.59,0.31-17.07,3.42-20.29,4.83s-3.73,1.76-3.73,1.76s-14.16,7.92-17.52,10.7L226.15,27.24z"/>
<path id="ID_51_" class="st2" d="M333.52,23.55c-0.26-0.11-4.89-2.19-9.43-1.67c-4.68,0.53-11.32,0.64-11.32,0.64h-0.01
	c-0.26-0.13-0.51-0.26-0.74-0.39c-3.73-2.03-13.45-7.55-19.94-9.29c-3.05-0.82-6.59-1.84-10.26-2.65C282.3,10,294.93,5.15,309,6.93
	c14.34,1.81,21.35,10.45,22.28,11.69C332.18,19.81,333.45,23.33,333.52,23.55z"/>
<path id="ID_50_" class="st2" d="M362.16,130.63c0,0-0.48-1.67-0.88-3.97c-0.4-2.29,0.09-3.97-0.22-6.62
	c-0.31-2.64-1.77-5.82-1.77-5.82s-0.26-5.16-1.76-12s-8.87-13.59-8.87-13.59l-0.48-1.01c-1.37-4.15-5.34-8.78-5.34-8.78
	c0.34-0.77-0.88-4.9-0.88-4.9c-2.13-7.68-10.5-19.23-10.5-19.23s-3.05-4.44-7.76-9.92l-0.01-0.23h0.93
	c8.03,2.78,21.35,11.91,21.35,11.91c14.3,11.56,22.15,33.93,22.15,33.93C376.95,112.42,362.16,130.63,362.16,130.63z"/>
<path id="ID_49_" class="st2" d="M155.76,161.71c0,0-1.94,5-0.29,17.93c1.65,12.93,2.71,14.18,3.18,14.47
	c0.47,0.29,0.94-1.24,0.94-1.24s0.12-9.7,4.71-22.65c4.59-12.95,8.53-17.82,11-20.65c2.47-2.82,14.47-13.32,18.18-16.47
	c3.71-3.15,14.68-9,16.76-10.5c2.09-1.5,22.63-11.64,46.62-14.6s50.03,2.98,50.03,2.98s12.94,3.41,20.76,6.44s14,5,21.01,9.44
	s11.52,10.09,12.37,11.53s1.06,1.88,1.06,1.88s0.88-6.03,0.41-7.32c-0.47-1.29-0.56-3.91-0.97-6.44s-1.59-9.41-2.3-11.09
	s0.2-0.11-0.21-4.17s-1.15-9.74-4.32-15.06c-3.18-5.32-6.84-8.25-6.92-8.31c-0.08-0.06-8.17-6.72-15.45-9.21
	c-7.28-2.48-18.49-5.32-27.93-6.55s-29.86-2.04-36-1.26c-6.14,0.77-27.46,0.66-75.37,20.1c0,0-19.24,7.41-29.87,16.4
	s-10.52,12.22-10.63,15.16c-0.12,2.94-0.48,7-2.06,12.76s0,13.88,0,13.88s2.44,6.94,3.3,8.71
	C154.62,159.65,155.76,161.71,155.76,161.71z"/>
<path id="ID_48_" class="st2" d="M345.57,238.5c0.16,2.65-2.95,9.71-4.65,13.15s-4.59,7.74-7.18,13.34
	c-2.59,5.61-6.19,8.25-6.19,8.25l0.38-8.14c0,0,0.83-1.21,1.65-2.49s0.82-4.76,1.1-7.46c0.29-2.69,1.66-8.03,1.66-8.03
	s0.81-0.5,1.26-0.85c0.45-0.34,0.72-1.02,0.92-2.37c0.2-1.34-1.28-5.19-1.87-6.72s-1.65-5.71-3.65-9.83c-2-4.11-4.12-5.17-7.59-7.88
	s-2.76-2.76-5.29-5.76s-6.06-6.65-8.12-9.53c-2.06-2.89-17.88-20.47-23.29-25.47c-5.42-5-17.24-16.12-21.77-19.77
	c-4.53-3.65-20.73-16.53-25.09-19.2c-4.35-2.68-14.64-9.56-19.23-12c-4.59-2.45-8.71-3.6-8.71-3.6l-0.99-0.68
	c19.88-10.48,33.11-12.69,33.11-12.69c0.21,0.11,2.56,1.39,8.96,2.99c6.7,1.67,15.1,4,15.1,4s0.94,1.53,2.62,2.8
	c1.67,1.26,11.35,6.38,18.17,12.2c6.83,5.83,22.21,23.74,22.21,23.74s3.73,4.62,6.7,8.9c2.98,4.28,6.29,15.31,6.29,15.31
	s2.74,7.46,4.3,10.57c1.57,3.1,3.77,8.29,6.47,11.35c2.69,3.07,6.65,8.84,7.3,10.02c0.64,1.17,1.06,6.61,1.06,6.7
	s0.88,8.33,1.85,11.15l0.38,0.65C343.44,231.15,345.42,235.85,345.57,238.5z"/>
<path id="ID_47_" class="st0" d="M334.52,243.9c-0.2,1.35-0.47,2.03-0.92,2.37c-0.45,0.35-1.26,0.85-1.26,0.85s0.4-1.35,0.66-2.34
	c0.2-0.78,0.94-2.27,1.25-2.88C334.47,242.73,334.59,243.45,334.52,243.9z"/>
<path id="ID_46_" class="st0" d="M326.43,237.93c-0.2,2.2-0.11,2.79-0.99,4.02c-0.87,1.24-3.61,6.01-3.61,6.01s-0.93,2.23-1,3.6
	c-0.06,1.37-0.78,9.88-0.78,9.88s0.04,0.15,0.12,0.38c-0.19,1.73-0.54,4.77-1.35,10.36c-2,13.88-4.29,21.41-9.41,31.64
	c-5.12,10.24-14.65,21-26.47,31.53s-24.59,18.77-33.65,22.89c-9.05,4.11-24.47,5.94-36,2.23s-13.05-15.12-15.58-24.23
	c-2.53-9.12-7.89-14.36-15.65-22.48c-7.77-8.11-13.88-18.47-16.41-23.76s-6.59-17.39-6.47-24c0.11-6.61,3.53-20.94,3.94-27.41
	s-5.06-13-5.24-22.88c-0.17-9.89,1.05-21.95,1.05-21.95s1.28-7.29,2.05-11.65c0.77-4.35,3.52-15.58,8.7-24.76
	c5.17-9.17,10.17-12.19,10.17-12.19c15.79-15.31,28.81-21.54,28.81-21.54c14.08,4.96,25.75,13.44,31.11,17.41
	c5.36,3.96,21.67,15.97,26.29,20.21c4.62,4.23,21.82,20.59,23.08,21.89c1.26,1.3,16.51,17.72,19.05,21.31
	c2.54,3.58,14.52,16.4,14.52,16.4s-0.19,2.81,0,5.3c0.19,2.48,0.41,4.64,1.08,6.02C324.46,233.54,326.62,235.72,326.43,237.93z"/>
<path id="ID_45_" class="st0" d="M281.56,228.15c0,0-5.1,0.25-5.76,0.69s-2.43,3.28-6.7,4.83c-0.86,0.31-1.72,0.57-2.6,0.77
	c-2.42,0.58-4.91,0.77-7.47,0.46c-1.17-0.14-2.34-0.38-3.54-0.72c-4.81-1.39-6.84-1.61-7.84-1.35c-0.99,0.27-1.56,0.57-4.21-0.29
	c0,0,5.4-3.68,7.49-4.98c0.89-0.56,1.89-1.33,3.18-2.05c1.7-0.98,3.89-1.91,7-2.23c3.05-0.32,5.43-0.1,7.14,0.23
	c1.35,0.25,2.29,0.56,2.83,0.72c1.24,0.35,3.44,1.32,5.18,2.16C278.01,227.23,281.56,228.15,281.56,228.15z"/>
<path id="ID_44_" class="st0" d="M193.78,237.09c-1.18,0.29-2.02,0.31-3.09,0.31c-0.56,0-1.22-0.05-1.88-0.08
	c-0.6-0.02-1.19-0.03-1.69,0.03c-0.88,0.12-4.23,0.95-6.1,1.29c-0.38,0.07-0.69,0.12-0.92,0.14c-1.35,0.12-6.35,0.04-9.22-1.72
	c-2.87-1.77-3.42-3.19-3.42-3.19s-2.68,0.26-3.78-0.19c0,0,0.89-0.09,1.34-0.28c0,0,3.8-1.52,5.49-2.71c1.1-0.77,3.58-1.64,6.36-2
	c1.51-0.19,3.11-0.23,4.63-0.01c3.98,0.57,7.32,2.48,9.18,4.15c0.15,0.13,0.29,0.26,0.42,0.39c1.74,1.75,2.82,2.88,3.5,3.25
	C194.6,236.47,194.96,236.79,193.78,237.09z"/>
<path id="ID_43_" class="st0" d="M184.26,293.56c0,0,8.36-1.82,18.95-1.35s10.24,1.71,13.26,1.35c3.03-0.35,10.88-1.44,20.91-1.71
	c10.03-0.26,19.62,1.12,21.82,1.35c2.21,0.24,11,2,11,2s-6.47,0.85-8.91,1.29s-12.88,3.12-19.85,5s-17.74,3.65-25.24,3.47
	s-18.18-3.5-19.41-4.15c-1.24-0.65-3.15-2.09-3.15-2.09l-9.57-5.11L184.26,293.56z"/>
<path id="ID_42_" class="st0" d="M270.71,295.37l-1.75,2.34l-7.83,10.89c-4.72,7.46-15.09,17.34-22.41,20.96s-17.03,6.13-27.84,1.5
	s-16.32-19.99-18.79-26.08c-2.39-5.9-5.1-9.66-5.27-9.89l6.83,3.65c0,0,1.91,1.44,3.14,2.08c1.86,3.32,4.69,8.18,5.97,9.53
	c2,2.12,9.89,6,20.27,5.83c10.38-0.18,19.06-4.42,20.79-5.3c1.74-0.88,7.42-3.7,11.59-6.91c4.18-3.21,6.71-4.53,6.71-4.53l1.19-3.27
	c2.67-0.4,6.26-0.88,6.82-0.95c0.04-0.01,0.07-0.01,0.07-0.01L270.71,295.37z"/>
<path id="ID_41_" class="st0" d="M263.31,296.17l-1.19,3.27c0,0-2.53,1.32-6.71,4.53c-4.17,3.21-9.85,6.03-11.59,6.91
	c-1.73,0.88-10.41,5.12-20.79,5.3c-10.38,0.17-18.27-3.71-20.27-5.83c-1.28-1.35-4.11-6.21-5.97-9.53
	c1.24,0.65,11.92,3.97,19.42,4.15s18.26-1.59,25.23-3.47s17.41-4.56,19.85-5C261.81,296.41,262.52,296.3,263.31,296.17z"/>
<path id="ID_40_" class="st0" d="M384.94,409.39c-2.23-0.94-4.81-2.69-6.88-4.06c-0.06-0.04-0.11-0.07-0.16-0.1
	c-19.97-11.66-25.55-18.23-36.67-31.32c-1.9-2.23-4.05-4.76-6.43-7.51c-3.47-4-5.84-17.87-5.86-18.01
	c-0.5-4.39-1.03-13.7-0.98-17.18v-0.06l-0.06,0.02c-0.27,0.11-0.54,0.22-0.82,0.32c-0.42-10.53-0.61-21.08-0.61-31.62
	c0-6.08,0.07-12.16,0.28-18.24c0.18-5.3,0.33-10.69,1.1-15.94c-0.43,0.32-0.91,0.57-1.44,0.72c-1.53,0.43-3.22,0.13-4.4-0.96
	c-0.78-0.72-1.35-1.71-1.62-2.77c-0.32,5.49-0.68,10.98-1.64,16.4c-1.36,7.74-3.73,15.26-7.03,22.39
	c-2.91,6.28-6.55,11.96-10.94,17.3c-4.67,5.68-9.88,10.92-15.34,15.84c-3.04,2.74-6.18,5.39-9.4,7.93
	c-0.56,0.01-9.89,6.36-16.22,10.14c-6.31,3.77-15.73,7.62-22.41,9.17c-3.59,0.83-9.83,0.95-14.9,0.59
	c-0.31-0.02-0.62-0.05-0.92-0.07c-0.17-0.01-0.34-0.03-0.51-0.04c-0.29-0.03-0.58-0.06-0.86-0.09c-0.16-0.02-0.32-0.03-0.47-0.05
	c-0.29-0.03-0.56-0.07-0.84-0.11c-0.13-0.02-0.26-0.03-0.38-0.05c-0.38-0.06-0.75-0.12-1.09-0.18l-0.05-0.01l0.06,0.99
	c0.24,3.92,0.25,4.15,0.38,7.02c0.04,0.94-0.32,1.87-0.98,2.53c-8.99,9.1-23.24,13.63-35.82,17.62c-2.44,0.77-4.74,1.5-6.92,2.25
	c-2.27,0.77-4.52,1.51-6.69,2.22c-11.8,3.88-18.26,6.25-28.67,13.51c-1.51,1.06-11.24,8.04-16.51,12.86
	c-5.12,4.69-7.51,6.64-11.33,11.54c-0.61,0.78-1.82,2.09-1.64,3.07c0.09,0.49,0.22,0.92,0.44,1.29c0.21,0.37,0.51,0.69,0.93,0.95
	c0.49,0.3,1,0.56,1.52,0.82c0.14,0.07,0.28,0.13,0.42,0.2c0.46,0.21,0.93,0.42,1.41,0.6c0.07,0.03,0.15,0.06,0.22,0.09
	c0.55,0.21,1.12,0.4,1.69,0.58c0.15,0.05,0.29,0.09,0.44,0.14c0.47,0.14,0.95,0.28,1.43,0.4c0.12,0.03,0.24,0.06,0.36,0.1
	c0.58,0.15,1.16,0.28,1.74,0.41c0.14,0.03,0.27,0.06,0.41,0.09c0.24,0.05,0.48,0.1,0.73,0.15c0,0,0,0,0-0.01
	c1.62,0.32,3.2,0.59,4.68,0.84c0.27,0.04,0.53,0.09,0.79,0.13c3.95,0.66,7.98,0.96,11.88,1.26c5.92,0.45,12.04,0.91,18,2.63
	c2.59,0.75,4.9,1.99,7.14,3.18c1.91,1.02,3.88,2.08,6.01,2.82c4.41,1.52,7.47,1.05,11.35,0.44c1.44-0.22,2.94-0.46,4.65-0.61
	c6.62-0.59,23.21-1.27,34.3,5.08c3.97,2.27,7.63,4.93,11.16,7.5c4.31,3.13,8.38,6.09,12.95,8.4c5.18,2.62,10.09,3.96,15.45,4.19
	c0.89,0.04,1.76,0.06,2.62,0.06c17.09,0,29-7.55,41.57-15.51c5.04-3.19,10.25-6.5,15.93-9.4c9.28-4.74,18.31-3.85,27.88-2.91
	c2.56,0.25,5.21,0.51,7.87,0.66c4.65,0.26,9.08-0.24,13.16-1.49c3.94-1.2,7.58-3.11,10.82-5.66c3.16-2.49,5.95-5.6,8.29-9.24
	c2.31-3.59,4.18-7.71,5.57-12.22C395.62,413.23,390.82,411.87,384.94,409.39z M374.7,445.88c4.61-2.54,8.53-6.15,11.71-10.61
	C383.19,439.83,379.24,443.39,374.7,445.88z"/>
<path id="ID_39_" class="st1" d="M110.52,445.22c7.79,0.86,15.56,4.46,23.83,5.28c6.92,0.68,14.34-0.47,20.96,1.4
	c4.84,1.36,8.65,4.89,13.35,6.46c8.36,2.79,11.86,0.95,18.02,1.17c13.76,0.49,20.16,1.12,30.09,8.71
	c16.31,12.46,39.05,18.1,59.36,17.95c-15.59,5.03-33.59,2.56-52.41,0.74c-9.74-0.94-20.59,0.83-29.89-2.54
	c-8.59-3.11-13.22-10.69-21.46-14.41C153.07,461.29,138.19,468.7,110.52,445.22z"/>
<path id="ID_38_" class="st1" d="M284.93,481.44c6.87-4.19,16.85-5.96,24.33-10.1c8.36-4.63,14.46-9.36,24.23-10.66
	c9.44-1.25,19.15,0.31,28.57-1.14c16.72-2.57,29.6-7.69,44.79-30.43c-1.31,19.17-17.27,32.61-25.45,37.12
	c-12.04,6.64-27.57,6.53-40.86,8.5c-10.83,1.6-20.87,4.95-31.56,6.94C299.71,483.4,292.83,481.53,284.93,481.44z"/>
<path id="ID_37_" class="st1" d="M96.23,455.71c7.65,2.61,14.72,7.19,21.84,9.97c8.19,3.2,15.14,6.55,24.07,7.18
	c15.8,1.12,21.32,4.7,34.3,12.35c25.98,15.32,59.16,9.74,88.54,10.52c26.81,0.71,48.46-5.78,73.58-12.95
	c-11.55,4.75-21.82,13.15-33.58,17.29c-12.04,4.24-25.4,3.29-37.95,3.29c-22.92,0-47.15,4.27-69.83,1.95
	c-8.36-0.86-16.71-3.79-23.62-8.44c-12.7-8.56-18.65-10.5-34.83-12.79C121.23,481.61,99.62,462.71,96.23,455.71z"/>
<path id="ID_36_" class="st1" d="M319.67,498.83c5.49-0.83,12.23-6.72,17.16-9.43c4.46-2.46,9.42-5.32,14.08-7.47
	c7.39-3.42,16.73-4.11,24.58-6.44c8.04-2.39,19.3-8.8,27.08-22.3c-2.38,23.96-27.13,32.33-42.1,36.08
	c-6.87,1.72-13.7,3.21-20.3,5.75C334.92,497.04,327.67,500.63,319.67,498.83z"/>
<path id="ID_35_" class="st2" d="M110.52,445.22c7.79,0.86,15.56,4.46,23.83,5.28c6.92,0.68,14.34-0.47,20.96,1.4
	c4.84,1.36,8.65,4.89,13.35,6.46c8.36,2.79,11.86,0.95,18.02,1.17c13.76,0.49,20.16,1.12,30.09,8.71
	c16.31,12.46,39.05,18.1,59.36,17.95c-15.59,5.03-33.59,2.56-52.41,0.74c-9.74-0.94-20.59,0.83-29.89-2.54
	c-8.59-3.11-13.22-10.69-21.46-14.41C153.07,461.29,138.19,468.7,110.52,445.22z"/>
<path id="ID_34_" class="st2" d="M284.93,481.44c6.87-4.19,16.85-5.96,24.33-10.1c8.36-4.63,14.46-9.36,24.23-10.66
	c9.44-1.25,19.15,0.31,28.57-1.14c16.72-2.57,29.6-7.69,44.79-30.43c-1.31,19.17-17.27,32.61-25.45,37.12
	c-12.04,6.64-27.57,6.53-40.86,8.5c-10.83,1.6-20.87,4.95-31.56,6.94C299.71,483.4,292.83,481.53,284.93,481.44z"/>
<path id="ID_33_" class="st2" d="M96.23,455.71c7.65,2.61,14.72,7.19,21.84,9.97c8.19,3.2,15.14,6.55,24.07,7.18
	c15.8,1.12,21.32,4.7,34.3,12.35c25.98,15.32,59.16,9.74,88.54,10.52c26.81,0.71,48.46-5.78,73.58-12.95
	c-11.55,4.75-21.82,13.15-33.58,17.29c-12.04,4.24-25.4,3.29-37.95,3.29c-22.92,0-47.15,4.27-69.83,1.95
	c-8.36-0.86-16.71-3.79-23.62-8.44c-12.7-8.56-18.65-10.5-34.83-12.79C121.23,481.61,99.62,462.71,96.23,455.71z"/>
<path id="ID_32_" class="st2" d="M319.67,498.83c5.49-0.83,12.23-6.72,17.16-9.43c4.46-2.46,9.42-5.32,14.08-7.47
	c7.39-3.42,16.73-4.11,24.58-6.44c8.04-2.39,19.3-8.8,27.08-22.3c-2.38,23.96-27.13,32.33-42.1,36.08
	c-6.87,1.72-13.7,3.21-20.3,5.75C334.92,497.04,327.67,500.63,319.67,498.83z"/>
<path id="ID_31_" class="st0" d="M327.33,308.38c-10.81,0-19.57,9.87-19.57,22.05c0,12.17,8.76,22.04,19.57,22.04
	s19.57-9.87,19.57-22.04C346.9,318.25,338.14,308.38,327.33,308.38z M326.44,338.64c-7.03,0-12.73-6.45-12.73-14.39
	s5.7-14.39,12.73-14.39s12.74,6.45,12.74,14.39S333.47,338.64,326.44,338.64z"/>
<ellipse id="ID_30_" class="st0" cx="326.44" cy="324.25" rx="7.49" ry="8.46"/>
<path id="ID_29_" class="st0" d="M190.68,232.83c-0.05,0.43-0.13,0.97-0.27,1.43c-0.26,0.93-1.12,1.92-1.39,2.34
	c-0.11,0.18-0.18,0.46-0.21,0.72c-0.6-0.02-1.19-0.03-1.69,0.03c-0.88,0.12-4.23,0.95-6.1,1.29l-0.2-0.2c0,0-2.79-1.7-3.91-3.65
	c-1-1.72-0.22-5.32-0.04-6.1c1.51-0.19,3.11-0.23,4.63-0.01C185.48,229.25,188.82,231.16,190.68,232.83z"/>
<path id="ID_28_" class="st0" d="M267.18,233.16l-0.68,1.28c-2.42,0.58-4.91,0.77-7.47,0.46c-1.32-0.86-2.93-2.05-3.72-3.15
	c-0.94-1.3-1.16-4.29-1.2-6.24c1.7-0.98,3.89-1.91,7-2.23c3.05-0.32,5.43-0.1,7.14,0.23c0.21,0.49,0.41,1.07,0.6,1.75
	C270.4,230.74,267.18,233.16,267.18,233.16z"/>
<path id="ID_27_" class="st3" d="M246.57,358.05c-2.25,0.89-4.55,1.66-6.9,2.23c-7.79,1.89-16.46,2.53-24.18,0.04
	c-3.53-1.13-6.93-2.94-9.35-5.79c-2.23-2.61-3.57-5.87-4.64-9.09c-1.9-5.71-2.95-11.86-6-17.12c-2.05-3.54-4.8-6.64-7.55-9.63
	c-3.29-3.58-6.65-7.08-9.74-10.83c-8.66-10.54-14.45-22.81-17.52-36.08c-0.69-2.96-0.56-6.11-0.34-9.12
	c0.24-3.37,0.73-6.71,1.29-10.04c0.51-3.04,1.1-6.06,1.63-9.09c0.36-2.07,0.81-4.2,0.82-6.31c0.01-1.43-0.68-2.69-1.15-4.02
	c-0.72-2.02-1.37-4.07-1.94-6.14c-0.86-3.11-1.55-6.27-1.95-9.47c-0.13-1.04-0.21-2.06-0.26-3.08l-0.03-2.7
	c0.02-1.94,0.14-3.88,0.25-5.87c0.44-7.4,1.04-14.81,2.44-22.1c1.27-6.6,3.3-12.94,5.76-19.18c0.66-1.68,1.37-3.33,2.11-4.98
	c0.26-0.6,0.51-1.2,0.75-1.81c1.79-3.17,3.8-6.48,6.46-8.9c0.2-0.18,0.58-0.54,0.94-0.88c0.4-0.38,0.8-0.75,1.21-1.13
	c-12.98,24.71-9.86,48.8-10.3,56.2c-0.12,1.99-0.23,3.93-0.25,5.87l0.03,2.7c0.05,1.02,0.13,2.04,0.26,3.08
	c0.4,3.2,1.09,6.36,1.95,9.47c0.52,1.88,1.1,3.75,1.75,5.59c-0.68,0.27-1.23,0.55-1.61,0.82c-1.69,1.19-5.49,2.71-5.49,2.71
	c-0.45,0.19-1.34,0.28-1.34,0.28c1.1,0.45,3.78,0.19,3.78,0.19s0.55,1.42,3.42,3.19c0.66,0.4,1.43,0.72,2.24,0.96
	c-0.15,0.92-0.32,1.83-0.48,2.73c-0.54,3.03-1.12,6.05-1.63,9.09c-0.56,3.33-1.05,6.67-1.29,10.04c-0.22,3.01-0.35,6.16,0.33,9.12
	c3.08,13.27,8.87,25.54,17.53,36.08c3,3.64,6.25,7.04,9.43,10.51c1.14,2.33,2.63,5.22,3.78,6.7c2.12,2.74,3.64,4.58,5.25,5.5
	c2.19,4.72,3.19,9.96,4.82,14.87c1.08,3.22,2.42,6.48,4.65,9.09c2.42,2.85,5.82,4.66,9.34,5.79
	C231.77,359.77,239.45,359.49,246.57,358.05z"/>
<path id="ID_26_" class="st3" d="M222.78,362.44c0-0.01,0-0.02,0-0.03c-2.05-0.13-3.93-0.34-5.38-0.62l-0.05-0.01l0.06,0.99
	c0.24,3.92,0.25,4.15,0.38,7.02c0.04,0.94-0.32,1.87-0.98,2.53c-8.99,9.1-23.24,13.63-35.82,17.62c-2.44,0.77-4.74,1.5-6.92,2.25
	c-2.27,0.77-4.52,1.51-6.69,2.22c-11.8,3.88-18.26,6.25-28.67,13.51c-1.51,1.06-11.24,8.04-16.51,12.86
	c-5.12,4.69-7.51,6.64-11.33,11.54c-0.61,0.78-1.82,2.09-1.64,3.07c0.18,0.97,0.53,1.73,1.37,2.24c3.01,1.83,6.76,2.86,10.36,3.58
	c1.17-1.97,2.64-4.29,3.25-5.08c3.81-4.9,6.2-6.85,11.33-11.54c5.27-4.83,15-11.81,16.51-12.86c10.42-7.26,16.87-9.63,28.67-13.51
	c2.17-0.71,4.42-1.45,6.69-2.22c2.18-0.74,4.48-1.47,6.92-2.25c9.52-3.02,16-4.75,22.49-9.34l-1.34,8.11l-4.28,8.87
	c0,0,6.59-4.98,9.21-10.38c2.54-5.24,2.96-13.03,2.96-13.03l0,0C223.59,374.56,222.82,363.26,222.78,362.44z"/>
<path id="ID_25_" class="st3" d="M155.35,159.97c0.82-3.56,2.18-6.99,4.22-10.09c1.84-2.8,4.07-5.29,6.33-7.74
	c-0.6-1.79-0.97-3.64-1.16-5.54c-0.34-3.39,0.34-6.67,1.09-9.96c0.89-3.88,1.79-7.75,2.68-11.63c0.45-1.94,0.89-3.88,1.34-5.81
	c0.41-1.78,0.9-3.57,1.19-5.37c0.04-0.37,0.07-0.73,0.1-1.1c-2.99,1.88-5.88,3.92-8.64,6.17c-3.3,2.69-6.59,5.87-8.11,9.94
	c-0.86,2.3-1,4.74-1.2,7.16c-0.2,2.4-0.64,4.74-1.23,7.07c-0.62,2.45-1.32,4.9-1.56,7.42c-0.23,2.53-0.01,5.07,0.55,7.54
	C151.88,152.19,153.66,156.07,155.35,159.97z"/>
<path id="ID_24_" class="st3" d="M167.51,145.73c-0.36-0.63-0.68-1.27-0.97-1.93c-2.89,3.13-5.66,6.34-7.55,10.2
	c-3.07,6.26-3.48,13.31-3.25,20.16c0.12,3.54,0.56,7.06,1.02,10.56c0.37,2.76,0.67,5.68,1.62,8.34c0.72-6.3,1.82-12.56,3.65-18.64
	c0.99-3.32,2.15-6.62,3.51-9.81c0.75-1.75,1.53-3.48,2.34-5.2c0.89-1.88,2.88-4.92,3.3-5.47c0.39-0.63,0.86-1.26,1.28-1.87
	c0.11-0.16,0.23-0.33,0.35-0.49C170.63,150.08,168.8,147.99,167.51,145.73z"/>
<path id="ID_23_" class="st3" d="M165.44,104.53c1.89-1.36,3.82-2.65,5.78-3.87c0.03-1.38,0.01-2.76,0.03-4.14
	c0.05-2.48,0.27-5.01,1.02-7.39c0.66-2.11,1.61-4.15,2.64-6.1c0.91-1.73,1.9-3.42,2.76-5.18c0.16-0.33,0.31-0.66,0.46-0.99
	c0.02-0.1,0.13-0.34,0.14-0.38c0.05-0.16,0.1-0.33,0.15-0.5c-2.6,1.17-5.12,2.52-7.5,4.13c-3.87,2.61-7.44,5.95-10.09,9.87
	c0.01,0.08,0.01,0.16,0.02,0.25c0.02,0.21-0.19,0.31-0.36,0.28c-1.13,1.76-2.08,3.63-2.79,5.6c-1.28,3.56-1.38,7.2-1.33,10.94
	c0.02,1.91,0.03,3.86-0.24,5.74C158.74,109.56,162.1,106.96,165.44,104.53z"/>
<path id="ID_22_" class="st3" d="M200.43,39.87c0.65-2.28,1.34-4.52,2.28-6.71c1.1-2.57,2.63-4.97,4.65-6.91
	c2.08-1.99,4.46-3.71,6.97-5.11c3.3-1.83,6.8-3.17,10.41-4.21c-1.48,0.09-2.97,0.18-4.45,0.27c-2.14,0.13-4.29,0.25-6.42,0.53
	c-3.94,0.51-8.04,1.6-11.03,4.37c-1.66,1.54-2.84,3.49-3.92,5.47c-1.2,2.2-2.35,4.43-3.52,6.64c-0.62,1.17-1.23,2.33-1.85,3.5
	c-0.57,1.08-1.17,2.15-1.61,3.3c-0.69,1.8-1.09,3.68-1.37,5.57c1.06-0.82,2.15-1.6,3.25-2.35C196,42.74,198.21,41.3,200.43,39.87z"
	/>
<path id="ID_21_" class="st3" d="M174.94,76.29c1.26-0.65,2.53-1.25,3.82-1.82c0.07-0.41,0.14-0.81,0.2-1.22
	c0.22-1.7,0.4-3.41,0.82-5.07c0.45-1.74,1.19-3.44,2.17-4.95c1.78-2.74,4.16-4.8,6.74-6.76c0.96-0.73,1.95-1.44,2.92-2.16
	c0.16-0.12,0.31-0.23,0.47-0.35c0.02-0.02,0.05-0.04,0.09-0.07c0.1-0.08,0.2-0.16,0.3-0.24c0.45-0.36,0.89-0.73,1.31-1.11
	c0.84-0.75,1.6-1.56,2.33-2.42c-3.08,1.3-6.17,2.59-9.28,3.8c-4.27,1.66-8.56,3.36-12.4,5.89c-3.28,2.16-6.09,5-8.27,8.27
	c-2.15,3.23-3.72,6.83-4.59,10.61c-0.72,3.1-0.93,6.31-0.83,9.5C164.35,83.11,169.45,79.14,174.94,76.29z"/>
<path id="ID_20_" class="st3" d="M197.55,47.96c0.14-0.26,0.28-0.52,0.42-0.79c0.14-0.29,0.28-0.58,0.41-0.87
	c0.25-0.69,0.18-0.45,0.1-0.22c0,0,0-0.01,0.01-0.01c0.22-0.54,0.42-1.1,0.6-1.65c0.29-0.85,0.55-1.72,0.8-2.58
	c-2.28,1.43-4.56,2.88-6.8,4.37c-0.97,0.65-1.93,1.33-2.86,2.03c-0.02,0.02-0.05,0.04-0.08,0.06c-2.12,1.59-4.13,3.31-6.05,5.14
	c1.52-0.61,3.04-1.19,4.56-1.79C191.63,50.48,194.59,49.22,197.55,47.96z"/>
<ellipse id="ID_19_" class="st4" cx="261.7" cy="229.53" rx="1.88" ry="1.64"/>
<ellipse id="ID_18_" class="st4" cx="183.61" cy="234.03" rx="1.88" ry="1.64"/>
<path id="ID_17_" class="st4" d="M195.42,278.27c0.84,0.37,1.65,0.6,2.48,0.71c0.33,0.04,0.66,0.07,0.99,0.1
	c0.41,0.04,0.84,0.07,1.25,0.14c0.99,0.16,1.85,0.41,2.62,0.78c0.77,0.37,1.49,0.81,2.33,1.37c0.2,0.13,0.4,0.27,0.61,0.41
	c1.33,0.9,2.72,1.83,4.29,2.27c2.08,0.58,3.99,0.87,5.77,0.87c1.26,0,2.45-0.15,3.58-0.44c1.53-0.4,2.97-1.09,4.35-1.76
	c0.6-0.29,1.21-0.59,1.83-0.86c1.08-0.47,2.17-0.82,3.18-1.01c1.49-0.29,2.99-0.37,4.79-0.4h0.3c1.15-0.02,2.33-0.04,3.48-0.3
	c1.24-0.28,2.49-0.86,3.95-1.85c2.11-1.42,3.28-4.03,3.23-7.15c-0.05-2.93-0.96-5.62-2.57-7.55c-0.25-0.3-0.53-0.55-0.8-0.8
	c-0.12-0.11-0.24-0.22-0.36-0.33c-0.17-0.16-0.39-0.11-0.51,0.02c-0.12,0.13-0.16,0.34,0.01,0.5c0.29,0.28,0.51,0.67,0.71,1.04
	c0.05,0.08,0.09,0.17,0.14,0.25c0.28,0.5,0.49,1.03,0.7,1.57c0.52,1.38,0.85,2.54,1.03,3.66c0.21,1.32,0.49,4.62-1.46,6.74
	c-0.78,0.85-2,1.62-3.34,2.12c-1.16,0.44-2.3,0.52-3.26,0.55c-0.29,0.01-0.57,0.02-0.86,0.02c-2.51,0.06-5.1,0.13-7.53,0.97
	c-1.11,0.38-2.18,0.91-3.22,1.42c-0.81,0.4-1.66,0.82-2.5,1.15c-2.31,0.92-4.82,1.19-7.46,0.79c-0.86-0.13-1.73-0.31-2.67-0.55
	c-0.75-0.19-1.49-0.52-2.4-1.04c-0.59-0.34-1.17-0.71-1.73-1.07c-0.63-0.41-1.29-0.83-1.94-1.18c-0.09-0.08-0.19-0.16-0.3-0.24
	c-0.04-0.03-0.09-0.07-0.13-0.1c-0.29-0.23-0.55-0.44-0.8-0.66c-0.5-0.44-0.91-0.85-1.28-1.25c-0.71-0.78-1.31-1.77-1.75-2.87
	c-0.74-1.86-0.91-3.98-0.5-6.14c0.23-1.2,0.62-2.42,1.11-3.53c0.03-0.06-0.01-0.15-0.07-0.18c-0.06-0.03-0.15,0-0.18,0.06
	c-1.16,2.1-1.73,4.25-1.71,6.37c0.03,2.3,0.77,4.51,2.15,6.38c0.25,0.34,0.52,0.7,0.82,1.05c-1.11-0.3-2.23-0.42-3.2-0.5
	c-1.71-0.14-3.05-0.62-3.99-1.43c-2.27-1.96-2.39-5.37-1.8-7.7c0.78-3.1,3.02-5.58,5.19-7.99c0.23-0.25,0.45-0.5,0.67-0.75
	c0.48-0.54,1.11-1.27,1.67-2.07c0.05-0.07,0.03-0.16-0.03-0.21s-0.16-0.05-0.21,0.01c-1.34,1.32-2.69,2.72-4.02,4.16
	c-1.54,1.67-2.6,3.12-3.36,4.58c-1.48,2.86-1.62,6.17-0.36,8.84C192.99,276.61,194.08,277.68,195.42,278.27z"/>
<path id="ID_16_" class="st4" d="M271.72,295.34c-5.47-1.39-11.51-2.41-18.45-3.13c-6.5-0.67-12.82-0.97-18.79-0.9
	c-3.06,0.03-6.08,0.29-9.43,0.6c-1.56,0.14-3.14,0.31-4.7,0.5c-0.46,0.06-0.92,0.13-1.38,0.2c-1.07,0.16-2.18,0.32-3.26,0.33h-0.06
	c-1,0-2.01-0.17-2.99-0.33c-0.44-0.08-0.9-0.15-1.35-0.21c-1.3-0.18-2.63-0.31-3.97-0.4c-2.59-0.18-5.29-0.23-8.25-0.15
	c-2.49,0.07-5.09,0.23-7.72,0.48l-0.2,0.01c-1.98,0.19-4.02,0.38-6,0.75c-0.42,0.08-0.83,0.16-1.24,0.25
	c-0.13,0.02-0.2,0.14-0.18,0.27c0.01,0.12,0.09,0.2,0.19,0.21c0.84,0.48,1.68,0.95,2.53,1.42c2.73,3.95,4.62,8.41,6.46,12.72
	l0.39,0.92c1.88,4.41,3.82,8.97,6.56,13.03c2.79,4.14,6.04,7.27,9.64,9.29c3.15,1.77,6.6,2.82,10.26,3.13
	c0.79,0.06,1.6,0.09,2.42,0.09c2.5,0,5.13-0.3,7.86-0.91c4-0.89,7.94-2.45,11.68-4.63c3.29-1.93,6.52-4.39,9.61-7.34
	c1.47-1.4,2.76-2.89,3.94-4.3c1.32-1.57,2.56-3.23,3.5-4.49c2.07-2.81,4.04-5.66,6.05-8.57c1.56-2.27,3.15-4.54,4.9-7.06
	c0.12-0.16,0.23-0.33,0.34-0.5c0.17-0.26,0.34-0.52,0.53-0.77l0.93,0.18c0.23,0.04,0.39-0.11,0.43-0.28
	C272.01,295.59,271.93,295.4,271.72,295.34z M184.84,293.73l0.46-0.05c3.87-0.42,7.88-0.85,11.85-0.99
	c6.18-0.22,11.49,0.1,16.24,0.98l0.19,0.04c0.69,0.13,1.41,0.26,2.13,0.29c0.75,0.03,1.5-0.06,2.33-0.15l0.91-0.11
	c1.21-0.14,2.45-0.29,3.69-0.41c2.73-0.26,5.69-0.45,9.32-0.58l0.98-0.03c2.75-0.1,5.59-0.2,8.37-0.18
	c2.97,0.03,6.11,0.17,9.33,0.42c3.15,0.26,6.3,0.6,9.36,1.04c2.41,0.34,4.83,0.78,7.19,1.22c-0.3,0.01-0.62,0.03-0.95,0.05
	c-2.3,0.16-4.73,0.52-7.21,1.07c-3.45,0.78-6.93,1.67-10.3,2.53c-2.53,0.65-5.15,1.32-7.73,1.93c-6.17,1.47-12.8,2.89-19.53,3.36
	c-3.08,0.21-6.02,0.15-8.98-0.17c-3.1-0.35-6.26-0.91-9.39-1.68c-2.38-0.59-4.62-1.56-7.25-2.85c-1.85-0.9-3.7-1.89-5.49-2.85
	c-1.16-0.63-2.36-1.27-3.55-1.89C186.09,294.35,185.46,294.03,184.84,293.73z M261.93,296.99c-0.18,0.65-0.76,1.86-1.12,2.61
	l-0.15,0.31c-0.84,0.53-1.68,1.08-2.5,1.61l-0.86,0.56c-0.76,0.49-1.52,0.97-2.28,1.46c-1.13,0.71-2.31,1.46-3.44,2.21
	c-2.26,1.51-4.31,2.74-6.27,3.76c-5.06,2.65-10.84,4.53-17.18,5.61c-0.22,0.03-0.43,0.07-0.65,0.11c-0.74,0.13-1.5,0.27-2.25,0.31
	c-0.68,0.03-1.37,0.02-2.05,0.01h-0.25c-1.72-0.02-3.29-0.1-4.8-0.25c-3.48-0.34-6.47-1.01-9.15-2.05c-2.02-0.79-3.82-1.8-5.34-2.99
	c-0.93-0.77-2.21-5.27-2.69-7.66l0.1,0.04c2.93,1.09,5.97,1.67,8.55,2.09c3.52,0.58,6.43,0.82,9.15,0.76
	c7.15-0.17,14.23-1.56,19.61-2.76c3.85-0.85,7.74-1.84,11.49-2.8c2.29-0.58,4.65-1.18,6.99-1.74
	C258.78,297.72,260.4,297.34,261.93,296.99z M269.9,296.11c-0.19,0.21-0.39,0.43-0.58,0.65c-0.42,0.52-0.81,1.04-1.13,1.49
	c-0.83,1.14-1.63,2.28-2.45,3.46c-2.2,3.14-4.06,5.69-5.86,8.03c-1.13,1.46-2.31,2.87-3.53,4.17l-0.43,0.45
	c-1.13,1.21-2.3,2.46-3.53,3.61c-0.47,0.44-0.94,0.88-1.41,1.32c-0.92,0.88-1.87,1.78-2.85,2.63c-1.57,1.34-3.06,2.5-4.57,3.54
	c-3.49,2.39-7.1,4.2-10.73,5.36c-3.59,1.15-6.95,1.72-10.59,1.78c-3.55,0.06-6.8-0.48-9.66-1.62c-3.53-1.4-6.9-3.87-9.73-7.14
	c-3.39-3.91-5.64-8.61-7.64-13.09c-0.33-0.72-0.65-1.45-0.97-2.18c-1.68-3.78-3.41-7.69-5.65-11.24c-0.34-0.54-0.67-1.03-1.01-1.48
	c2.06,1.12,4.16,2.24,6.04,3.24l0.19,0.1c1.07,1.03,2.05,2.24,2.99,3.69c0.39,0.58,0.76,1.19,1.11,1.78
	c0.53,0.87,1.08,1.77,1.68,2.62c1.74,2.5,4.05,4.51,6.88,5.99c4.75,2.49,10.68,3.57,18.66,3.42c0.7-0.01,1.42-0.14,2.11-0.26
	c0.21-0.03,0.42-0.07,0.63-0.1c0.94-0.15,1.87-0.32,2.76-0.5c1.7-0.34,3.35-0.74,4.91-1.18c2.83-0.81,5.59-1.83,8.2-3.05
	c4.22-1.97,8.39-4.57,12.41-7.75c1.57-1.24,3.35-2.49,5.61-3.93c2.18-1.38,4.27-2.51,6.4-3.44c0.57-0.26,1.17-0.5,1.78-0.74h0.07
	l0.19,0.04C270.1,295.89,270,296,269.9,296.11z"/>
<path id="ID_15_" class="st4" d="M181.09,285.75c-0.84,0.38-1.44,1.23-1.8,1.88c-0.53,0.95-0.83,1.81-0.91,2.56
	c-0.1,0.9,0.12,1.91,0.63,2.98c0.26,0.55,0.42,0.97,0.53,1.4l0.04,0.14c0.13,0.48,0.26,0.98,0.28,1.46
	c0.01,0.15,0.12,0.27,0.27,0.28c0.01,0,0.02,0,0.03,0c0.13,0,0.24-0.08,0.27-0.21c0.11-0.42,0.21-0.89,0.15-1.42
	c-0.04-0.34-0.13-0.66-0.22-0.98c-0.04-0.13-0.07-0.25-0.1-0.38c-0.06-0.23-0.1-0.46-0.14-0.69c-0.04-0.24-0.09-0.49-0.15-0.73
	l-0.06-0.24c-0.1-0.39-0.2-0.76-0.24-1.15c-0.1-0.88-0.15-1.66,0.13-2.43c0.27-0.73,0.73-1.29,1.21-1.89
	c0.09-0.12,0.19-0.23,0.28-0.35c0.05-0.06,0.05-0.14,0-0.2C181.24,285.74,181.16,285.72,181.09,285.75z"/>
<path id="ID_14_" class="st4" d="M276.54,287.28c-0.76-0.84-1.73-1.52-2.66-1.86c-0.09-0.03-0.18,0-0.22,0.08
	c-0.04,0.09-0.02,0.19,0.06,0.25c0.63,0.45,1.48,1.19,2.01,2.22c0.39,0.76,0.62,1.68,0.67,2.66c0.04,0.9-0.06,1.82-0.31,2.83
	l-0.02,0.09c-0.12,0.49-0.23,0.94-0.41,1.41l-0.16,0.4c-0.14,0.35-0.28,0.71-0.4,1.07c-0.03,0.08,0.01,0.16,0.08,0.2
	c0.03,0.01,0.05,0.02,0.08,0.02c0.06,0,0.11-0.03,0.14-0.07c0.31-0.47,0.61-0.98,0.92-1.57c0.08-0.15,0.16-0.31,0.25-0.46
	c0.18-0.33,0.37-0.67,0.52-1.03c0.52-1.25,0.73-2.33,0.65-3.3C277.61,288.98,277.24,288.05,276.54,287.28z"/>
<path id="ID_13_" class="st4" d="M287.42,201.82c-3.59-2.48-7.79-5.14-11.75-6.08c-2.98-0.93-8.25,0.26-12.49,1.21l-0.81,0.18
	c-6.62,1.48-12.56,2.88-18.34,4.93c-0.84,0.3-1.55,0.55-2.2,0.78c-1.64,0.58-2.82,0.99-4.39,1.59l-0.23,0.09
	c-0.99,0.37-2.34,0.88-3.33,2.36c-0.65,1.39-1,2.48-1.13,3.54c-0.08,0.7-0.15,2.76,0.17,3.48c0.36,0.81,0.95,1.06,1.6,1.06
	c0.56,0,1.17-0.18,1.74-0.35l1.15-0.34c2.56-0.75,5.2-1.53,7.75-2.42c6.65-2.33,12.64-4.47,18.54-7.06
	c5.52-2.43,10.21-3.6,16.5-1.93c4.47,1.19,9.45,3.16,13.45,4.74c0.52,0.2,1.02,0.4,1.51,0.59c0.05,0.02,0.12,0,0.15-0.05
	s0.02-0.12-0.03-0.16C292.06,205.27,289.48,203.25,287.42,201.82z"/>
<path id="ID_12_" class="st4" d="M285.86,227.76c-0.43,0.06-0.85,0.13-1.28,0.2l-0.59,0.1h-0.04c-1.66-0.1-2.92-0.3-4.05-0.67
	c-1.49-0.47-2.89-1.12-3.95-1.63c-0.24-0.12-0.48-0.24-0.72-0.35c-1-0.49-2.03-1-3.08-1.41c-1.16-0.44-2.38-0.8-3.62-1.04
	c-5.01-0.98-10.19-0.29-14.59,1.95c-0.92,0.47-1.86,1.06-2.77,1.74c-0.96,0.57-1.87,1.2-2.94,1.97c-0.38,0.27-0.75,0.55-1.13,0.83
	c-0.97,0.71-1.97,1.45-3,2.09c-1.43,0.9-2.84,1.74-4.43,2.16c-0.11,0.03-0.18,0.14-0.16,0.26c0.02,0.11,0.11,0.18,0.22,0.17
	c1.5-0.14,2.9-0.52,4.05-1.1c0.91,0.49,1.86,0.52,2.99,0.42c1.32-0.11,2.36-0.15,3.46,0.03c0.83,0.13,1.67,0.33,2.47,0.52
	c0.4,0.1,0.79,0.19,1.19,0.28c1.47,0.33,2.6,0.54,3.66,0.71c1.56,0.24,3,0.36,4.36,0.36c1.06,0,2.06-0.08,3.02-0.22
	c1.03-0.16,2.05-0.39,3.03-0.69c0.95-0.29,1.85-0.72,2.76-1.18c2.04-1.03,3.71-2.39,4.98-4.06c1.16,0.27,2.68,0.56,4.31,0.41
	c0.84-0.08,1.67-0.26,2.47-0.43l0.13-0.03c0.54-0.03,1.06-0.15,1.52-0.35c0.01-0.01,0.02-0.01,0.03-0.02
	c0.57-0.15,1.16-0.34,1.82-0.56c0.12-0.04,0.19-0.16,0.16-0.28C286.11,227.82,285.99,227.74,285.86,227.76z M253.57,233.29
	c-0.78-0.18-1.59-0.36-2.4-0.53c-0.99-0.2-1.88-0.3-2.72-0.3c-0.34,0-0.68,0.02-1.02,0.05c-0.19,0.02-0.38,0.05-0.57,0.07
	c-0.77,0.09-1.57,0.18-2.33,0.05c1.05-0.6,2.04-1.27,3.13-2.01c0.19-0.14,0.38-0.27,0.57-0.4c1.03-0.72,2.08-1.45,3.21-1.99
	c0.83-0.39,1.7-0.75,2.58-1.04c-0.03,0.14-0.05,0.28-0.06,0.41l-0.01,0.05c-0.05,0.48-0.06,0.97-0.02,1.47
	c0.07,0.98,0.38,1.92,0.94,2.76c0.56,0.88,1.39,1.61,2.37,2.14c0.03,0.01,0.06,0.03,0.09,0.04
	C256.06,233.85,254.8,233.56,253.57,233.29z M261.71,234.5c-3.17,0-5.84-2.15-6.62-5.07c-0.16-0.57-0.24-1.16-0.24-1.78
	c0-0.29,0.02-0.57,0.06-0.85c1.94-0.79,6.94-2.24,13.61,0.18c0.03,0.22,0.04,0.44,0.04,0.67c0,0.88-0.17,1.72-0.48,2.49
	C267.09,232.69,264.61,234.5,261.71,234.5z M270.81,232.43c-0.95,0.49-2.05,0.9-3.33,1.24c0.65-0.48,1.34-1.17,1.74-2.12
	c0.33-0.78,0.5-1.71,0.49-2.7c-0.01-0.62-0.1-1.13-0.26-1.52c0.39,0.13,0.78,0.24,1.16,0.35c0.39,0.12,0.8,0.23,1.19,0.37
	c0.89,0.31,1.69,0.57,2.45,0.77c0.24,0.07,0.48,0.14,0.72,0.2C273.88,230.42,272.44,231.59,270.81,232.43z"/>
<path id="ID_11_" class="st4" d="M237.64,229.73c1.11-0.5,2.01-1.41,2.89-2.28c0.24-0.24,0.48-0.47,0.71-0.7
	c0.53-0.5,1.2-1.13,1.91-1.63c0.5-0.35,1.03-0.69,1.54-1.02l0.55-0.35c1.67-1.09,3.1-1.89,4.48-2.5c1.42-0.62,3.01-1.13,4.87-1.56
	c2.86-0.66,5.83-0.92,8.81-0.79c1.53,0.07,3.04,0.27,4.5,0.47c1.54,0.21,3.05,0.5,4.47,0.85c1.77,0.44,3.35,0.98,4.82,1.65
	c1.37,0.63,2.78,1.39,4.44,2.41c0.12,0.07,0.25,0.04,0.33-0.07c0.08-0.12,0.05-0.27-0.07-0.35c-1.14-0.77-2.44-1.51-3.98-2.25
	c-1.46-0.7-2.87-1.31-4.2-1.81c-1.65-0.63-3.12-1.09-4.48-1.42c-1.4-0.34-2.92-0.57-4.65-0.7c-3.24-0.26-6.32-0.08-9.13,0.54
	c-3.34,0.73-6.51,2.07-9.42,3.98c-1.54,1.01-3.16,2.11-4.58,3.41c-0.48,0.44-0.94,0.91-1.38,1.36c-0.19,0.2-0.38,0.39-0.58,0.59
	c-0.28,0.28-0.57,0.55-0.85,0.82c-0.38,0.36-0.78,0.74-1.15,1.12c-0.05,0.05-0.06,0.13-0.02,0.19c0.03,0.04,0.08,0.06,0.13,0.06
	C237.6,229.74,237.62,229.74,237.64,229.73z"/>
<path id="ID_10_" class="st4" d="M269.5,243.5c2.47-0.45,4.8-1.27,6.96-2.1c0.06-0.03,0.1-0.12,0.08-0.18
	c-0.02-0.06-0.11-0.1-0.17-0.08c-2,0.65-4.08,1.04-6.09,1.41c-2.2,0.41-4.25,0.65-6.27,0.74c-4.15,0.18-8.35-0.2-12.47-1.14
	c-2.46-0.56-4.69-1.19-6.81-1.91c-0.06-0.02-0.14,0.01-0.17,0.07c-0.03,0.06,0,0.14,0.06,0.17c4.93,2.49,10.72,3.76,16.81,3.76
	C264.07,244.24,266.78,244,269.5,243.5z"/>
<path id="ID_9_" class="st4" d="M331.53,310.66c-0.97-0.46-2.04-0.78-3.15-0.96c-0.04-0.01-0.08-0.01-0.12-0.02
	c-0.4-0.06-1.24-0.14-2.43-0.1h-0.15c-0.73,0.05-1.46,0.16-2.16,0.35c-2.56,0.68-4.96,2.28-6.74,4.49
	c-3.74,4.65-4.51,11.45-1.92,16.91c1.22,2.58,3.16,4.72,5.47,6.05c1.54,0.9,3.29,1.42,5.07,1.54c0.03,0,0.06,0.01,0.09,0.01h0.01
	c0.26,0.02,0.51,0.03,0.76,0.03c0.32,0,0.65-0.02,0.97-0.04v0.01c0.89-0.09,1.72-0.29,2.15-0.4c4.81-1.33,8.72-5.86,9.75-11.33
	c0.14-0.73,0.23-1.5,0.28-2.29C339.7,318.73,336.54,313,331.53,310.66z M325.72,338.23c-1.19-0.06-2.33-0.29-3.42-0.7
	c-2.32-0.89-4.41-2.62-5.88-4.89c-3.07-4.75-3.15-11.25-0.18-16.17c1.38-2.31,3.41-4.16,5.7-5.2c0.87-0.4,1.8-0.68,2.77-0.84
	c-0.79,0.54-1.29,1.45-1.29,2.43c0,1.26,0.79,2.35,1.93,2.77c-1.81,0.3-3.48,1.29-4.68,2.77c-2.22,2.75-2.69,6.78-1.17,10.03
	c1.25,2.65,3.69,4.38,6.38,4.55c-1.01,0.49-1.68,1.51-1.68,2.67C324.2,336.74,324.79,337.71,325.72,338.23z M326.44,332.25
	c-0.12,0-0.24,0-0.37-0.01c-0.12,0-0.24-0.01-0.36-0.03c-0.11-0.01-0.23-0.03-0.35-0.05c-1.86-0.29-3.59-1.41-4.69-3.12
	c-1.2-1.87-1.59-4.21-1.17-6.4c0.01-0.02,0.01-0.04,0.01-0.06c0.04-0.24,0.1-0.48,0.17-0.71c0-0.01,0-0.01,0.01-0.02
	c0.05-0.2,0.12-0.4,0.19-0.6c0.05-0.16,0.12-0.32,0.19-0.48c0.07-0.17,0.15-0.33,0.24-0.5c0.1-0.19,0.21-0.38,0.32-0.56
	c0.14-0.22,0.28-0.43,0.43-0.63c0.01-0.01,0.01-0.02,0.02-0.02c1.24-1.61,3.02-2.63,4.91-2.78c0.13-0.01,0.26-0.02,0.4-0.02h0.03
	c0.01,0,0.01,0,0.02,0c0.7,0,1.37,0.11,2,0.32c0-0.01,0-0.01,0-0.02c0.73,0.24,1.39,0.6,1.96,1.06c0.1,0.06,0.19,0.14,0.28,0.23
	c0.15,0.13,0.29,0.26,0.43,0.39c1.48,1.47,2.41,3.62,2.41,6.02C333.52,328.67,330.35,332.25,326.44,332.25z M338.68,324.9
	c-0.33,5.89-3.87,11.01-8.81,12.73c-0.21,0.07-0.42,0.14-0.68,0.21v-0.04c0.6-0.56,0.94-1.34,0.94-2.15c0-0.91-0.41-1.75-1.14-2.32
	c-0.01-0.28-0.02-0.56-0.03-0.84c2.9-1.18,4.98-4.32,5.18-7.85c0.17-3.68-1.72-7.09-4.69-8.47c-0.33-0.16-0.68-0.28-1.04-0.38
	c0-0.27-0.01-0.53-0.02-0.79c0.6-0.55,0.96-1.33,0.96-2.14c0-0.88-0.4-1.68-1.07-2.25v-0.2c0.47,0.07,0.89,0.17,1.28,0.27
	c4.94,1.42,8.6,6.25,9.08,12.02C338.7,323.41,338.72,324.15,338.68,324.9z M331.53,310.66c-0.97-0.46-2.04-0.78-3.15-0.96
	c-0.04-0.01-0.08-0.01-0.12-0.02c-0.4-0.06-1.24-0.14-2.43-0.1h-0.15c-0.73,0.05-1.46,0.16-2.16,0.35
	c-2.56,0.68-4.96,2.28-6.74,4.49c-3.74,4.65-4.51,11.45-1.92,16.91c1.22,2.58,3.16,4.72,5.47,6.05c1.54,0.9,3.29,1.42,5.07,1.54
	c0.03,0,0.06,0.01,0.09,0.01h0.01c0.26,0.02,0.51,0.03,0.76,0.03c0.32,0,0.65-0.02,0.97-0.04v0.01c0.89-0.09,1.72-0.29,2.15-0.4
	c4.81-1.33,8.72-5.86,9.75-11.33c0.14-0.73,0.23-1.5,0.28-2.29C339.7,318.73,336.54,313,331.53,310.66z M325.72,338.23
	c-1.19-0.06-2.33-0.29-3.42-0.7c-2.32-0.89-4.41-2.62-5.88-4.89c-3.07-4.75-3.15-11.25-0.18-16.17c1.38-2.31,3.41-4.16,5.7-5.2
	c0.87-0.4,1.8-0.68,2.77-0.84c-0.79,0.54-1.29,1.45-1.29,2.43c0,1.26,0.79,2.35,1.93,2.77c-1.81,0.3-3.48,1.29-4.68,2.77
	c-2.22,2.75-2.69,6.78-1.17,10.03c1.25,2.65,3.69,4.38,6.38,4.55c-1.01,0.49-1.68,1.51-1.68,2.67
	C324.2,336.74,324.79,337.71,325.72,338.23z M326.44,332.25c-0.12,0-0.24,0-0.37-0.01c-0.12,0-0.24-0.01-0.36-0.03
	c-0.11-0.01-0.23-0.03-0.35-0.05c-1.86-0.29-3.59-1.41-4.69-3.12c-1.2-1.87-1.59-4.21-1.17-6.4c0.01-0.02,0.01-0.04,0.01-0.06
	c0.04-0.24,0.1-0.48,0.17-0.71c0-0.01,0-0.01,0.01-0.02c0.05-0.2,0.12-0.4,0.19-0.6c0.05-0.16,0.12-0.32,0.19-0.48
	c0.07-0.17,0.15-0.33,0.24-0.5c0.1-0.19,0.21-0.38,0.32-0.56c0.14-0.22,0.28-0.43,0.43-0.63c0.01-0.01,0.01-0.02,0.02-0.02
	c1.24-1.61,3.02-2.63,4.91-2.78c0.13-0.01,0.26-0.02,0.4-0.02h0.03c0.01,0,0.01,0,0.02,0c0.7,0,1.37,0.11,2,0.32
	c0-0.01,0-0.01,0-0.02c0.73,0.24,1.39,0.6,1.96,1.06c0.1,0.06,0.19,0.14,0.28,0.23c0.15,0.13,0.29,0.26,0.43,0.39
	c1.48,1.47,2.41,3.62,2.41,6.02C333.52,328.67,330.35,332.25,326.44,332.25z M338.68,324.9c-0.33,5.89-3.87,11.01-8.81,12.73
	c-0.21,0.07-0.42,0.14-0.68,0.21v-0.04c0.6-0.56,0.94-1.34,0.94-2.15c0-0.91-0.41-1.75-1.14-2.32c-0.01-0.28-0.02-0.56-0.03-0.84
	c2.9-1.18,4.98-4.32,5.18-7.85c0.17-3.68-1.72-7.09-4.69-8.47c-0.33-0.16-0.68-0.28-1.04-0.38c0-0.27-0.01-0.53-0.02-0.79
	c0.6-0.55,0.96-1.33,0.96-2.14c0-0.88-0.4-1.68-1.07-2.25v-0.2c0.47,0.07,0.89,0.17,1.28,0.27c4.94,1.42,8.6,6.25,9.08,12.02
	C338.7,323.41,338.72,324.15,338.68,324.9z M331.53,310.66c-0.97-0.46-2.04-0.78-3.15-0.96c-0.04-0.01-0.08-0.01-0.12-0.02
	c-0.4-0.06-1.24-0.14-2.43-0.1h-0.15c-0.73,0.05-1.46,0.16-2.16,0.35c-2.56,0.68-4.96,2.28-6.74,4.49
	c-3.74,4.65-4.51,11.45-1.92,16.91c1.22,2.58,3.16,4.72,5.47,6.05c1.54,0.9,3.29,1.42,5.07,1.54c0.03,0,0.06,0.01,0.09,0.01h0.01
	c0.26,0.02,0.51,0.03,0.76,0.03c0.32,0,0.65-0.02,0.97-0.04v0.01c0.89-0.09,1.72-0.29,2.15-0.4c4.81-1.33,8.72-5.86,9.75-11.33
	c0.14-0.73,0.23-1.5,0.28-2.29C339.7,318.73,336.54,313,331.53,310.66z M325.72,338.23c-1.19-0.06-2.33-0.29-3.42-0.7
	c-2.32-0.89-4.41-2.62-5.88-4.89c-3.07-4.75-3.15-11.25-0.18-16.17c1.38-2.31,3.41-4.16,5.7-5.2c0.87-0.4,1.8-0.68,2.77-0.84
	c-0.79,0.54-1.29,1.45-1.29,2.43c0,1.26,0.79,2.35,1.93,2.77c-1.81,0.3-3.48,1.29-4.68,2.77c-2.22,2.75-2.69,6.78-1.17,10.03
	c1.25,2.65,3.69,4.38,6.38,4.55c-1.01,0.49-1.68,1.51-1.68,2.67C324.2,336.74,324.79,337.71,325.72,338.23z M326.44,332.25
	c-0.12,0-0.24,0-0.37-0.01c-0.12,0-0.24-0.01-0.36-0.03c-0.11-0.01-0.23-0.03-0.35-0.05c-1.86-0.29-3.59-1.41-4.69-3.12
	c-1.2-1.87-1.59-4.21-1.17-6.4c0.01-0.02,0.01-0.04,0.01-0.06c0.04-0.24,0.1-0.48,0.17-0.71c0-0.01,0-0.01,0.01-0.02
	c0.05-0.2,0.12-0.4,0.19-0.6c0.05-0.16,0.12-0.32,0.19-0.48c0.07-0.17,0.15-0.33,0.24-0.5c0.1-0.19,0.21-0.38,0.32-0.56
	c0.14-0.22,0.28-0.43,0.43-0.63c0.01-0.01,0.01-0.02,0.02-0.02c1.24-1.61,3.02-2.63,4.91-2.78c0.13-0.01,0.26-0.02,0.4-0.02h0.03
	c0.01,0,0.01,0,0.02,0c0.7,0,1.37,0.11,2,0.32c0-0.01,0-0.01,0-0.02c0.73,0.24,1.39,0.6,1.96,1.06c0.1,0.06,0.19,0.14,0.28,0.23
	c0.15,0.13,0.29,0.26,0.43,0.39c1.48,1.47,2.41,3.62,2.41,6.02C333.52,328.67,330.35,332.25,326.44,332.25z M338.68,324.9
	c-0.33,5.89-3.87,11.01-8.81,12.73c-0.21,0.07-0.42,0.14-0.68,0.21v-0.04c0.6-0.56,0.94-1.34,0.94-2.15c0-0.91-0.41-1.75-1.14-2.32
	c-0.01-0.28-0.02-0.56-0.03-0.84c2.9-1.18,4.98-4.32,5.18-7.85c0.17-3.68-1.72-7.09-4.69-8.47c-0.33-0.16-0.68-0.28-1.04-0.38
	c0-0.27-0.01-0.53-0.02-0.79c0.6-0.55,0.96-1.33,0.96-2.14c0-0.88-0.4-1.68-1.07-2.25v-0.2c0.47,0.07,0.89,0.17,1.28,0.27
	c4.94,1.42,8.6,6.25,9.08,12.02C338.7,323.41,338.72,324.15,338.68,324.9z M391.23,412.23c-11.36-5.69-27.29-15.7-37.26-25.25
	c-4.56-4.36-8.92-9.15-13.33-14.64l-0.34-0.42c-2.08-2.58-4.23-5.25-5.98-8.11c-0.99-1.63-1.85-3.31-2.56-5.01l-0.06-0.14
	c-0.2-0.47-0.4-0.96-0.57-1.44v-0.06c0.01-0.04,0.02-0.08,0.02-0.13c0-0.57-0.17-1.13-0.49-1.62c0-0.02-0.01-0.05-0.01-0.07
	c-0.01-0.03-0.01-0.06-0.02-0.09c-0.03-0.21-0.07-0.42-0.1-0.64c-0.02-0.12-0.03-0.24-0.05-0.38l-0.03-0.26
	c-0.06-0.45-0.11-0.91-0.16-1.36c2.21-0.43,4.3-1.23,6.2-2.4c3.53-2.17,6.5-5.57,8.34-9.58c1.93-4.2,2.66-9.08,2.06-13.73
	c-0.58-4.52-2.36-8.68-5.14-12.01c-2.75-3.32-6.44-5.64-10.39-6.53c-0.98-0.22-2.01-0.36-3.05-0.42h-0.09
	c-0.04-1.52-0.05-2.43-0.05-2.49h-0.08v-0.03c2.37-0.75,4.02-2.99,4.02-5.48c0-2.54-1.7-4.79-4.14-5.5c0-1.03-0.01-2.06-0.01-3.09
	c1.5-0.69,2.47-2.18,2.47-3.83s-0.96-3.14-2.45-3.83v-0.94c0-0.66,0.01-1.33,0.01-1.99c0.75-0.56,1.19-1.44,1.19-2.36
	c0-0.91-0.41-1.75-1.13-2.32l0.01-0.88c0.01-0.53,0.02-1.06,0.02-1.59c0.11-0.02,0.21-0.05,0.31-0.11c2.57-1.36,4.58-3.87,6.31-7.88
	c0.33-0.77,0.62-1.56,0.9-2.33c0.23-0.63,0.47-1.28,0.73-1.91c0.01-0.03,0.03-0.07,0.05-0.11c0.02-0.05,0.04-0.09,0.04-0.11
	c0.05-0.1,0.1-0.2,0.15-0.3c0.1-0.21,0.21-0.42,0.32-0.63c0.21-0.39,0.45-0.8,0.77-1.31c0.44-0.72,0.9-1.45,1.35-2.15
	c0.91-1.4,1.84-2.86,2.65-4.35c1.74-3.19,3.13-6.57,4.11-10.07c0.58-2.05,0.67-4.05,0.27-6.13c-0.34-1.74-0.93-3.41-1.52-5.03
	c0.28-0.04,0.55-0.15,0.8-0.25l0.14-0.06c0.66-0.26,1.29-0.61,1.87-1.04c1.13-0.83,2.17-1.92,3.08-3.24
	c0.73-1.06,1.36-2.22,1.96-3.34l0.33-0.61c0.91-1.65,1.62-3.02,2.26-4.31c1.45-2.96,2.61-5.93,3.44-8.82
	c0.94-3.24,1.37-6.38,1.29-9.32c-0.05-1.91-0.3-3.82-0.54-5.68c-0.18-1.4-0.37-2.86-0.47-4.29c-0.13-1.93-0.1-3.48,0.12-4.89
	c0.24-1.59,0.79-3.1,1.39-4.63c0.57-1.45,1.11-3.04,1.27-4.79c0.15-1.68,0.01-3.35-0.16-5.04c-0.31-3.12-0.29-6.51,0.08-10.38
	c0.32-3.44,0.88-6.94,1.38-9.96c0.49-2.94,0.87-6.09,0.36-9.23c-0.08-0.49-0.21-0.97-0.4-1.45c0.12-0.15,0.25-0.32,0.36-0.49
	c0.15-0.27,0.2-0.58,0.25-0.88l0.02-0.1c0.11-0.62,0.19-1.25,0.23-1.87c0.06-1.03,0.02-2.16-0.13-3.46
	c-0.07-0.72-0.19-1.5-0.34-2.45c0.02-0.03,0.04-0.06,0.06-0.09c4.86-7.54,7.52-14.07,8.39-20.56c0.46-3.48,0.35-7.11-0.34-10.79
	c-0.49-2.61-1.23-5.33-2.27-8.3c1.67-3.45,2.72-6.62,3.23-9.69c0.52-3.21,0.49-6.57-0.09-9.98c-1.34-7.81-5.29-15-8.57-20.39
	c-3.1-5.08-7.36-11.61-12.98-17.17c-4.87-4.82-10.6-8.44-16.57-10.48l-0.05-0.17c-0.21-0.7-0.42-1.42-0.73-2.1
	c-0.33-0.73-0.75-1.48-1.28-2.28c-0.95-1.45-2.08-2.8-3.36-4.03c-2.42-2.33-5.41-4.26-8.88-5.74c-7.06-2.99-15.4-3.73-24.78-2.18
	c-3.2,0.53-5.63,1.01-7.89,1.57c-0.48,0.12-0.96,0.23-1.43,0.35c-1.03,0.25-2.1,0.5-3.14,0.78c-1.83-0.39-3.65-0.71-5.41-0.94
	c-5.7-0.72-11.34-0.47-16.77,0.75c-5.07,1.14-10.2,3.06-15.67,5.86c-0.69-0.04-1.38-0.01-2.06,0.02c-0.28,0.01-0.55,0.03-0.83,0.03
	c-0.98,0.03-1.97,0.09-2.94,0.14c-0.36,0.01-0.72,0.03-1.08,0.05l-1.43,0.07c-2.18,0.11-4.36,0.21-6.54,0.33l-9.11,0.49
	c-1.89,0.1-3.84,0.2-5.76,0.4c-3.57,0.38-8.12,1.16-11.69,3.88c-1.62,1.24-3,2.87-4.35,5.13c-0.94,1.57-1.81,3.22-2.64,4.82
	c-0.31,0.59-0.62,1.18-0.94,1.76c-0.4,0.75-0.8,1.49-1.21,2.23c-0.86,1.57-1.75,3.2-2.54,4.83c-0.95,1.95-1.61,4.2-2.02,6.87
	c-0.07,0.48-0.14,0.96-0.18,1.44c-0.57,0.47-1.09,0.93-1.58,1.4c-1.37,1.3-2.66,2.73-3.91,4.1l-0.61,0.67
	c-2.05,0.84-4.73,1.98-7.31,3.45c-3.77,2.14-6.95,4.85-9.45,8.06c-2.46,3.16-4.31,6.7-5.51,10.54c-1.29,4.16-1.7,8.12-1.23,11.77
	c0.08,0.61,0.17,1.18,0.28,1.72c-0.26,0.4-0.5,0.8-0.73,1.19c-1.75,3.02-2.87,6.24-3.32,9.56c-0.3,2.2-0.24,4.44-0.17,6.61
	c0.05,1.56,0.1,3.17,0.01,4.76c-0.05,0.72-0.12,1.43-0.23,2.1c-1.31,1.76-2.28,3.57-2.87,5.39c-0.66,2.02-0.79,4.16-0.92,6.23
	c-0.02,0.37-0.05,0.74-0.07,1.11c-0.18,2.5-0.78,4.96-1.37,7.35c-0.6,2.44-1.22,4.96-1.38,7.53c-0.27,4.25,0.69,8.81,3.04,14.35
	c0.86,2.01,1.84,4.02,3,6.13c-0.47,2.54-0.71,5.25-0.7,8.06c0,3.72,0.37,7.36,0.78,10.74c0.06,0.49,0.11,0.98,0.17,1.47
	c0.35,2.97,0.71,6.05,1.4,8.98c0.33,1.4,0.85,2.7,1.53,3.88c-0.35,3.42-0.65,7.17-0.92,11.79c-0.03,0.51-0.06,1.02-0.09,1.54
	c-0.11,1.51-0.21,3.07-0.2,4.61c0.01,4.5,0.8,9.4,2.49,15.41c0.59,2.1,1.29,4.26,2.08,6.42c0.08,0.23,0.16,0.44,0.24,0.64
	c0.35,0.92,0.61,1.58,0.56,2.63c-0.1,1.93-0.46,3.88-0.81,5.76c-0.07,0.36-0.13,0.71-0.2,1.07c-0.14,0.76-0.27,1.52-0.41,2.28
	c-1.05,5.69-2.12,11.57-2.39,17.44c-0.16,3.44,0.14,6.63,0.91,9.74c1,4.01,2.22,7.87,3.62,11.48c2.44,6.3,5.58,12.21,9.33,17.59
	c2.66,3.8,5.89,7.75,10.19,12.41c0.69,0.75,1.39,1.5,2.09,2.25c2.32,2.47,4.71,5.02,6.81,7.75c1.29,1.69,2.31,3.27,3.13,4.85
	c1.4,2.7,2.29,5.74,3.07,8.42c0.2,0.72,0.41,1.45,0.62,2.18c1.69,6.03,3.45,12.26,8.14,16.5c2.73,2.47,6.28,4.25,10.55,5.3
	c-0.03,0.8,0.02,1.62,0.06,2.42c0.02,0.3,0.04,0.6,0.05,0.9v0.12c0.06,1.35,0.12,2.74,0.16,4.11c0.01,0.4,0.02,0.8,0.03,1.2
	c-2.62,2.41-5.79,5.18-9.48,7.43c-3.28,2-6.88,3.74-11.02,5.31c-5.02,1.91-10.27,3.35-15.34,4.75c-3.07,0.84-6.25,1.71-9.34,2.68
	c-8.29,2.59-16.29,5.91-23.77,9.85c-7.28,3.84-14.21,8.39-20.58,13.51c-3.1,2.5-6.13,5.19-8.99,7.99c-2.62,2.56-5.62,5.65-8.11,9.19
	c-0.55,0.79-0.99,1.48-1.46,2.53c-0.02,0.06,0,0.13,0.05,0.16c0.02,0.01,0.05,0.02,0.07,0.02c0.04,0,0.07-0.02,0.1-0.05
	c12.59-16.54,28.51-25.25,36.16-29.43c0.52-0.29,1.01-0.56,1.46-0.81c7.26-4.02,15.11-7.45,23.34-10.21
	c3.37-1.13,6.84-2.13,10.19-3.1c4.79-1.39,9.75-2.83,14.5-4.65c8.77-3.36,15.65-7.55,21.02-12.82c0.41-0.4,0.81-0.82,1.22-1.29
	c0.03,2.22,0,4.22-0.1,6.1c-0.29,5.61-1.23,10.46-2.87,14.83c-0.93,2.47-2.15,4.99-3.64,7.48c-0.14,0.23-0.03,0.47,0.14,0.59
	c0.19,0.14,0.42,0.11,0.56-0.06c2.83-3.47,4.82-7.96,6.07-13.71c1.04-4.79,1.43-10,1.24-16.4c-0.05-1.7-0.13-3.26-0.23-4.78
	c-0.03-0.31-0.04-0.61-0.06-0.92c-0.06-0.88-0.11-1.79-0.24-2.67c3.18,0.65,6.67,0.91,10.37,0.77c4.3-0.17,8.49-0.78,12.48-1.82
	c4.62-1.2,9.12-3.2,12.98-4.98c5.65-2.62,10.85-6.1,14.74-8.84c5.75-4.06,11.41-8.6,16.83-13.49c6.02-5.42,11.04-10.61,15.35-15.85
	c4.53-5.51,8.12-11.18,10.96-17.33c3.31-7.15,5.68-14.69,7.04-22.42c0.92-5.21,1.29-10.42,1.6-15.75c0.32,0.84,0.82,1.6,1.45,2.18
	c1.15,1.07,2.88,1.45,4.51,0.99c0.44-0.12,0.86-0.31,1.25-0.57c-0.07,0.47-0.13,0.96-0.2,1.49c-0.4-0.19-0.83-0.29-1.25-0.29
	c-1.64,0-2.97,1.33-2.97,2.97c0,1.63,1.33,2.96,2.97,2.96c0.24,0,0.49-0.03,0.76-0.11c-0.06,0.91-0.11,1.76-0.15,2.6
	c-0.22-0.05-0.42-0.08-0.61-0.08c-1.64,0-2.97,1.33-2.97,2.97c0,1.63,1.33,2.96,2.97,2.96c0.12,0,0.25-0.01,0.39-0.03l-0.01,0.22
	c-0.01,0.34-0.01,0.68-0.02,1.02c-0.01,0.26-0.01,0.51-0.02,0.76c-0.11-0.01-0.22-0.03-0.34-0.03c-2.33,0-4.22,1.89-4.22,4.22
	c0,2.32,1.89,4.21,4.22,4.21c0.05,0,0.11-0.01,0.16-0.01c-0.01,0.51-0.01,1.02-0.01,1.53c0,0.32,0,0.64-0.01,0.95
	c-3.16,0.01-5.73,2.58-5.73,5.74c0,3.1,2.47,5.62,5.54,5.73c0.01,0.36,0.02,1.15,0.05,2.31c-3.46,0.24-6.79,1.46-9.65,3.53
	c-3.43,2.49-6.09,6.03-7.69,10.22c-1.66,4.34-2.08,9.26-1.18,13.87c0.86,4.39,2.96,8.49,5.91,11.54c2.99,3.09,6.85,5.1,10.89,5.65
	c1.16,0.16,2.39,0.18,3.66,0.09c0.04,0.43,0.09,0.82,0.13,1.2c-0.03-0.01-0.07-0.01-0.11-0.01c-1.63,0-2.96,1.33-2.96,2.96
	c0,1.64,1.33,2.97,2.96,2.97c0.58,0,1.14-0.18,1.63-0.5c0.11,0.26,0.23,0.52,0.34,0.79c1.63,3.76,3.95,7.01,5.78,9.42
	c4.51,5.93,8.82,10.99,13.19,15.47c8.93,9.17,32.49,24.47,42.01,27.28c0.07,0.01,0.13-0.01,0.16-0.07
	C391.31,412.33,391.28,412.26,391.23,412.23z M343.25,244.24l-0.07,0.19c-0.59,1.67-1.28,3.32-2.05,4.89
	c-1.26,2.55-2.8,5.01-4.16,7.12l-0.06,0.1c-0.54,0.84-1.1,1.71-1.59,2.6c-0.49,0.9-0.86,1.82-1.25,2.92
	c-1.05,2.95-2.38,6.29-4.79,8.56c-0.06,0.06-0.13,0.12-0.19,0.17c0.06-0.24,0.09-0.48,0.09-0.73c0-0.84-0.36-1.63-0.99-2.2v-0.17
	c0.01-0.72,0.02-1.47,0.01-2.2c0.68-0.6,1.26-1.41,1.72-2.42c0.7-1.54,0.95-3.19,1.12-4.74l0.06-0.66c0.11-1.03,0.22-2.1,0.39-3.15
	c0.22-1.43,0.47-2.86,0.74-4.25c0.2-1,0.37-1.83,0.56-2.61c0.83-0.65,1.83-1.59,2.15-3.09c0.18-0.81,0.12-1.63-0.17-2.64
	c-0.08-0.28-0.17-0.58-0.31-0.97l-0.23-0.64c-0.5-1.41-1.02-2.87-1.48-4.32c-0.2-0.63-0.39-1.27-0.58-1.9l-0.42-1.37
	c-0.15-0.5-0.31-1-0.48-1.52c-0.77-2.28-1.57-4.65-2.96-6.65c-0.12-0.18-0.24-0.35-0.38-0.52c-0.18-0.23-0.37-0.46-0.56-0.67
	c-1.14-1.25-2.47-2.36-3.75-3.43c-0.96-0.8-1.95-1.63-2.85-2.51c-3.18-3.1-6.02-6.63-8.76-10.05c-1.01-1.25-2.04-2.54-3.08-3.79
	c-3.81-4.6-7.75-9.12-11.71-13.45c-8.03-8.78-16.52-17.17-25.23-24.93c-9.45-8.42-18.5-15.65-27.65-22.09
	c-5.44-3.83-10.37-7.16-15.07-10.18c-6.2-3.99-11.21-6.55-16.26-8.31c-0.73-0.25-1.53-0.49-2.49-0.75c1.88-1.01,3.8-1.98,5.69-2.89
	c6.9-3.3,14.11-6,21.45-8.04c1.51-0.42,3.05-0.82,4.6-1.19c1.67,0.54,3.33,1.09,4.87,1.61c1.8,0.6,3.66,1.09,5.46,1.56
	c0.62,0.17,1.25,0.33,1.88,0.5l1.7,0.46c2.57,0.69,5.22,1.41,7.82,2.15c0.91,0.83,1.93,1.52,2.93,2.19
	c0.27,0.19,0.54,0.37,0.81,0.56c1.52,1.04,3.04,2.04,4.46,2.97c2.94,1.9,5.87,3.92,8.71,5.87l0.4,0.27
	c3.25,2.23,5.83,4.21,8.13,6.23c2.28,2.01,4.36,4.27,6.37,6.46l0.81,0.88c0.97,1.06,1.95,2.11,2.92,3.16
	c3.2,3.44,6.51,7.01,9.63,10.62c2.22,2.57,4.54,5.39,6.45,8.53c1.43,2.36,2.52,4.92,3.57,7.4l0.24,0.57
	c0.06,0.14,0.13,0.29,0.19,0.44c0.05,0.1,0.09,0.2,0.13,0.28c0.84,3.03,1.93,6.24,3.51,10.42c0.81,2.13,1.5,3.86,2.17,5.45
	c0.14,0.34,0.29,0.68,0.43,1.02c0.61,1.47,1.24,2.98,1.97,4.41c1.45,2.79,3.03,5.39,4.71,7.72c0.17,0.24,0.35,0.49,0.53,0.73
	c0.37,0.49,0.72,0.95,1.07,1.38c0.47,0.59,0.97,1.17,1.46,1.73c0.81,0.92,1.64,1.87,2.33,2.9c0.08,0.11,0.15,0.22,0.22,0.33
	c0.17,0.28,0.34,0.57,0.49,0.87c0.61,1.19,1.05,2.52,1.34,4.06c0.32,1.72,0.45,3.5,0.58,5.22c0.15,2.09,0.31,4.25,0.81,6.33
	c0.35,1.43,0.86,2.85,1.36,4.23c0.87,2.39,1.77,4.87,1.79,7.44C344.53,240.61,343.88,242.46,343.25,244.24z M333.13,246.27
	c0.05-0.16,0.09-0.33,0.14-0.49c0.2-0.69,0.45-1.39,0.8-2.22c0,0.13-0.01,0.25-0.02,0.37C333.98,244.63,333.68,245.39,333.13,246.27
	z M326.6,236.9c-0.2-1.01-0.68-1.93-1.18-2.78c-0.11-0.18-0.22-0.37-0.33-0.56c-0.43-0.71-0.87-1.44-1.15-2.23
	c-0.11-0.32-0.21-0.65-0.3-0.99c1.04-0.58,2.01-1.52,2.98-2.86c0.25-0.36,0.5-0.73,0.76-1.15c0.08,0.12,0.16,0.24,0.24,0.37
	c0.81,1.25,1.38,2.62,1.88,3.91c0.29,0.74,0.58,1.48,0.88,2.22c0.25,0.64,0.51,1.28,0.76,1.93c-0.04,0.2-0.08,0.41-0.13,0.62
	c-0.13,0.63-0.31,1.26-0.48,1.87c-0.1,0.35-0.19,0.69-0.28,1.03c-0.37,1.43-0.75,2.91-1.3,4.32c-0.39,1.01-0.89,2.05-1.57,3.28
	l-0.01,0.02c-0.58,1.05-1.23,2.22-2.19,2.92c-1.04,0.75-2.06-0.1-2.84-0.96c0.46-0.86,1.01-1.71,1.55-2.53
	c1.04-1.6,2.12-3.26,2.6-5.15C326.77,239.1,326.81,237.97,326.6,236.9z M323.45,229.53c-0.08-0.38-0.16-0.77-0.22-1.17
	c-0.32-2.08-0.45-4.19-0.38-6.29l0.33,0.26c1.28,1,2.6,2.04,3.65,3.29c-0.13,0.22-0.27,0.44-0.41,0.65
	C325.73,227.34,324.76,228.66,323.45,229.53z M361.26,148.23c-0.18,1.33-0.39,2.68-0.6,3.99c-0.28,1.85-0.58,3.76-0.8,5.65
	c-0.44,3.81-0.62,7.01-0.08,10.23c0.5,2.97,1.12,6.67,0.2,9.93c-0.24,0.88-0.59,1.76-0.92,2.6c-0.24,0.62-0.49,1.26-0.7,1.9
	c-0.47,1.43-0.75,3-0.82,4.67c-0.1,2.38,0.19,4.77,0.47,7.08c0.11,0.86,0.21,1.74,0.3,2.61c0.34,3.45,0.21,6.5-0.41,9.33
	c-0.63,2.83-1.68,5.76-3.13,8.72c-1.3,2.66-2.73,5.21-4.47,8.21c-0.12,0.21-0.24,0.42-0.36,0.63c-0.57,1-1.15,2.02-1.9,2.92
	c-1.02,1.21-2.03,2.15-3.07,2.88c-0.18,0.13-0.38,0.24-0.56,0.35l-0.21,0.13c-0.02,0.01-0.05,0.03-0.07,0.05
	c-0.58-1.63-1.2-3.56-1.5-5.62c-0.2-1.32-0.3-2.67-0.39-3.97c-0.05-0.64-0.1-1.27-0.16-1.91c-0.17-1.86-0.41-3.85-1.06-5.76
	c-0.36-1.09-0.86-2.12-1.54-3.16c-0.17-0.27-0.35-0.54-0.53-0.79c-0.29-0.39-0.6-0.79-0.93-1.17c-0.44-0.53-0.89-1.04-1.33-1.55
	c-0.73-0.83-1.47-1.69-2.17-2.56c-0.16-0.2-0.32-0.41-0.48-0.62l-0.09-0.13c-1.11-1.47-2.18-3.06-3.2-4.72
	c-2.33-3.83-4.14-7.29-5.53-10.58c-1.42-3.35-2.71-6.83-3.95-10.19l-0.4-1.09c-0.32-0.84-0.58-1.55-0.86-2.25l-0.11-0.35
	c-0.13-0.42-0.26-0.84-0.41-1.26c-0.3-0.79-0.62-1.55-0.87-2.13c-0.61-1.41-1.24-2.69-1.91-3.89c-1.75-3.11-3.97-5.96-5.91-8.37
	c-2.99-3.74-6.18-7.42-9.26-10.98c-0.67-0.76-1.33-1.53-1.99-2.3l-1.5-1.74c-1.84-2.17-3.76-4.42-5.84-6.43
	c-2.18-2.1-4.61-4.19-7.65-6.57c-3.18-2.5-6.14-4.64-9.07-6.55c-1.55-1.01-3.11-1.98-4.64-2.89c-0.54-0.32-1.12-0.66-1.71-1
	c1.37,0.42,2.78,0.8,4.15,1.17c0.91,0.24,1.86,0.49,2.78,0.76c2.09,0.6,4.54,1.31,6.94,2.11c4.11,1.36,8.26,3.15,13.05,5.62
	c4.38,2.26,8.5,4.13,12.59,5.72c0.93,0.36,1.87,0.71,2.8,1.07c3.09,1.17,6.28,2.39,9.33,3.8c4.59,2.13,8.23,4.36,11.15,6.83
	c3.26,2.75,6.12,5.8,9.42,9.53l0.95,1.06c2.67,3.02,5.44,6.14,7.64,9.59c1.22,1.93,2.25,3.98,3.06,6.09
	c0.74,1.95,1.17,4.15,1.31,6.72c0.06,1.19,0.01,2.35-0.16,3.46c-0.02,0.11,0.05,0.21,0.16,0.23c0.1,0.02,0.19-0.04,0.21-0.14
	c2.16-9.32-3.66-17.55-9.27-24.54c-3.36-4.18-6.22-7.47-9-10.35c-3.54-3.68-7.02-6.44-10.64-8.44c-4.34-2.39-9.04-4.19-13.58-5.92
	c-3.7-1.41-7.53-2.87-11.14-4.65c-1.13-0.56-2.27-1.14-3.38-1.7c-3.17-1.62-6.45-3.28-9.84-4.59c-4.55-1.75-9.25-3.08-14.06-4.4
	c-1.24-0.34-2.48-0.68-3.72-1.02c-0.64-0.17-1.3-0.32-1.93-0.46c-0.6-0.14-1.23-0.28-1.83-0.44c-2.7-0.72-5.1-1.36-7.36-1.95
	l-1.6-0.42c-4.22-1.11-8.57-2.25-12.95-3.01c6.25-1.39,12.75-2.35,19.32-2.86c10.3-0.79,20.42-0.5,30.07,0.87
	c11.03,1.57,22.47,4.5,33.99,8.72c6.76,2.47,12.35,4.7,17.69,7.52c6.37,3.37,10.79,6.91,13.9,11.15c0.97,1.31,1.7,2.62,2.17,3.89
	c0.02,0.35,0.05,0.69,0.08,1.04c0.07,0.75,0.14,1.53,0.14,2.3C361.6,145.48,361.43,146.97,361.26,148.23z M369.97,107.2
	c-0.33,6.17-2.54,12.55-6.97,20.06c-0.12,0.21-0.25,0.42-0.38,0.63c-0.11-0.63-0.22-1.28-0.32-1.93c-0.18-1.14-0.27-2.13-0.28-3.02
	c-0.01-0.47,0.02-0.96,0.04-1.42c0.04-0.77,0.08-1.57-0.01-2.35c-0.23-2.01-1.31-3.67-2.35-5.27l-0.1-0.15
	c-0.01-0.28-0.02-0.56-0.02-0.84c-0.02-0.65-0.04-1.33-0.1-1.98c-0.11-1.34-0.25-2.92-0.5-4.48c-0.54-3.39-1.66-6.61-3.33-9.58
	c-1.76-3.13-3.97-6.02-6.58-8.6c-1.36-3.43-3.23-6.64-5.55-9.54c0.01-0.03,0.01-0.06,0.01-0.09c0.06-2.53-0.57-5.11-1.98-8.11
	c-1.16-2.47-2.42-4.92-3.76-7.3c-2.67-4.77-5.71-9.37-9.04-13.7c-1.13-1.46-2.38-2.99-3.88-4.7c0.36,0.19,0.73,0.38,1.08,0.56
	c0.3,0.15,0.6,0.3,0.9,0.46c0.34,0.18,0.68,0.37,1.02,0.55c0.38,0.21,0.76,0.42,1.14,0.62c0.48,0.26,0.95,0.51,1.43,0.76
	c1.01,0.52,2.04,1.07,3.05,1.62c3.4,1.87,6.15,3.54,8.64,5.26c5.9,4.06,10.54,8.75,13.82,13.94c3.95,6.27,7.2,12.5,9.66,18.53
	C367.84,92.6,370.36,99.83,369.97,107.2z M285.34,42.13c-0.65-0.52-1.32-1.07-2.01-1.58l-0.49-0.35c-1.03-0.76-2.09-1.54-3.2-2.23
	c-1.34-0.84-2.58-1.57-3.79-2.24c-5.5-3.05-10.94-5.29-16.16-6.66c-4.2-1.11-8.36-1.67-12.36-1.68c1.1-0.29,2.22-0.55,3.31-0.8
	c0.45-0.1,0.9-0.2,1.35-0.31c3.26-0.76,6.58-1.35,9.88-1.73c6.63-0.78,12.93-0.55,18.72,0.69c6.17,1.32,11.59,3.66,16.11,6.98
	c5.09,3.74,8.95,8.92,12.05,13.5c1.11,1.65,2.23,3.34,3.3,4.97c0.71,1.08,1.43,2.17,2.15,3.24c0.77,1.18,1.56,2.34,2.34,3.51
	c1.16,1.74,2.33,3.48,3.48,5.23c-1.28-0.77-2.59-1.6-3.99-2.51c-1.58-1.03-3.17-2.09-4.7-3.13c-4.67-3.14-9.5-6.38-14.64-8.9
	c-2.44-1.19-4.94-2.18-7.44-2.92c-0.66-0.54-1.34-1.06-2-1.57l-0.52-0.4C286.26,42.88,285.79,42.5,285.34,42.13z M286.55,44.49
	c-3.23-0.74-6.52-1.12-9.8-1.12c-0.96,0-1.92,0.03-2.88,0.1c-1.24,0.08-2.52,0.21-3.82,0.38c-0.32-0.12-0.64-0.24-0.96-0.36
	c-1.36-0.51-2.77-1.04-4.18-1.46c-2.49-0.74-5.01-1.34-6.92-1.78c-5.01-1.15-9.48-1.91-13.67-2.31c-9.63-0.92-19.25,0.06-28.59,2.91
	c-1.29,0.39-2.61,0.83-3.99,1.31c1.22-0.62,2.52-1.32,4.19-2.23l1.21-0.66c2.25-1.23,4.57-2.49,6.88-3.68
	c6.53-3.37,11.71-5.23,16.8-6.03c5.22-0.83,10.78-0.58,16.51,0.74c5.12,1.18,10.45,3.22,15.82,6.07c2.59,1.38,5.1,2.91,7.53,4.39
	l0.42,0.26c1.07,0.65,2.18,1.32,3.25,2.01C285.13,43.53,285.85,44.01,286.55,44.49z M318.9,57.94c-2.43-3.8-4.93-7.73-7.47-11.55
	c-3.19-4.78-7.01-10.23-12.05-14.36c-4.4-3.61-9.84-6.3-15.75-7.84l2.94,0.25c0.11,0.01,0.21,0.02,0.32,0.05
	c1.01,0.2,2.08,0.21,3.1,0.41c1.5,0.29,2.82,0.57,4.06,0.85c2.92,0.68,5.49,1.43,7.84,2.3c2.64,0.97,5.07,2.19,7.23,3.61
	c2.12,1.39,4.21,3.09,6.39,5.18c4.24,4.08,7.75,7.99,10.74,11.97c3.75,4.98,6.61,9.22,9,13.34c1.34,2.3,2.61,4.67,3.78,7.04
	l0.03,0.08c1.15,2.34,2.34,4.75,2.7,7.38c0,0.02,0,0.03,0.01,0.04c-1.57-1.69-3.3-3.26-5.15-4.65c-2.86-2.16-6.09-3.78-9.21-5.35
	c-0.49-0.24-0.99-0.49-1.48-0.74c-0.95-0.49-1.95-1.02-2.96-1.58c-0.02-0.08-0.06-0.16-0.11-0.24
	C321.53,62.07,320.22,60.01,318.9,57.94z M347.33,32.83c4.48,4.1,8.64,9.28,13.1,16.32c3.79,5.98,7.54,12.52,9.37,19.77
	c0.81,3.22,1.11,6.39,0.91,9.43c-0.21,3.17-0.93,6.35-2.21,9.72c-0.09,0.26-0.19,0.51-0.29,0.77c-1.9-5-4.29-10.01-7.3-15.29
	c0.04-0.07,0.07-0.15,0.09-0.24c1.49-9.64-0.96-19.33-6.72-26.56c-3.25-4.07-7.54-6.8-12.4-9.69c-5.04-2.99-10.37-5.99-15.84-8.91
	l-1.84-0.97c-2.6-1.39-5.29-2.83-7.96-4.21c1.28-0.01,2.58-0.12,3.83-0.24l0.42-0.03c1.37-0.13,3-0.24,4.64-0.14
	c1.64,0.09,3.29,0.33,4.92,0.71C336.02,24.64,341.99,27.95,347.33,32.83z M284.52,9.72c0.5-0.1,1-0.21,1.5-0.31
	c2.47-0.51,4.72-0.92,6.87-1.25c4.93-0.74,9.56-0.97,13.77-0.68c5.48,0.38,13.33,1.97,19.6,7.34c1.48,1.27,2.74,2.62,3.74,4.02
	c0.48,0.68,0.96,1.43,1.49,2.37l0.25,0.44c0.18,0.32,0.37,0.65,0.55,0.98c-2.85-0.82-5.61-1.24-8.23-1.24
	c-0.27,0-0.53,0.01-0.79,0.01c-1.18,0.04-2.37,0.17-3.52,0.3c-1.81,0.2-3.67,0.4-5.5,0.26c-1.54-0.79-2.96-1.49-4.34-2.15
	c-5.92-2.84-10.94-5.12-16.18-7.07c-3.33-1.24-6.44-2.21-9.48-2.96L284.52,9.72z M256.76,12.07c5.35-1.59,10.73-2.26,16.04-2
	c5.03,0.26,10.37,1.32,16.31,3.25c8.64,2.81,16.97,6.9,25.02,10.84c2.13,1.05,4.33,2.12,6.49,3.16c5.27,2.51,10.47,5.32,15.78,8.21
	c0.68,0.37,1.36,0.73,2.05,1.1c4.2,2.25,8.55,4.58,12.06,7.83c6.46,5.98,10.09,15.37,9.72,25.13c-0.03,0.81-0.1,1.64-0.19,2.46
	c-0.44-0.75-0.89-1.51-1.35-2.25c-1.44-2.36-3.42-5.42-5.95-8.19c-2.17-2.37-4.71-4.64-7.58-6.74c-5.3-3.9-11.4-7.15-18.11-9.66
	c-0.24-0.09-0.48-0.19-0.72-0.28c-0.49-0.19-1.47-0.59-2.05-0.78c-0.25-0.29-0.51-0.58-0.77-0.88c-2.02-2.26-3.88-4.2-5.7-5.94
	c-2.37-2.27-4.39-4-6.37-5.43c-2.22-1.6-4.65-2.97-7.25-4.05c-2.32-0.97-4.92-1.78-7.94-2.48c-3.14-0.72-5.72-1.2-8.1-1.49
	c-0.38-0.05-0.76-0.09-1.14-0.13c-0.25-0.02-4.45-0.15-6.28-0.22c-5.11-0.99-10.64-1.21-16.47-0.65c-3.18,0.3-6.51,0.87-10.2,1.71
	c-2.48,0.58-5.13,1.34-8.33,2.4c-0.89-0.08-1.79-0.16-2.68-0.25c-3.56-0.35-7.24-0.69-10.89-0.68c-1.49,0-2.88,0.08-4.23,0.21
	c0.41-0.21,0.82-0.42,1.23-0.62c0.79-0.4,1.62-0.81,2.39-1.26c1.22-0.72,2.41-1.42,3.54-2.06l1.07-0.61
	c1.94-1.12,3.96-2.27,5.96-3.36C247.45,15.47,252.23,13.41,256.76,12.07z M192.1,41.06c0.37-0.97,0.87-1.91,1.36-2.81l2.1-3.98
	c0.35-0.67,0.71-1.34,1.06-2.01c0.8-1.52,1.62-3.1,2.46-4.63c1.04-1.91,2.23-3.89,3.89-5.44c2.49-2.31,5.97-3.69,10.96-4.34
	c2.07-0.27,4.19-0.4,6.24-0.52l7.89-0.47c2.95-0.18,5.89-0.37,8.84-0.56c0.46-0.03,0.92-0.05,1.39-0.08
	c0.99-0.06,2.02-0.13,3.02-0.21c0.31-0.02,0.61-0.04,0.92-0.06c0.22-0.01,0.44-0.03,0.67-0.04c-3.71,1.99-7.6,4.39-12.19,7.51
	c-0.72,0.5-1.41,1.06-2.08,1.6c-0.33,0.27-1.37,1.1-1.75,1.4c-0.55,0.07-1.1,0.14-1.63,0.23c-2.21,0.4-4.44,1.1-6.64,2.08
	c-3.66,1.63-7.08,3.85-10.38,6.01c-0.64,0.41-1.28,0.83-1.92,1.24c-0.97,0.62-1.93,1.24-2.9,1.85c-3.17,2.03-6.46,4.13-9.62,6.3
	c-1.18,0.81-2.14,1.51-3.01,2.17C191.1,44.24,191.52,42.57,192.1,41.06z M190.24,48.4c0.03-0.02,0.06-0.04,0.08-0.06
	c0.95-0.71,1.91-1.39,2.86-2.02c2.79-1.87,5.7-3.69,8.5-5.44c1.3-0.81,2.59-1.62,3.88-2.44c0.86-0.54,1.72-1.1,2.58-1.65
	c3.09-2,6.29-4.06,9.62-5.73c2.19-1.09,4.24-1.86,6.27-2.34c2-0.48,4.14-0.75,6.55-0.83c2.95-0.1,5.89,0.09,8.46,0.32
	c-4.26,0.87-8.69,2.47-13.5,4.87c-5.98,2.98-11.93,6.66-16.71,9.61c-0.27,0.16-0.53,0.33-0.79,0.49l-0.19,0.13
	c-0.26,0.16-0.46,0.35-0.66,0.54c-3.22,1.26-6.45,2.63-9.58,3.96c-2.93,1.25-5.96,2.54-8.98,3.73c-0.61,0.24-1.23,0.48-1.84,0.72
	c-0.71,0.27-1.41,0.55-2.11,0.83C186.46,51.42,188.33,49.84,190.24,48.4z M161.74,78.73c0.87-3.77,2.41-7.33,4.57-10.57
	c2.18-3.27,5.02-6.12,8.23-8.23c3.96-2.62,8.43-4.35,12.37-5.88c3.38-1.31,6.78-2.75,10.07-4.13c5.31-2.24,10.79-4.55,16.34-6.41
	c4.92-1.65,9.45-2.75,13.83-3.35c4.62-0.63,9.35-0.81,14.07-0.54c4.18,0.24,8.53,0.84,13.3,1.83c2.28,0.48,4.55,1.03,6.74,1.57
	c1.86,0.45,3.78,0.88,5.85,1.3c-6.86,1.26-13.52,3.61-18.58,5.53c-3.77,1.43-7.58,2.93-11.27,4.39c-4.44,1.75-9.04,3.56-13.59,5.26
	c-9.69,3.61-17.81,6.32-25.55,8.51l-1.71,0.49c-7.23,2.04-14.7,4.15-21.49,7.68c-5.86,3.04-10.7,7.06-14.02,11.64
	C160.82,84.54,161.1,81.48,161.74,78.73z M156.53,107.05c-0.04-3.53,0.03-7.27,1.33-10.9c0.67-1.87,1.59-3.72,2.73-5.51
	c0.01,0,0.01,0,0.01,0c0.11,0,0.22-0.04,0.29-0.1c0.09-0.08,0.14-0.19,0.13-0.32l-0.02-0.2c2.48-3.67,5.95-7.06,10.03-9.8
	c6.79-4.57,14.88-7.13,21.93-9.17l1.45-0.42c7.57-2.18,15.4-4.44,22.97-7.08c8.19-2.85,16.07-5.87,24.78-9.25l0.85-0.33
	c7.61-2.95,15.48-6,23.61-7.62c8.76-1.74,16.85-1.32,24.05,1.25c6.92,2.47,13.11,6.62,19.1,10.62l0.67,0.45
	c2.82,1.89,5.73,3.83,8.68,5.61c2.53,1.52,5.18,2.86,7.76,4.16c0.91,0.46,1.83,0.93,2.74,1.4c3.03,1.56,6.54,3.54,9.61,6.35
	c0.97,0.89,1.92,1.86,2.8,2.86c0.04,0.07,0.09,0.13,0.14,0.17c1.44,1.66,2.74,3.47,3.89,5.39c0.36,0.6,0.7,1.21,1.02,1.82
	c-3.07-2.65-6.58-4.9-10.45-6.69c-8.15-3.75-17.14-5.67-25.64-7.18c-10.79-1.91-21.3-2.88-31.24-2.88h-0.03
	c-10.77,0-21.35,1.04-31.46,3.09c-10.28,2.09-20.35,5.27-30.63,8.63L216,81.93c-17.45,5.69-35.49,11.57-50.59,22.5
	c-2.99,2.16-6.38,4.73-9.06,7.94C156.56,110.66,156.56,108.94,156.53,107.05z M157.05,185.65c-0.04-0.32-0.08-0.64-0.13-0.95
	c-0.45-3.38-0.9-6.98-1.02-10.55c-0.2-5.88-0.01-13.48,3.24-20.1c2.16-4.42,5.55-8.05,8.83-11.56c1.18-1.27,2.4-2.59,3.55-3.91
	c2.1-2.44,4.01-5.16,5.83-8.34l0.19-0.33c1.62-2.83,3.29-5.75,5.73-8.02c3.24-3.03,7.33-4.95,11.28-6.82
	c1.86-0.87,3.79-1.78,5.59-2.78c3.2-1.79,6.28-3.89,9.26-5.92c3.01-2.06,6.13-4.18,9.37-5.98c6.52-3.62,13.65-6.14,20.98-8.6
	c5.96-2.01,13.83-4.57,21.87-6.62c12.47-3.18,28.87-6.46,45.07-3.57c2.07,0.37,3.77,0.74,5.36,1.15c0.15,0.04,0.3-0.05,0.34-0.2
	c0.05-0.16-0.04-0.31-0.19-0.35c-13.49-3.93-28.82-4.07-45.57-0.39c-6.68,1.47-13.87,3.48-22.62,6.33
	c-7.22,2.35-14.68,4.78-21.7,8.07c-3.29,1.54-6.54,3.38-9.94,5.6c-1.37,0.9-2.75,1.84-4.08,2.75c-1.74,1.19-3.54,2.41-5.34,3.57
	c-2.69,1.71-5.66,3.33-9.34,5.08l-0.32,0.16c-2.85,1.35-5.79,2.75-8.43,4.59c-2.79,1.93-5.06,4.31-6.93,7.26
	c-0.78,1.22-1.49,2.51-2.19,3.75c-0.99,1.76-2,3.58-3.2,5.25c-1.83,2.55-4,4.9-6.09,7.17c-2.43,2.63-4.94,5.36-6.95,8.42
	c-1.88,2.86-3.27,6.14-4.15,9.76l-0.35-0.8c-1.5-3.46-3.06-7.03-3.9-10.77c-0.58-2.6-0.76-5.12-0.54-7.5
	c0.2-2.13,0.74-4.24,1.27-6.28c0.09-0.37,0.19-0.75,0.28-1.12c0.65-2.58,1.06-4.9,1.24-7.1l0.04-0.57c0.18-2.19,0.36-4.45,1.15-6.56
	c1.58-4.21,5.14-7.49,8.07-9.88c13.91-11.34,30.65-17.38,49.5-23.57l1.82-0.59c8.85-2.91,18-5.92,27.19-8.24
	c9.59-2.42,19.58-3.93,30.56-4.62c9.78-0.62,20.12-0.3,30.73,0.94c8.19,0.96,17.79,2.35,26.99,5.4c7.88,2.61,14.29,6.31,19.03,10.96
	l0.07,0.16c0.07,0.17,0.21,0.28,0.4,0.3c0.55,0.56,1.08,1.14,1.59,1.73c3.14,3.64,5.25,7.14,6.46,10.7
	c1.03,3.05,1.41,6.25,1.69,9.02c0.04,0.44,0.1,0.88,0.17,1.3c-0.04-0.05-0.07-0.11-0.11-0.17c-0.88-1.51-1.7-3.1-2.49-4.62
	c-0.34-0.65-0.68-1.3-1.02-1.95c-0.67-1.27-1.3-2.32-1.93-3.23c-0.72-1.05-1.44-2.07-2.24-3.01c-1.6-1.89-3.18-3.42-4.82-4.7
	c-1.6-1.23-3.45-2.37-5.69-3.5c-1.87-0.94-3.92-1.81-6.27-2.66c-2.59-0.94-4.6-1.6-6.51-2.14c-0.54-0.15-1.08-0.3-1.62-0.44
	c-0.06-0.02-0.15,0.02-0.17,0.09c-0.02,0.06,0.03,0.15,0.09,0.17c0.68,0.24,1.36,0.48,2.04,0.71c3.51,1.22,7.13,2.48,10.53,4.14
	c4.59,2.24,8,4.76,10.43,7.68c1.6,1.93,2.76,4.17,3.68,6.11c0.3,0.62,0.6,1.25,0.89,1.87c0.73,1.54,1.48,3.13,2.27,4.68
	c0.61,1.19,1.21,2.24,1.83,3.21c0.15,0.25,0.31,0.49,0.47,0.73c0.49,0.74,1,1.51,1.35,2.33c0.5,1.16,0.48,2.43,0.42,3.52
	c-0.05,1-0.09,2.08,0.03,3.2c0.15,1.55,0.45,3.1,0.73,4.6c0.13,0.71,0.27,1.45,0.39,2.18c0.36,2.1,0.63,4.33,0.27,6.45
	c-0.01,0.05-0.02,0.1-0.03,0.15c-0.12-0.22-0.26-0.44-0.4-0.66c-1.52-2.39-3.56-4.7-5.89-6.69c-4.65-3.97-10.19-6.69-15.48-9.03
	c-12.03-5.32-24.08-9.29-35.81-11.8c-11.15-2.38-21.85-3.59-31.79-3.59h-1.18c0.29-0.04,0.6-0.09,0.92-0.13
	c1.08-0.16,2.06-0.3,3.05-0.42c0.76-0.1,1.54-0.15,2.29-0.2c0.26-0.02,0.52-0.03,0.78-0.05c1.01-0.08,2.03-0.17,3.02-0.26
	c0.97-0.08,1.98-0.17,2.97-0.25c4.41-0.32,8.01-0.45,11.34-0.4c1.1,0.02,2.21,0,3.29-0.01c1.05-0.01,2.13-0.03,3.2-0.01
	c2.06,0.02,4.16-0.06,6.19-0.14l0.45-0.02c4.26-0.17,9.25-0.61,13.96-2.62c0.09-0.04,0.13-0.14,0.09-0.23
	c-0.04-0.08-0.13-0.13-0.22-0.09c-3.71,1.46-7.98,2.24-12.69,2.31c-2.27,0.04-4.54-0.1-6.47-0.24c-0.53-0.04-1.05-0.07-1.57-0.09
	c-0.58-0.03-1.17-0.06-1.76-0.11c-0.43-0.03-0.87-0.07-1.31-0.11c-0.66-0.06-1.33-0.12-2-0.16c-1.83-0.11-3.69-0.08-5.6-0.04
	c-2.04,0.05-3.92,0.13-5.73,0.27c-1.85,0.13-4.02,0.31-6.16,0.59c-1.24,0.17-2.5,0.38-3.72,0.58c-0.74,0.13-1.48,0.25-2.23,0.36
	c-2.28,0.36-4.58,0.81-6.54,1.2c-0.81,0.16-1.62,0.34-2.41,0.51c-6.58,0.42-13.19,1.34-19.64,2.75c-7.78,1.71-15.62,4.23-23.29,7.49
	c-6.41,2.72-12.7,6-18.71,9.74c-4.9,3.04-9.61,6.39-14.01,9.95c-3.23,2.62-6.31,5.35-9.16,8.13c-2.17,2.11-4.66,4.62-6.71,7.58
	c-0.06,0.09-0.16,0.22-0.29,0.4c-0.83,1.11-2.75,3.72-4.3,6.96c-0.76,1.58-1.53,3.28-2.35,5.2c-1.28,3.01-2.47,6.31-3.52,9.82
	c-1.6,5.36-2.78,11.29-3.58,18.11C157.65,190.29,157.35,187.93,157.05,185.65z M320.41,255.08c-0.31,3.72-0.77,7.76-1.43,12.69
	c-0.9,6.59-2.14,14.35-4.62,22.01c-2.51,7.74-5.69,14.56-9.45,20.26c-3.34,5.07-7.54,10.11-13.22,15.86
	c-10.36,10.5-21.18,19.16-32.15,25.73c-2.41,1.44-4.63,2.63-6.8,3.62c-3.85,1.78-8.35,3.77-13.07,4.91
	c-9.04,2.19-17.38,2.21-24.11,0.04c-4.01-1.29-7.14-3.22-9.29-5.75c-2.33-2.73-3.64-6.11-4.62-9.05c-0.57-1.72-1.08-3.52-1.56-5.25
	c-1.14-4.04-2.31-8.21-4.44-11.89c-2.05-3.54-4.75-6.59-7.58-9.66c-0.74-0.81-1.48-1.61-2.22-2.41c-2.52-2.71-5.12-5.51-7.5-8.41
	c-8.47-10.29-14.36-22.41-17.51-36.03c-0.69-3.02-0.54-6.27-0.33-9.08c0.27-3.66,0.83-7.28,1.29-10.03c0.3-1.79,0.63-3.61,0.95-5.36
	c0.23-1.25,0.46-2.49,0.68-3.73c0.05-0.29,0.1-0.58,0.15-0.87c0.33-1.79,0.66-3.64,0.67-5.46c0-1.11-0.4-2.13-0.8-3.12
	c-0.03-0.08-0.06-0.16-0.09-0.24c0.83,0.59,1.95,0.69,2.8,0.76c0.39,0.03,0.82,0,1.27-0.08c0.55,0.8,1.17,1.44,1.96,2.03
	c0.73,0.53,1.6,1.02,2.58,1.43c1.56,0.66,3.52,1.04,5.66,1.12c0.24,0,0.48,0.01,0.73,0.01c1.71,0,3.43-0.21,5.12-0.62
	c0.27-0.07,0.54-0.14,0.81-0.21c0.86-0.22,1.74-0.45,2.63-0.58c0.85-0.13,1.68-0.13,2.68-0.1l0.37,0.01
	c0.87,0.03,1.78,0.06,2.67-0.02c0.7-0.06,1.5-0.18,2.18-0.58c0.11,0.05,0.22,0.11,0.33,0.16c0.26,0.11,0.5-0.03,0.59-0.23
	s0.02-0.41-0.18-0.5c-1.43-0.67-2.56-1.84-3.66-2.96l-0.17-0.18c-1.39-1.42-2.82-2.48-4.37-3.25c-1.14-0.61-2.48-1.1-4.11-1.49
	c-1.63-0.38-3.3-0.57-4.97-0.53c-3.45,0.06-6.79,1.02-9.64,2.78c-0.36,0.22-0.72,0.46-1.07,0.7c-0.47,0.32-0.96,0.65-1.46,0.93
	c-0.94,0.53-1.86,0.77-2.84,0.77c-0.03,0-0.06,0.01-0.08,0.02c-0.02,0-0.03,0.03-0.05,0.03c-0.01-0.04-0.03-0.08-0.05-0.12
	c-0.73-2.06-1.38-4.13-1.93-6.14c-0.94-3.4-1.58-6.49-1.95-9.45c-0.12-0.96-0.21-1.95-0.25-3.01c2.43-2.42,5.47-3.68,8.58-3.53
	c7.05,0.31,14.68,2.69,20.81,4.6l0.31,0.1c1.32,0.42,4.05,1.29,5.22,0.54c0.32-0.2,0.51-0.5,0.56-0.9c0.13-1.01-1.28-4.81-1.78-5.49
	c-0.88-1.23-2.93-1.86-4.73-2.42c-0.57-0.18-1.1-0.34-1.54-0.51c-4.53-1.74-18.78-3.84-22.05-2.03c-2.2,1.23-4.02,3.34-5.41,6.29
	c0.03-1.7,0.13-3.39,0.24-5.17v-0.1c0.42-7.05,1-14.6,2.44-22.07c1.16-6.03,3.04-12.3,5.75-19.17c0.59-1.5,1.26-3.08,2.1-4.97
	c0.25-0.54,0.49-1.13,0.76-1.8c1.69-2.99,3.72-6.4,6.43-8.87c0.15-0.13,0.4-0.37,0.67-0.62l0.27-0.26c0.21-0.2,0.43-0.4,0.65-0.61
	l0.56-0.52c3-2.82,5.51-5.06,7.89-7.04c3.97-3.31,8.16-6.44,12.47-9.31c3.34-2.23,6.82-4.33,10.33-6.26c2.61,0.94,5.1,2.12,7.4,3.27
	c2.41,1.19,4.95,2.63,7.78,4.39c5.57,3.47,10.89,7.19,14.9,10.03c9.46,6.71,18.69,13.95,27.43,21.53c8.64,7.48,17.05,15.56,25.01,24
	c3.94,4.17,7.85,8.54,11.65,12.97c1.93,2.25,3.83,4.59,5.67,6.86c1.88,2.31,3.83,4.7,5.8,7.01c2.29,2.66,4.29,4.7,6.29,6.42
	c0.33,0.27,0.68,0.56,1.13,0.92c-0.11,1.76-0.11,3.61,0.02,5.65c0.15,2.34,0.64,4.17,1.54,5.75c0.13,0.23,0.26,0.45,0.4,0.67
	c0.43,0.72,0.87,1.47,1.16,2.27c0.36,1,0.44,2.13,0.24,3.26c-0.33,1.9-1.41,3.58-2.45,5.21l-0.42,0.66
	c-0.66,1.04-1.39,2.19-1.86,3.4c0.01-2.53-0.04-5.07-0.1-7.45c0-0.09-0.09-0.17-0.18-0.16c-0.09,0-0.16,0.07-0.16,0.17
	c0.04,3.06,0.05,6.34-0.07,9.56l-0.02,0.3C320.6,252.54,320.52,253.83,320.41,255.08z M176.98,235.44L176.98,235.44
	c0.45,0.82,1,1.53,1.57,2.02c0.33,0.28,0.72,0.54,1.16,0.75c-2.46,0.15-4.58-0.15-6.44-0.9c-1.59-0.65-3.08-1.59-4.84-3.05
	c0.47-0.16,0.96-0.38,1.46-0.66c0.49-0.27,0.96-0.57,1.42-0.86c0.65-0.41,1.33-0.84,2.04-1.18c0.9-0.42,1.9-0.76,2.96-1.02
	c-0.18,0.54-0.25,1-0.26,1.48C176.05,232.02,175.89,233.22,176.98,235.44z M188.47,237c0,0-3.73,0.06-5,0.5
	c-1.26,0.44-2.62,0.38-2.62,0.38c-1.69-0.73-2.64-1.79-3.15-2.88c-0.19-0.39-0.56-1.35-0.56-2.63v-0.1
	c0.02-1.08,0.27-1.86,0.27-1.86c4.97-1.2,12.59,2.68,12.59,2.68C190.47,234.18,188.47,237,188.47,237z M190.86,233.92
	c0.38,0.31,0.74,0.63,1.1,0.95c0.69,0.62,1.4,1.25,2.18,1.76c-0.51,0.21-1.08,0.28-1.53,0.32c-0.89,0.08-1.8,0.05-2.58,0.02
	l-0.37-0.02c-0.11,0-0.21-0.01-0.32-0.01C190.06,236.17,190.75,234.94,190.86,233.92z M327,265.09c-0.63,0.38-1.35,0.58-2.11,0.58
	c-0.01,0-0.01,0-0.02,0c-1.49,0-2.9-0.94-3.68-2.45c-0.29-0.57-0.5-1.24-0.61-1.97l0.01-0.2c0.11-1.96,0.23-3.97,0.36-5.95
	c0.08-1.16,0.14-2.35,0.18-3.65c0.11-0.95,0.4-1.93,0.89-2.96c0.81,0.83,1.71,1.53,2.83,1.23c1.02-0.28,1.77-1.38,2.26-2.1
	c1.46-2.16,2.6-4.8,3.39-7.85c0.33-1.25,0.69-2.66,1-4.08c0.48,1.24,1.01,2.66,1.53,4.13c0.09,0.26,0.19,0.52,0.29,0.79
	c0.15,0.37,0.3,0.76,0.42,1.15l-0.01,0.02c-0.23,0.51-0.48,1.03-0.71,1.56c-0.51,1.19-0.84,2.44-1.12,3.62
	c-0.6,2.42-1.1,5.06-1.55,8.05c-0.1,0.71-0.17,1.44-0.24,2.15c-0.17,1.69-0.35,3.43-0.98,5.02c0.03-0.15,0.05-0.3,0.05-0.46
	c0-1.64-1.33-2.97-2.96-2.97c-1.64,0-2.97,1.33-2.97,2.97c0,1.63,1.33,2.96,2.97,2.96c0.77,0,1.47-0.3,2-0.79
	C327.83,264.43,327.43,264.83,327,265.09z M330.13,351.91c-0.01,0-0.03,0-0.05,0.01c-0.75,0.21-1.78,0.25-1.99,0.26
	c-0.02,0-0.03,0-0.03,0c-0.18,0.02-0.35,0.03-0.53,0.04c-3.99,0.14-7.99-1.16-11.26-3.67c-3.16-2.43-5.66-5.99-7.04-10.03
	c-1.44-4.23-1.66-9-0.63-13.42c1.01-4.32,3.14-8.16,6.14-11.1c2.98-2.91,6.74-4.76,10.59-5.23c0.12-0.02,0.25-0.03,0.38-0.03
	l0.01-0.01c0,0,0.16-0.01,0.4-0.02c0.04-0.01,0.07-0.01,0.11-0.01v0.01c0.52-0.03,1.35-0.07,2.01-0.04c0.02-0.01,0.04,0,0.06,0
	c0.21,0.01,0.41,0.03,0.62,0.05c3.75,0.33,7.39,1.94,10.29,4.56c3.04,2.74,5.23,6.4,6.35,10.6c1.16,4.35,1.07,9.13-0.26,13.47
	c-1.28,4.2-3.64,7.84-6.81,10.52C336.05,349.93,333.16,351.32,330.13,351.91z M339.41,324.91c0.29-6.18-2.87-11.91-7.88-14.25
	c-0.97-0.46-2.04-0.78-3.15-0.96c-0.04-0.01-0.08-0.01-0.12-0.02c-0.4-0.06-1.24-0.14-2.43-0.1h-0.15
	c-0.73,0.05-1.46,0.16-2.16,0.35c-2.56,0.68-4.96,2.28-6.74,4.49c-3.74,4.65-4.51,11.45-1.92,16.91c1.22,2.58,3.16,4.72,5.47,6.05
	c1.54,0.9,3.29,1.42,5.07,1.54c0.03,0,0.06,0.01,0.09,0.01h0.01c0.26,0.02,0.51,0.03,0.76,0.03c0.32,0,0.65-0.02,0.97-0.04v0.01
	c0.89-0.09,1.72-0.29,2.15-0.4c4.81-1.33,8.72-5.86,9.75-11.33C339.27,326.47,339.36,325.7,339.41,324.91z M325.72,338.23
	c-1.19-0.06-2.33-0.29-3.42-0.7c-2.32-0.89-4.41-2.62-5.88-4.89c-3.07-4.75-3.15-11.25-0.18-16.17c1.38-2.31,3.41-4.16,5.7-5.2
	c0.87-0.4,1.8-0.68,2.77-0.84c-0.79,0.54-1.29,1.45-1.29,2.43c0,1.26,0.79,2.35,1.93,2.77c-1.81,0.3-3.48,1.29-4.68,2.77
	c-2.22,2.75-2.69,6.78-1.17,10.03c1.25,2.65,3.69,4.38,6.38,4.55c-1.01,0.49-1.68,1.51-1.68,2.67
	C324.2,336.74,324.79,337.71,325.72,338.23z M326.44,332.25c-0.12,0-0.24,0-0.37-0.01c-0.12,0-0.24-0.01-0.36-0.03
	c-0.11-0.01-0.23-0.03-0.35-0.05c-1.86-0.29-3.59-1.41-4.69-3.12c-1.2-1.87-1.59-4.21-1.17-6.4c0.01-0.02,0.01-0.04,0.01-0.06
	c0.04-0.24,0.1-0.48,0.17-0.71c0-0.01,0-0.01,0.01-0.02c0.05-0.2,0.12-0.4,0.19-0.6c0.05-0.16,0.12-0.32,0.19-0.48
	c0.07-0.17,0.15-0.33,0.24-0.5c0.1-0.19,0.21-0.38,0.32-0.56c0.14-0.22,0.28-0.43,0.43-0.63c0.01-0.01,0.01-0.02,0.02-0.02
	c1.24-1.61,3.02-2.63,4.91-2.78c0.13-0.01,0.26-0.02,0.4-0.02h0.03c0.01,0,0.01,0,0.02,0c0.7,0,1.37,0.11,2,0.32
	c0-0.01,0-0.01,0-0.02c0.73,0.24,1.39,0.6,1.96,1.06c0.1,0.06,0.19,0.14,0.28,0.23c0.15,0.13,0.29,0.26,0.43,0.39
	c1.48,1.47,2.41,3.62,2.41,6.02C333.52,328.67,330.35,332.25,326.44,332.25z M338.68,324.9c-0.33,5.89-3.87,11.01-8.81,12.73
	c-0.21,0.07-0.42,0.14-0.68,0.21v-0.04c0.6-0.56,0.94-1.34,0.94-2.15c0-0.91-0.41-1.75-1.14-2.32c-0.01-0.28-0.02-0.56-0.03-0.84
	c2.9-1.18,4.98-4.32,5.18-7.85c0.17-3.68-1.72-7.09-4.69-8.47c-0.33-0.16-0.68-0.28-1.04-0.38c0-0.27-0.01-0.53-0.02-0.79
	c0.6-0.55,0.96-1.33,0.96-2.14c0-0.88-0.4-1.68-1.07-2.25v-0.2c0.47,0.07,0.89,0.17,1.28,0.27c4.94,1.42,8.6,6.25,9.08,12.02
	C338.7,323.41,338.72,324.15,338.68,324.9z M331.53,310.66c-0.97-0.46-2.04-0.78-3.15-0.96c-0.04-0.01-0.08-0.01-0.12-0.02
	c-0.4-0.06-1.24-0.14-2.43-0.1h-0.15c-0.73,0.05-1.46,0.16-2.16,0.35c-2.56,0.68-4.96,2.28-6.74,4.49
	c-3.74,4.65-4.51,11.45-1.92,16.91c1.22,2.58,3.16,4.72,5.47,6.05c1.54,0.9,3.29,1.42,5.07,1.54c0.03,0,0.06,0.01,0.09,0.01h0.01
	c0.26,0.02,0.51,0.03,0.76,0.03c0.32,0,0.65-0.02,0.97-0.04v0.01c0.89-0.09,1.72-0.29,2.15-0.4c4.81-1.33,8.72-5.86,9.75-11.33
	c0.14-0.73,0.23-1.5,0.28-2.29C339.7,318.73,336.54,313,331.53,310.66z M325.72,338.23c-1.19-0.06-2.33-0.29-3.42-0.7
	c-2.32-0.89-4.41-2.62-5.88-4.89c-3.07-4.75-3.15-11.25-0.18-16.17c1.38-2.31,3.41-4.16,5.7-5.2c0.87-0.4,1.8-0.68,2.77-0.84
	c-0.79,0.54-1.29,1.45-1.29,2.43c0,1.26,0.79,2.35,1.93,2.77c-1.81,0.3-3.48,1.29-4.68,2.77c-2.22,2.75-2.69,6.78-1.17,10.03
	c1.25,2.65,3.69,4.38,6.38,4.55c-1.01,0.49-1.68,1.51-1.68,2.67C324.2,336.74,324.79,337.71,325.72,338.23z M326.44,332.25
	c-0.12,0-0.24,0-0.37-0.01c-0.12,0-0.24-0.01-0.36-0.03c-0.11-0.01-0.23-0.03-0.35-0.05c-1.86-0.29-3.59-1.41-4.69-3.12
	c-1.2-1.87-1.59-4.21-1.17-6.4c0.01-0.02,0.01-0.04,0.01-0.06c0.04-0.24,0.1-0.48,0.17-0.71c0-0.01,0-0.01,0.01-0.02
	c0.05-0.2,0.12-0.4,0.19-0.6c0.05-0.16,0.12-0.32,0.19-0.48c0.07-0.17,0.15-0.33,0.24-0.5c0.1-0.19,0.21-0.38,0.32-0.56
	c0.14-0.22,0.28-0.43,0.43-0.63c0.01-0.01,0.01-0.02,0.02-0.02c1.24-1.61,3.02-2.63,4.91-2.78c0.13-0.01,0.26-0.02,0.4-0.02h0.03
	c0.01,0,0.01,0,0.02,0c0.7,0,1.37,0.11,2,0.32c0-0.01,0-0.01,0-0.02c0.73,0.24,1.39,0.6,1.96,1.06c0.1,0.06,0.19,0.14,0.28,0.23
	c0.15,0.13,0.29,0.26,0.43,0.39c1.48,1.47,2.41,3.62,2.41,6.02C333.52,328.67,330.35,332.25,326.44,332.25z M338.68,324.9
	c-0.33,5.89-3.87,11.01-8.81,12.73c-0.21,0.07-0.42,0.14-0.68,0.21v-0.04c0.6-0.56,0.94-1.34,0.94-2.15c0-0.91-0.41-1.75-1.14-2.32
	c-0.01-0.28-0.02-0.56-0.03-0.84c2.9-1.18,4.98-4.32,5.18-7.85c0.17-3.68-1.72-7.09-4.69-8.47c-0.33-0.16-0.68-0.28-1.04-0.38
	c0-0.27-0.01-0.53-0.02-0.79c0.6-0.55,0.96-1.33,0.96-2.14c0-0.88-0.4-1.68-1.07-2.25v-0.2c0.47,0.07,0.89,0.17,1.28,0.27
	c4.94,1.42,8.6,6.25,9.08,12.02C338.7,323.41,338.72,324.15,338.68,324.9z M331.53,310.66c-0.97-0.46-2.04-0.78-3.15-0.96
	c-0.04-0.01-0.08-0.01-0.12-0.02c-0.4-0.06-1.24-0.14-2.43-0.1h-0.15c-0.73,0.05-1.46,0.16-2.16,0.35
	c-2.56,0.68-4.96,2.28-6.74,4.49c-3.74,4.65-4.51,11.45-1.92,16.91c1.22,2.58,3.16,4.72,5.47,6.05c1.54,0.9,3.29,1.42,5.07,1.54
	c0.03,0,0.06,0.01,0.09,0.01h0.01c0.26,0.02,0.51,0.03,0.76,0.03c0.32,0,0.65-0.02,0.97-0.04v0.01c0.89-0.09,1.72-0.29,2.15-0.4
	c4.81-1.33,8.72-5.86,9.75-11.33c0.14-0.73,0.23-1.5,0.28-2.29C339.7,318.73,336.54,313,331.53,310.66z M325.72,338.23
	c-1.19-0.06-2.33-0.29-3.42-0.7c-2.32-0.89-4.41-2.62-5.88-4.89c-3.07-4.75-3.15-11.25-0.18-16.17c1.38-2.31,3.41-4.16,5.7-5.2
	c0.87-0.4,1.8-0.68,2.77-0.84c-0.79,0.54-1.29,1.45-1.29,2.43c0,1.26,0.79,2.35,1.93,2.77c-1.81,0.3-3.48,1.29-4.68,2.77
	c-2.22,2.75-2.69,6.78-1.17,10.03c1.25,2.65,3.69,4.38,6.38,4.55c-1.01,0.49-1.68,1.51-1.68,2.67
	C324.2,336.74,324.79,337.71,325.72,338.23z M326.44,332.25c-0.12,0-0.24,0-0.37-0.01c-0.12,0-0.24-0.01-0.36-0.03
	c-0.11-0.01-0.23-0.03-0.35-0.05c-1.86-0.29-3.59-1.41-4.69-3.12c-1.2-1.87-1.59-4.21-1.17-6.4c0.01-0.02,0.01-0.04,0.01-0.06
	c0.04-0.24,0.1-0.48,0.17-0.71c0-0.01,0-0.01,0.01-0.02c0.05-0.2,0.12-0.4,0.19-0.6c0.05-0.16,0.12-0.32,0.19-0.48
	c0.07-0.17,0.15-0.33,0.24-0.5c0.1-0.19,0.21-0.38,0.32-0.56c0.14-0.22,0.28-0.43,0.43-0.63c0.01-0.01,0.01-0.02,0.02-0.02
	c1.24-1.61,3.02-2.63,4.91-2.78c0.13-0.01,0.26-0.02,0.4-0.02h0.03c0.01,0,0.01,0,0.02,0c0.7,0,1.37,0.11,2,0.32
	c0-0.01,0-0.01,0-0.02c0.73,0.24,1.39,0.6,1.96,1.06c0.1,0.06,0.19,0.14,0.28,0.23c0.15,0.13,0.29,0.26,0.43,0.39
	c1.48,1.47,2.41,3.62,2.41,6.02C333.52,328.67,330.35,332.25,326.44,332.25z M338.68,324.9c-0.33,5.89-3.87,11.01-8.81,12.73
	c-0.21,0.07-0.42,0.14-0.68,0.21v-0.04c0.6-0.56,0.94-1.34,0.94-2.15c0-0.91-0.41-1.75-1.14-2.32c-0.01-0.28-0.02-0.56-0.03-0.84
	c2.9-1.18,4.98-4.32,5.18-7.85c0.17-3.68-1.72-7.09-4.69-8.47c-0.33-0.16-0.68-0.28-1.04-0.38c0-0.27-0.01-0.53-0.02-0.79
	c0.6-0.55,0.96-1.33,0.96-2.14c0-0.88-0.4-1.68-1.07-2.25v-0.2c0.47,0.07,0.89,0.17,1.28,0.27c4.94,1.42,8.6,6.25,9.08,12.02
	C338.7,323.41,338.72,324.15,338.68,324.9z"/>
<path id="ID_8_" class="st4" d="M196.1,233.22c0.04,0,0.07-0.01,0.1-0.04c0.04-0.04,0.06-0.13,0.03-0.18
	c-0.36-0.72-1.01-1.33-1.59-1.87c-0.1-0.09-0.2-0.19-0.29-0.28c-0.85-0.81-1.71-1.58-2.56-2.28c-0.71-0.59-1.57-1.26-2.5-1.84
	c-1.07-0.67-2.23-1.23-3.36-1.77c-1.91-0.93-4.22-1.46-6.88-1.57c-2.39-0.1-4.58,0.28-6.5,1.14c-1,0.45-2.03,1.05-3.27,1.88
	c-1.2,0.82-2.22,1.71-3.03,2.65c-0.09,0.11-0.08,0.26,0.02,0.35c0.1,0.09,0.24,0.09,0.34-0.01c0.73-0.74,1.62-1.6,2.66-2.32
	c0.85-0.6,1.78-1.06,2.92-1.45c1.81-0.62,3.9-0.95,6.04-0.95c0.03,0,0.07,0,0.1,0c2.17,0.01,4.41,0.39,6.45,1.1
	c2.2,0.76,4.21,1.79,5.97,3.06c0.92,0.66,1.85,1.41,2.85,2.28c0.22,0.2,0.44,0.4,0.66,0.6c0.21,0.19,0.42,0.38,0.63,0.57
	c0.09,0.08,0.18,0.16,0.26,0.24c0.26,0.24,0.53,0.49,0.85,0.68C196.04,233.21,196.07,233.22,196.1,233.22z"/>
<path id="ID_7_" class="st4" d="M186.13,245.85c1.29-0.51,2.55-1.22,3.96-2.23c0.07-0.05,0.09-0.15,0.04-0.22s-0.14-0.09-0.21-0.04
	c-2.59,1.62-5.43,2.34-7.36,2.65c-2.46,0.41-5.09,0.34-7.81-0.2c-0.76-0.15-1.5-0.4-2.08-0.61c-0.72-0.26-1.46-0.52-2.15-0.86
	c-0.07-0.04-0.16-0.01-0.2,0.06c-0.04,0.07-0.01,0.16,0.06,0.2c1.27,0.74,2.44,1.25,3.68,1.62c1.4,0.42,2.71,0.67,3.99,0.77
	c0.51,0.04,1.02,0.06,1.53,0.06C181.88,247.05,184.12,246.65,186.13,245.85z"/>
<path id="ID_6_" class="st4" d="M319.8,353.03c-1.63,0-2.96,1.33-2.96,2.96s1.33,2.96,2.96,2.96s2.96-1.33,2.96-2.96
	S321.44,353.03,319.8,353.03z"/>
<path id="ID_5_" class="st4" d="M333.16,355.43c0,1.63,1.33,2.96,2.96,2.96s2.96-1.33,2.96-2.96s-1.33-2.96-2.96-2.96
	S333.16,353.8,333.16,355.43z"/>
<ellipse id="ID_4_" transform="matrix(0.9777 -0.21 0.21 0.9777 -45.2228 42.4255)" class="st5" cx="177.16" cy="234.16" rx="2.06" ry="1.21"/>
<ellipse id="ID_3_" transform="matrix(0.5783 -0.8158 0.8158 0.5783 -113.0579 251.526)" class="st5" cx="186.78" cy="235.13" rx="0.68" ry="0.77"/>
<ellipse id="ID_2_" transform="matrix(0.21 -0.9777 0.9777 0.21 -13.5318 443.4021)" class="st5" cx="267.61" cy="230.07" rx="1.21" ry="2.06"/>
<ellipse id="ID_1_" transform="matrix(0.8158 -0.5783 0.5783 0.8158 -85.8212 191.5032)" class="st5" cx="257.74" cy="230.48" rx="0.77" ry="0.68"/>
</svg>
